<?xml version="1.0" encoding="utf-8"?>
<!-- Generator: Adobe Illustrator 17.0.1, SVG Export Plug-In . SVG Version: 6.00 Build 0)  -->
<!DOCTYPE svg PUBLIC "-//W3C//DTD SVG 1.1//EN" "http://www.w3.org/Graphics/SVG/1.1/DTD/svg11.dtd">
<svg version="1.1" id="Layer_1" xmlns="http://www.w3.org/2000/svg" xmlns:xlink="http://www.w3.org/1999/xlink" x="0px" y="0px"
	 width="100px" height="100px" viewBox="0 0 100 100" enable-background="new 0 0 100 100" xml:space="preserve">
<circle fill="#30B4A6" cx="50.004" cy="49.324" r="38.667"/>
<g>
	<path fill="#116B5A" d="M52.585,54.603c-0.912,0.47-1.824,0.94-2.738,1.407c-0.062,0.032-0.139,0.048-0.209,0.048
		c-3.372-0.014-6.618-0.606-9.653-2.138c-0.415-0.21-0.812-0.457-1.21-0.699c-0.711-0.431-1.303-0.967-1.761-1.685
		c-0.476-0.746-1.056-1.427-1.61-2.12c-0.17-0.212-0.403-0.375-0.615-0.552c-0.111-0.093-0.219-0.076-0.323,0.037
		c-0.764,0.827-1.092,1.796-0.913,2.91c0.037,0.228,0.199,0.441,0.328,0.645c0.102,0.162,0.314,0.295,0.213,0.51
		c-0.099,0.211-0.332,0.209-0.539,0.204c-0.55-0.012-0.893,0.413-0.774,0.951c0.014,0.065-0.015,0.18-0.063,0.211
		c-0.956,0.622-1.175,1.524-0.982,2.576c0.06,0.326,0.171,0.642,0.26,0.968c-0.014-0.005-0.036-0.007-0.046-0.019
		c-0.942-1.105-1.13-2.489-0.439-3.713c0.054-0.095,0.065-0.216,0.087-0.327c0.066-0.326,0.078-0.674,0.206-0.973
		c0.105-0.246,0.32-0.467,0.535-0.638c0.152-0.122,0.245-0.214,0.267-0.42c0.078-0.726,0.296-1.409,0.716-2.017
		c0.273-0.395,0.608-0.727,1.024-0.968c0.134-0.078,0.211-0.176,0.212-0.327c0.002-0.319,0.048-0.648-0.013-0.956
		c-0.199-1.011-0.175-2.03-0.157-3.048c0.004-0.257-0.072-0.394-0.29-0.535c-0.938-0.609-1.491-1.474-1.626-2.593
		c-0.013-0.107-0.011-0.216,0.001-0.332c0.24,0.594,0.648,1.043,1.17,1.409c-0.556-0.742-0.94-1.523-0.585-2.476
		c-0.359,0.065-0.877,0.551-0.993,0.925c-0.186,0.599-0.073,1.152,0.261,1.667c0.361,0.557,0.87,0.954,1.429,1.295
		c0.068,0.041,0.135,0.082,0.214,0.129c-0.027,0.02-0.041,0.04-0.056,0.04c-1.865-0.003-3.573-0.477-5.017-1.706
		c-1.444-1.229-1.737-2.793-1.268-4.557c0.344-1.292,1.015-2.409,1.869-3.424c0.041-0.049,0.08-0.1,0.139-0.175
		c-0.063-0.008-0.102-0.022-0.138-0.016c-1.27,0.199-2.37,0.702-3.132,1.788c-0.384,0.547-0.604,1.162-0.673,1.825
		c-0.091,0.865,0.307,1.503,1.118,1.815c0.087,0.033,0.174,0.065,0.261,0.098c-0.007,0.022-0.014,0.043-0.021,0.065
		c-0.342-0.111-0.697-0.195-1.025-0.339c-1.275-0.561-1.928-1.557-1.957-2.944c-0.039-1.799,0.693-3.181,2.271-4.09
		c0.972-0.561,2.028-0.913,3.083-1.274c0.695-0.238,1.392-0.475,2.069-0.76c0.575-0.242,1.078-0.609,1.462-1.115
		c0.272-0.358,0.428-0.757,0.416-1.267c-0.27,0.297-0.425,0.653-0.798,0.803c0.165-0.826,0.327-1.638,0.492-2.466
		c-0.022,0.006-0.003-0.005,0.003,0c0.49,0.385,0.885,0.846,1.089,1.443c0.22,0.641,0.053,1.205-0.389,1.697
		c-0.458,0.51-1.039,0.847-1.665,1.096c-0.818,0.326-1.652,0.609-2.475,0.92c-0.963,0.363-1.917,0.754-2.709,1.433
		c-1.332,1.143-1.862,2.614-1.715,4.345c0.01,0.119,0.053,0.236,0.105,0.347c0.032-0.312,0.039-0.629,0.1-0.935
		c0.279-1.402,1.144-2.34,2.391-2.963c0.918-0.459,1.904-0.676,2.916-0.785c0.209-0.023,0.385-0.079,0.558-0.209
		c1.257-0.947,2.65-1.6,4.2-1.907c0.233-0.046,0.473-0.117,0.677-0.234c0.834-0.476,1.662-0.965,2.479-1.468
		c0.676-0.417,1.375-0.762,2.171-0.875c0.863-0.122,1.663,0.074,2.424,0.472c0.017,0.009,0.027,0.03,0.063,0.071
		c-0.198-0.025-0.367-0.047-0.537-0.067c-0.984-0.113-1.861,0.109-2.605,0.795c-0.41,0.378-0.843,0.732-1.262,1.094
		c4.815,0.171,9.202,1.65,13.021,4.702c-0.026-0.011-0.054-0.018-0.077-0.032c-2.183-1.373-4.561-2.245-7.074-2.784
		c-1.928-0.414-3.869-0.696-5.845-0.682c-2.088,0.014-4.121,0.328-6.037,1.204c-1.842,0.843-3.34,2.083-4.38,3.842
		c-0.073,0.124-0.137,0.254-0.189,0.397c0.344-0.353,0.745-0.608,1.233-0.752c-0.042,0.059-0.083,0.118-0.127,0.176
		c-0.541,0.726-0.98,1.5-1.121,2.411c-0.085,0.545-0.025,1.072,0.227,1.573c0.818,1.624,2.187,2.451,3.963,2.713
		c-0.051-0.062-0.102-0.124-0.154-0.186c-0.377-0.445-0.685-0.927-0.776-1.516c-0.092-0.595,0.081-1.124,0.433-1.6
		c0.416-0.563,0.956-0.99,1.575-1.292c2.826-1.38,5.71-2.612,8.822-3.202c1.143-0.217,2.295-0.312,3.451-0.072
		c0.731,0.152,1.361,0.481,1.892,1.02c1.003,1.015,2.187,1.708,3.617,1.933c0.632,0.099,1.262,0.09,1.889-0.044
		c0.062-0.013,0.126-0.02,0.221-0.034c-0.225,0.372-0.434,0.717-0.658,1.088c0.446,0.045,0.769-0.077,0.948-0.486
		c0.298,0.399,0.224,0.957-0.166,1.667c0.159-0.11,0.32-0.216,0.475-0.33c0.162-0.119,0.318-0.246,0.508-0.394
		c-0.141,0.342-0.266,0.644-0.393,0.951c0.185-0.063,0.336-0.125,0.493-0.16c0.041-0.009,0.138,0.058,0.147,0.103
		c0.352,1.695,0.646,3.395,0.313,5.131c-0.158,0.823-0.458,1.579-1.095,2.165c0.014,0.018,0.029,0.036,0.043,0.055
		c0.206-0.155,0.419-0.303,0.617-0.468c0.2-0.166,0.385-0.35,0.565-0.515c0.094,0.402-0.162,0.815-1.212,1.881
		c0.197-0.029,0.341-0.037,0.478-0.072c0.483-0.125,0.888-0.398,1.185-0.782c0.431-0.556,0.815-1.149,1.21-1.732
		c0.146-0.216,0.251-0.462,0.401-0.675c0.502-0.71,1.361-0.422,1.667,0.084c0.198,0.327,0.28,0.688,0.307,1.06
		c0.05,0.684-0.035,1.351-0.296,1.991c-0.164,0.402-0.454,0.668-0.853,0.826c-0.523,0.206-1.073,0.259-1.626,0.295
		c-0.484,0.031-0.957,0.114-1.38,0.364c-0.19,0.113-0.357,0.265-0.57,0.428c0.063-0.127,0.103-0.225,0.158-0.315
		c0.44-0.709,1.562-1.186,2.385-1.017c1.016,0.209,1.728-0.292,1.801-1.327c0.035-0.502-0.039-1.013-0.081-1.518
		c-0.01-0.125-0.073-0.253-0.136-0.365c-0.169-0.302-0.461-0.357-0.698-0.107c-0.3,0.316-0.579,0.654-0.848,0.998
		c-0.415,0.529-0.839,1.046-1.384,1.449c-0.416,0.308-0.864,0.547-1.386,0.602c-0.218,0.023-0.441-0.007-0.703-0.014
		c0.149-0.23,0.263-0.407,0.416-0.643c-0.611,0.201-1.16,0.281-1.708,0.105c1.56-0.657,2.149-1.93,2.242-3.513
		c0.061-1.037-0.05-2.065-0.224-3.088c-0.027-0.158-0.086-0.236-0.253-0.208c-0.121,0.02-0.182-0.046-0.185-0.157
		c-0.006-0.224-0.002-0.448-0.002-0.669c-0.193,0.076-0.383,0.178-0.585,0.224c-0.205,0.047-0.423,0.04-0.677,0.06
		c0.6-0.727,0.796-1.113,0.787-1.55c-0.312,0.266-0.685,0.269-1.048,0.335c-0.306,0.056-0.593,0.215-0.906,0.336
		c0.133-0.583,0.459-1.048,0.901-1.445c-0.007-0.02-0.013-0.04-0.02-0.061c-0.455,0-0.913,0.035-1.364-0.007
		c-1.233-0.115-2.375-0.465-3.332-1.313c-0.552-0.489-1.258-0.646-1.975-0.742c-1.052-0.141-2.073,0.05-3.096,0.26
		c-2.325,0.476-4.643,0.981-6.901,1.719c-0.794,0.259-1.559,0.604-2.34,0.903c-0.175,0.067-0.221,0.183-0.215,0.354
		c0.022,0.628,0.326,1.109,0.796,1.493c0.226,0.185,0.485,0.054,0.508-0.244c0.022-0.276,0.035-0.552,0.07-0.828
		c0,0.745-0.006,1.489,0.001,2.234c0.016,1.545,0.067,3.087,0.351,4.612c0.103,0.556,0.285,1.078,0.588,1.563
		c0.631,1.009,1.291,1.992,2.135,2.84c1.297,1.303,2.898,1.944,4.693,2.146c1.458,0.164,2.873-0.094,4.269-0.495
		c0.105-0.03,0.21-0.061,0.315-0.09c0.012-0.003,0.027,0.006,0.072,0.016c-0.597,0.685-1.351,1.017-2.228,1.119
		c0.004,0.029,0.008,0.059,0.012,0.088c0.364,0,0.728,0.013,1.09-0.002c1.382-0.058,2.704-0.403,3.997-0.87
		c0.595-0.215,1.181-0.457,1.771-0.687c0.072-0.028,0.145-0.056,0.227-0.057c-1.789,1.332-3.779,2.091-6.032,2.105
		C48.096,55.325,50.355,55.218,52.585,54.603z"/>
	<path fill="#116B5A" d="M67.64,35.589c0.605,0.567,1.008,1.298,1.239,2.126c0.292,1.048,0.341,2.112,0.148,3.18
		c-0.27,1.489-1.171,2.396-2.643,2.699c-0.668,0.137-1.358,0.164-2.031,0.277c-0.412,0.069-0.829,0.168-1.215,0.325
		c-0.45,0.182-0.77,0.526-0.851,1.033c-0.055,0.345,0.026,0.65,0.314,0.878c0.108,0.086,0.215,0.174,0.316,0.269
		c0.538,0.507,0.624,1.116,0.251,1.759c-0.254,0.438-0.642,0.729-1.076,0.965c-0.673,0.364-1.401,0.565-2.147,0.711
		c-0.091,0.018-0.182,0.039-0.275,0.071c0.596,0.087,1.057,0.34,1.245,0.951c-0.589-0.42-1.201-0.784-1.936-0.895
		c0.451-0.099,0.902-0.198,1.353-0.298c0.557-0.123,1.1-0.285,1.594-0.58c0.416-0.248,0.748-0.574,0.966-1.013
		c0.219-0.44,0.188-0.862-0.139-1.218c-0.254-0.276-0.565-0.499-0.848-0.748c-0.235-0.206-0.476-0.405-0.695-0.627
		c-0.115-0.117-0.204-0.267-0.276-0.416c-0.176-0.369-0.11-0.709,0.243-0.913c0.322-0.186,0.682-0.34,1.045-0.417
		c0.668-0.142,1.352-0.204,2.026-0.321c1.073-0.186,1.963-0.696,2.676-1.526c0.77-0.895,0.959-1.943,0.884-3.082
		c-0.114-1.722-0.969-3.016-2.278-4.061c-0.068-0.054-0.137-0.106-0.245-0.19c0.077,0.013,0.108,0.013,0.135,0.024
		c1.063,0.4,2.165,0.43,3.276,0.334c0.776-0.067,1.547-0.183,2.322-0.256c0.652-0.062,1.295-0.001,1.917,0.221
		c0.725,0.26,1.267,0.731,1.619,1.417c0.027,0.052,0.053,0.103,0.082,0.154c0.006,0.011,0.019,0.019,0.069,0.009
		c-0.113-0.223-0.211-0.455-0.343-0.666c-0.576-0.924-1.438-1.495-2.422-1.89c-1.596-0.64-3.248-0.821-4.951-0.566
		c-0.901,0.135-1.807,0.235-2.717,0.068c-0.107-0.02-0.212-0.052-0.316-0.084c-0.048-0.015-0.092-0.041-0.191-0.087
		c0.111-0.04,0.181-0.06,0.247-0.089c0.331-0.148,0.683-0.264,0.988-0.455c0.683-0.428,0.914-1.031,0.692-1.805
		c-0.151-0.525-0.253-1.045-0.169-1.592c0.008-0.053-0.06-0.142-0.117-0.177c-0.326-0.2-0.684-0.216-1.032-0.096
		c-0.313,0.109-0.608,0.271-0.91,0.413c-0.062,0.029-0.119,0.072-0.216,0.082c0.065-0.174,0.121-0.352,0.195-0.523
		c0.601-1.396,1.683-2.108,3.179-2.231c0.69-0.057,1.366,0.024,2.035,0.189c0.054,0.013,0.109,0.022,0.196,0.039
		c-0.022-0.101-0.035-0.177-0.056-0.251c-0.319-1.128-1.034-1.939-2.029-2.52c-1.007-0.588-2.109-0.864-3.261-0.956
		c-0.811-0.065-1.534,0.217-2.221,0.605c-1.285,0.725-2.337,1.728-3.315,2.816c-0.066,0.074-0.131,0.149-0.221,0.251
		c-0.019-0.41-0.019-0.778-0.057-1.143c-0.25-2.406-1.371-4.243-3.53-5.409c-1.166-0.63-2.369-1.15-3.683-1.38
		c-0.932-0.163-1.849-0.141-2.764,0.136c-1.741,0.527-3.52,0.819-5.339,0.952c-2.524,0.184-4.986,0.693-7.314,1.735
		c-0.212,0.095-0.414,0.214-0.622,0.318c-2.477,1.23-2.923,4.141-2.307,5.931c0.023,0.067,0.042,0.135,0.047,0.206
		c-0.231-0.417-0.365-0.867-0.413-1.336c-0.239-2.298,0.55-4.144,2.455-5.482c1.249-0.877,2.664-1.36,4.138-1.693
		c1.047-0.237,2.109-0.355,3.179-0.422c1.198-0.075,2.335-0.397,3.435-0.868c0.957-0.41,1.91-0.831,2.931-1.067
		c2.882-0.664,5.339,0.134,7.419,2.181c1.284,1.264,2.22,2.766,2.921,4.418c0.209,0.493,0.431,0.614,0.941,0.436
		c0.321-0.112,0.628-0.27,0.929-0.43c0.856-0.455,1.708-0.914,2.633-1.217c2.116-0.694,4.034-0.216,5.779,1.046
		c1.116,0.807,1.588,1.977,1.582,3.343c-0.003,0.743-0.148,1.459-0.429,2.176c-0.817-1.798-2.257-2.286-4.052-1.933
		c-0.884,0.174-1.489,0.762-1.855,1.589c0.811-0.51,1.645-0.918,2.642-0.769c0.349,0.052,0.688,0.199,0.925,0.407
		c-0.056,0.024-0.105,0.043-0.152,0.064c-0.199,0.087-0.411,0.154-0.595,0.266c-0.451,0.275-0.597,0.681-0.49,1.2
		c0.077,0.376,0.16,0.757,0.179,1.139c0.037,0.745-0.215,1.372-0.859,1.848c0.245-0.022,0.495-0.018,0.733-0.07
		c1.251-0.273,2.511-0.433,3.794-0.358c1.051,0.061,2.069,0.264,2.999,0.776c1.231,0.677,2.09,1.661,2.405,3.06
		c0.267,1.187-0.253,2.557-0.869,3.258c0.053-0.237,0.115-0.46,0.151-0.686c0.104-0.655-0.031-1.269-0.309-1.866
		c-0.611-1.316-1.649-1.953-3.084-1.955c-0.436,0-0.872,0.04-1.307,0.076C69.167,35.448,68.401,35.521,67.64,35.589z"/>
	<path fill="#116B5A" d="M46.248,20.765c0.689,0.039,1.38,0.059,2.067,0.121c1.07,0.097,2.115,0.319,3.121,0.708
		c1.388,0.537,2.419,1.438,3.024,2.826c0.532,1.221,0.877,2.467,0.766,3.81c-0.018,0.214-0.056,0.427-0.092,0.689
		c1.008-0.311,1.272-1.085,1.382-2.033c0.312,0.562,0.457,1.106,0.447,1.688c-0.01,0.591-0.237,1.101-0.657,1.554
		c0.156,0.043,0.28,0.075,0.404,0.11c1.66,0.476,3.166,1.221,4.347,2.518c1.175,1.291,1.633,2.83,1.485,4.554
		c-0.047,0.54-0.159,1.074-0.242,1.611c-0.022-0.003-0.044-0.007-0.067-0.01c0.026-0.226,0.06-0.452,0.077-0.679
		c0.177-2.444-0.868-4.282-2.835-5.642c-1.781-1.231-3.764-1.618-5.886-1.292c-0.463,0.071-0.905,0.269-1.362,0.388
		c-0.274,0.071-0.556,0.113-0.837,0.151c-0.595,0.081-1.119-0.113-1.606-0.438c-0.601-0.402-1.107-0.911-1.517-1.497
		c-0.775-1.109-1.528-2.235-2.26-3.374c-0.885-1.379-2.037-2.448-3.534-3.122c-1.666-0.75-3.331-0.715-4.98,0.074
		c-0.102,0.049-0.203,0.098-0.323,0.113c0.127-0.078,0.253-0.16,0.383-0.233c1.347-0.757,2.771-1.262,4.335-1.256
		c2.108,0.008,3.822,0.847,5.127,2.505c0.602,0.765,1.047,1.626,1.495,2.486c0.47,0.903,0.947,1.803,1.454,2.687
		c0.186,0.324,0.447,0.61,0.704,0.887c0.354,0.382,0.812,0.589,1.327,0.649c0.125,0.014,0.282-0.021,0.385-0.091
		c0.705-0.474,1.035-1.184,1.19-1.987c0.227-1.176,0.059-2.333-0.188-3.486c-0.468-2.186-1.896-3.489-3.902-4.26
		c-1.04-0.4-2.124-0.601-3.234-0.67C46.245,20.802,46.246,20.783,46.248,20.765z"/>
	<path fill="#116B5A" d="M46.371,48.085c-0.435,0.466-0.891,0.962-1.355,1.451c-0.662,0.699-1.427,1.211-2.41,1.347
		c-0.841,0.117-1.445-0.197-1.662-1.013c-0.191-0.718-0.518-1.337-0.991-1.894c-0.145-0.171-0.061-0.343,0.072-0.44
		c0.232-0.168,0.482-0.34,0.751-0.423c1.066-0.328,2.114-0.241,3.129,0.223c0.252,0.115,0.496,0.247,0.753,0.348
		c0.284,0.111,0.574,0.216,0.87,0.284C45.817,48.036,46.116,48.052,46.371,48.085z M43.811,47.927
		c0.306,0.31,0.747,0.346,0.951,0.104c-0.021-0.018-0.04-0.041-0.065-0.054c-0.706-0.37-1.441-0.657-2.231-0.785
		c-0.62-0.1-1.233-0.097-1.806,0.214c-0.274,0.149-0.273,0.151-0.144,0.425c0.062,0.132,0.117,0.267,0.188,0.393
		c0.033,0.058,0.089,0.125,0.148,0.142c0.688,0.199,1.386,0.314,2.108,0.249C43.389,48.577,43.727,48.441,43.811,47.927z
		 M43.912,50.225c-0.002-0.02-0.004-0.039-0.006-0.059c-0.072,0.004-0.144,0.011-0.215,0.012c-0.574,0.01-1.147,0.026-1.721,0.024
		c-0.149-0.001-0.305-0.041-0.444-0.097c-0.181-0.073-0.298-0.225-0.282-0.425c0.015-0.196,0.201-0.207,0.345-0.242
		c0.094-0.023,0.194-0.021,0.291-0.03c-0.245-0.116-0.497-0.163-0.755-0.101c-0.184,0.044-0.238,0.18-0.154,0.353
		c0.057,0.118,0.127,0.229,0.187,0.345c0.177,0.34,0.456,0.541,0.831,0.606C42.682,50.73,43.3,50.492,43.912,50.225z"/>
	<path fill="#116B5A" d="M56.398,55.956c0.109-0.208,0.212-0.354,0.265-0.517c0.055-0.169,0.098-0.357,0.081-0.53
		c-0.043-0.419-0.27-0.525-0.637-0.329c-0.022,0.012-0.046,0.022-0.101,0.049c0.092-0.132,0.183-0.223,0.223-0.332
		c0.027-0.073-0.018-0.172-0.031-0.259c-0.071,0.031-0.157,0.045-0.21,0.095c-0.243,0.228-0.474,0.469-0.716,0.698
		c-0.059,0.056-0.142,0.087-0.243,0.092c0.052-0.055,0.104-0.11,0.155-0.166c0.551-0.603,1.031-1.255,1.193-2.074
		c0.062-0.314,0.038-0.649,0.02-0.973c-0.012-0.223-0.175-0.368-0.418-0.365c-0.265,0.004-0.532,0.053-0.794,0.101
		c-0.14,0.026-0.272,0.091-0.408,0.138c-0.015-0.016-0.03-0.032-0.045-0.049c0.046-0.027,0.096-0.049,0.138-0.082
		c1.107-0.85,2.619-0.8,3.532-0.127c0.163,0.12,0.344,0.222,0.53,0.301c0.285,0.12,0.459,0.019,0.537-0.28
		c0.017-0.063,0.029-0.128,0.047-0.191c0.129-0.47,0.415-0.621,0.874-0.462c0.262,0.091,0.492,0.284,0.649,0.56
		c-0.069-0.012-0.12-0.02-0.17-0.029c-0.257-0.047-0.513-0.115-0.772-0.135c-0.333-0.026-0.42,0.065-0.47,0.391
		c-0.023,0.151-0.046,0.303-0.091,0.448c-0.103,0.34-0.299,0.423-0.589,0.224c-0.233-0.159-0.438-0.359-0.652-0.545
		c-0.341-0.296-0.707-0.299-1.036,0.009c-0.056,0.053-0.103,0.145-0.106,0.221c-0.027,0.639-0.04,1.279-0.312,1.896
		c0.448,0.031,0.635,0.317,0.754,0.691c0.183,0.574,0.324,1.149,0.217,1.757c-0.05,0.284-0.192,0.39-0.461,0.275
		C57.022,56.319,56.715,56.126,56.398,55.956z"/>
	<path fill="#116B5A" d="M37.552,54.161c0.305,0.29,0.597,0.597,0.918,0.867c1.978,1.664,4.258,2.3,6.814,1.98
		c0.056-0.007,0.124-0.02,0.17,0.003c0.388,0.197,0.778,0.393,1.155,0.611c0.083,0.048,0.176,0.201,0.155,0.274
		c-0.023,0.08-0.168,0.164-0.268,0.176c-0.389,0.044-0.782,0.09-1.173,0.082c-1.21-0.025-2.415-0.108-3.581-0.471
		c-1.571-0.488-2.89-1.331-3.806-2.729c-0.16-0.245-0.285-0.513-0.426-0.77C37.524,54.175,37.538,54.168,37.552,54.161z"/>
	<path fill="#116B5A" d="M56.802,38.063c-0.251-2.63-1.425-4.655-3.541-6.134c0.022-0.01,0.035-0.022,0.044-0.02
		c1.2,0.421,2.315,0.989,3.217,1.908c0.624,0.636,1.012,1.384,0.975,2.302C57.468,36.813,57.213,37.431,56.802,38.063z"/>
	<path fill="#116B5A" d="M45.304,41.983c-0.175,0.249-0.349,0.497-0.505,0.72c-0.025-0.691,0.434-1.397,1.123-1.65
		c0.952-0.349,2.548-0.226,3.448,1.063c0.099,0.142,0.137,0.274,0.083,0.445c-0.071,0.225-0.119,0.457-0.205,0.695
		c0.189-0.653-0.356-0.855-0.69-1.193c0.205,0.866,0,1.579-0.771,2.049c-0.586,0.357-1.208,0.338-1.773-0.051
		c-0.729-0.502-0.896-1.213-0.643-2.047C45.348,42.003,45.326,41.993,45.304,41.983z M46.877,41.386
		c-0.761,0.005-1.298,0.538-1.291,1.283c0.007,0.753,0.62,1.356,1.371,1.346c0.745-0.009,1.352-0.611,1.333-1.356
		C48.269,41.882,47.825,41.385,46.877,41.386z"/>
	<path fill="#116B5A" d="M40.12,41.567c0.229,1.05,0.055,1.706-0.607,2.169c-0.574,0.402-1.329,0.409-1.908,0.016
		c-0.663-0.45-0.851-1.104-0.606-2.111c-0.017-0.012-0.035-0.024-0.052-0.036c-0.19,0.278-0.38,0.557-0.564,0.827
		c-0.1-0.316-0.177-0.635,0.091-0.979c0.627-0.806,1.434-1.079,2.414-0.902c0.875,0.158,1.453,0.661,1.712,1.519
		c0.008,0.027,0.013,0.056,0.017,0.084c0.001,0.005-0.006,0.011-0.008,0.014C40.447,41.968,40.284,41.767,40.12,41.567z
		 M38.522,41.022c-0.735-0.004-1.324,0.585-1.328,1.328c-0.004,0.742,0.596,1.351,1.337,1.359c0.754,0.008,1.358-0.592,1.373-1.345
		C39.916,41.698,39.359,40.978,38.522,41.022z"/>
	<path fill="#116B5A" d="M46.102,39.241c0.313,0.054,0.628,0.099,0.939,0.166c0.117,0.025,0.23,0.089,0.334,0.154
		c0.155,0.097,0.232,0.249,0.192,0.429c-0.041,0.188-0.207,0.241-0.37,0.244c-0.209,0.004-0.424,0.002-0.627-0.042
		c-0.358-0.078-0.686-0.014-1.021,0.112c-0.241,0.091-0.499,0.142-0.753,0.193c-0.18,0.036-0.299-0.058-0.372-0.228
		c-0.071-0.165-0.031-0.302,0.083-0.419c0.339-0.348,0.757-0.53,1.24-0.563c0.116-0.008,0.232-0.001,0.348-0.001
		C46.098,39.272,46.1,39.257,46.102,39.241z"/>
	<path fill="#116B5A" d="M39.09,39.185c0.46,0.023,0.893,0.073,1.29,0.278c0.208,0.107,0.369,0.258,0.379,0.518
		c0.007,0.174-0.068,0.298-0.244,0.289c-0.167-0.009-0.373-0.023-0.489-0.121c-0.318-0.267-0.663-0.261-1.03-0.196
		c-0.15,0.027-0.297,0.073-0.447,0.1c-0.313,0.054-0.493-0.167-0.378-0.463c0.1-0.259,0.327-0.336,0.57-0.378
		C38.862,39.189,38.987,39.192,39.09,39.185z"/>
	<path fill="#116B5A" d="M33.653,54.337c0.406-0.054,0.779,0.065,1.142,0.222c0.629,0.272,1.174,0.675,1.671,1.138
		c0.346,0.322,0.673,0.665,0.991,1.015c0.077,0.084,0.124,0.234,0.116,0.348c-0.02,0.272-0.082,0.54-0.181,0.823
		c-0.057-0.089-0.114-0.178-0.171-0.266c-0.36-0.556-0.685-1.138-1.091-1.658c-0.314-0.403-0.706-0.752-1.102-1.08
		C34.639,54.556,34.167,54.38,33.653,54.337z"/>
	<path fill="#116B5A" d="M41.933,46.331c-0.567-0.151-1.046-0.36-1.228-0.924c-0.066-0.205-0.069-0.446-0.041-0.662
		c0.035-0.272,0.167-0.466,0.501-0.498c0.675-0.064,1.026-0.518,1.213-1.132c0.022,0.007,0.044,0.013,0.066,0.02
		c-0.045,0.245-0.054,0.504-0.145,0.73c-0.076,0.189-0.059,0.307,0.078,0.435c0.047,0.044,0.08,0.103,0.134,0.173
		c-0.186,0-0.354-0.004-0.522,0.001c-0.248,0.007-0.472,0.083-0.651,0.263c-0.297,0.299-0.334,0.73-0.051,1.043
		C41.468,45.98,41.699,46.135,41.933,46.331z"/>
	<path fill="#116B5A" d="M37.831,45.996c-0.076,0.063-0.128,0.137-0.164,0.129c-0.052-0.011-0.092-0.079-0.138-0.123
		c0.041-0.04,0.08-0.108,0.125-0.112C37.699,45.886,37.75,45.944,37.831,45.996z"/>
	<path fill="#116B5A" d="M47.233,43.574c-0.67,0.239-1.346-0.272-1.251-0.93c0.314,0.074,0.484,0.026,0.588-0.166
		c0.103-0.192,0.052-0.354-0.177-0.565c0.266-0.273,0.784-0.251,1.121,0.046c0.396,0.349,0.433,0.926,0.087,1.351
		C47.276,43.213,47.218,43.252,47.233,43.574z"/>
	<path fill="#116B5A" d="M37.589,42.331c0.289,0.083,0.466,0.039,0.576-0.136c0.119-0.189,0.077-0.346-0.163-0.605
		c0.339-0.271,0.857-0.22,1.18,0.118c0.349,0.366,0.356,0.93,0.015,1.302c-0.289-0.12-0.356-0.073-0.364,0.257
		C38.186,43.515,37.513,43.015,37.589,42.331z"/>
</g>

		<circle fill="none" stroke="#30B4A6" stroke-miterlimit="10" stroke-dasharray="12.4758,12.4758" cx="50.004" cy="49.324" r="47.667">
		   <animateTransform  attributeName="transform"
	         attributeType="XML"
		     type="rotate"
		     from="0 50 50"
		     to="360 50 50"
			 dur="10s"
		     repeatCount="indefinite"   />
	
		</circle>

<path fill="#FFFFFF" d="M36.583,74.5c0,1.335-1.082,2.417-2.417,2.417l0,0c-1.335,0-2.417-1.082-2.417-2.417v-9.333
	c0-1.335,1.082-2.417,2.417-2.417l0,0c1.335,0,2.417,1.082,2.417,2.417V74.5z">
			<animateTransform id="square"
			  attributeName="transform"
	          attributeType="XML"
			  type="translate"
			  dur="1s"
			  values="0,3;0,-3;0,3"
			  repeatCount="indefinite"/>
			  
			  </path>
<path fill="#FFFFFF" d="M43.083,74.5c0,1.335-1.082,2.417-2.417,2.417l0,0c-1.335,0-2.417-1.082-2.417-2.417v-9.333
	c0-1.335,1.082-2.417,2.417-2.417l0,0c1.335,0,2.417,1.082,2.417,2.417V74.5z">
			<animateTransform id="square"
			  attributeName="transform"
	          attributeType="XML"
			  type="translate"
			  begin="0.1"
			  dur="1s"
			  values="0,3;0,-3;0,3"
			  repeatCount="indefinite"/>
			  
			  </path>
<path fill="#FFFFFF" d="M49.5,74.5c0,1.335-1.082,2.417-2.417,2.417l0,0c-1.335,0-2.417-1.082-2.417-2.417v-9.333
	c0-1.335,1.082-2.417,2.417-2.417l0,0c1.335,0,2.417,1.082,2.417,2.417V74.5z">
			<animateTransform id="square"
			  attributeName="transform"
	          attributeType="XML"
			  type="translate"
			  begin="0.2"
			  dur="1s"
			  values="0,3;0,-3;0,3"
			  repeatCount="indefinite"/>
			  
			  </path>
<path fill="#FFFFFF" d="M56.167,74.5c0,1.335-1.082,2.417-2.417,2.417l0,0c-1.335,0-2.417-1.082-2.417-2.417v-9.333
	c0-1.335,1.082-2.417,2.417-2.417l0,0c1.335,0,2.417,1.082,2.417,2.417V74.5z">
			<animateTransform id="square"
			  attributeName="transform"
	          attributeType="XML"
			  type="translate"
			  begin="0.3"
			  dur="1s"
			  values="0,3;0,-3;0,3"
			  repeatCount="indefinite"/>
			  
			  </path>
<path fill="#FFFFFF" d="M62.583,74.5c0,1.335-1.082,2.417-2.417,2.417l0,0c-1.335,0-2.417-1.082-2.417-2.417v-9.333
	c0-1.335,1.082-2.417,2.417-2.417l0,0c1.335,0,2.417,1.082,2.417,2.417V74.5z">
			<animateTransform id="square"
			  attributeName="transform"
	          attributeType="XML"
			  type="translate"
			  begin="0.4"
			  dur="1s"
			  values="0,3;0,-3;0,3"
			  repeatCount="indefinite"/>
			  
			  </path>
<path fill="#FFFFFF" d="M69.25,74.5c0,1.335-1.082,2.417-2.417,2.417l0,0c-1.335,0-2.417-1.082-2.417-2.417v-9.333
	c0-1.335,1.082-2.417,2.417-2.417l0,0c1.335,0,2.417,1.082,2.417,2.417V74.5z">
			<animateTransform id="square"
			  attributeName="transform"
	          attributeType="XML"
			  type="translate"
			  begin="0.5"
			  dur="1s"
			  values="0,3;0,-3;0,3"
			  repeatCount="indefinite"/>
			  
			  </path>
</svg>