<?xml version="1.0" encoding="utf-8"?>
<!-- Generator: Adobe Illustrator 17.0.1, SVG Export Plug-In . SVG Version: 6.00 Build 0)  -->
<!DOCTYPE svg PUBLIC "-//W3C//DTD SVG 1.1//EN" "http://www.w3.org/Graphics/SVG/1.1/DTD/svg11.dtd">
<svg version="1.1" id="Layer_1" xmlns="http://www.w3.org/2000/svg" xmlns:xlink="http://www.w3.org/1999/xlink" x="0px" y="0px"
	 width="640px" height="200px" viewBox="0 0 640 200" enable-background="new 0 0 640 200" xml:space="preserve">
<g>
	<path fill="#9F3322" d="M552.437,43.293c0.694-0.529,1.487-0.801,2.344-0.91c0.489-0.062,0.907-0.247,1.318-0.539
		c0.802-0.569,1.9-0.47,2.637,0.157c0.714,0.607,0.998,1.636,0.599,2.513c-0.299,0.657-0.227,1.218,0.043,1.867
		c0.806,1.937,1.033,3.999,0.905,6.062c-0.07,1.121-0.706,2.059-1.927,2.395c-0.135,0.037-0.313,0.092-0.374,0.196
		c-0.391,0.671-1.098,0.938-1.683,1.358c-0.217,0.156-0.463,0.243-0.317,0.614c0.129,0.328,0.307,0.418,0.649,0.418
		c2.351,0.001,4.684-0.025,7.017-0.508c2.748-0.57,5.55-0.857,8.368-0.764c1.584,0.053,3.107,0.503,4.635,0.878
		c1.175,0.289,2.33,0.658,3.493,0.995c0.686,0.199,1.257,0.593,1.537,1.243c0.203,0.471,0.55,0.603,0.961,0.77
		c2.165,0.88,4.118,2.084,5.477,4.032c0.492,0.705,0.786,1.556,1.119,2.362c0.325,0.788,0.689,1.55,1.13,2.278
		c0.381,0.628,0.227,2.007-0.282,2.524c-0.317,0.322-0.659,0.285-1.053,0.063c-1.055-0.592-1.605-1.575-2.088-2.61
		c-0.39-0.835-0.756-1.682-1.102-2.536c-0.245-0.607-0.626-1.073-1.158-1.455c-1.004-0.721-1.96-1.514-3.161-1.907
		c-0.208-0.068-0.438-0.209-0.63-0.091c-1.309,0.804-2.535,0.164-3.777-0.191c-0.208-0.059-0.41-0.205-0.611-0.022
		c-0.542,0.492-1.227,0.566-1.9,0.635c-1.572,0.161-3.075,0.663-4.641,0.872c-2.01,0.268-4.021,0.093-6.03,0.156
		c-0.241,0.008-0.482,0.001-0.723,0.001c-0.101,0.324,0.134,0.499,0.28,0.646c1.095,1.108,1.464,2.53,1.796,3.977
		c0.109,0.476,0.357,0.896,0.625,1.305c4.579,6.974,1.722,16.025-6.027,19.079c-0.417,0.164-0.787,0.387-1.118,0.665
		c-1.405,1.176-3.112,1.403-4.834,1.507c-2.125,0.128-4.022,0.766-5.676,2.134c-0.756,0.626-1.239,1.426-1.621,2.29
		c-0.372,0.841-0.664,1.718-1.227,2.461c-0.135,0.178-0.122,0.292,0.057,0.412c0.714,0.478,1.264,1.129,2.031,1.588
		c2.82,1.688,3.613,4.159,1.774,7.289c-1.474,2.51-3.948,3.209-6.426,3.954c-1.55,0.466-3.142,0.791-4.882,1.221
		c0.754,0.258,1.301,0.556,1.922,0.728c1.033,0.286,1.903,0.952,2.775,1.542c0.545,0.369,0.512,1.17,0.646,1.801
		c0.047,0.224-0.251,0.369-0.391,0.173c-0.382-0.537-1.211-0.398-1.505-1.076c-0.109-0.25-0.383-0.192-0.595,0.039
		c-0.394,0.429-0.905,0.565-1.463,0.41c-0.462-0.129-0.626,0.099-0.681,0.489c-0.04,0.287-0.048,0.578-0.083,0.865
		c-0.1,0.798-0.524,1.343-1.29,1.602c-0.701,0.237-1.527,0.031-1.972-0.568c-0.82-1.104-2.042-1.409-3.267-1.654
		c-0.924-0.185-1.877-0.22-2.818-0.317c-0.611-0.063-1.114-0.642-1.805-0.352c-0.287,0.12-0.606,0.164-0.91,0.242
		c-0.167,0.197-0.402,0.253-0.637,0.307c-1.292,0.298-2.384,0.996-3.454,1.734c-0.28,0.193-0.541,0.403-0.904,0.398
		c-0.802-0.324-1.039-0.815-0.642-1.513c0.281-0.494,0.412-1.019,0.586-1.546c0.423-1.282,1.411-2.057,2.604-2.589
		c0.423-0.189,0.822-0.403,1.201-0.674c0.568-0.407,1.215-0.589,1.919-0.57c2.059,0.056,4.072-0.402,6.023-0.897
		c1.467-0.372,2.792-1.337,3.267-3.013c0.205-0.725,0.392-1.452,0.534-2.192c0.046-0.241,0.056-0.478,0.013-0.722
		c-0.237-1.356-0.457-2.714-0.534-4.092c-0.048-0.865-1.157-2.01-2.006-2.11c-0.388-0.045-0.772-0.118-1.129-0.27
		c-0.603-0.256-0.997-0.056-1.352,0.464c-0.756,1.106-1.393,2.27-1.959,3.484c-0.804,1.726-1.878,3.229-3.686,4.056
		c-0.435,0.199-0.728,0.565-0.984,0.95c-0.849,1.273-1.996,2.017-3.554,2.076c-0.322,0.012-0.584,0.23-0.881,0.331
		c-0.489,0.165-0.983,0.222-1.307-0.274c-0.332-0.508-0.076-0.944,0.317-1.279c0.642-0.547,1.404-0.957,1.877-1.691
		c0.101-0.091,0.182-0.203,0.361-0.327c-0.2,0.117-0.28,0.249-0.394,0.346c-0.389,0.383-0.818,0.687-1.385,0.731
		c-0.727,0.056-1.328-0.255-1.64-0.852c-0.312-0.598-0.253-1.421,0.238-1.901c1.338-1.312,1.915-3.071,2.739-4.673
		c0.494-0.96,0.776-2.04,1.276-3.011c0.864-1.679,0.712-3.434,0.453-5.199c-0.183-1.247-0.365-2.495-0.592-3.736
		c-0.044-0.24-0.109-0.488-0.049-0.722c0.247-0.968-0.274-1.799-0.452-2.691c-0.049-0.244-0.237-0.328-0.47-0.387
		c-1.645-0.42-1.931-0.772-2.024-2.426c-0.009-0.163,0.029-0.344-0.135-0.478c-0.25,0.079-0.228,0.339-0.33,0.512
		c-0.227,0.388-0.53,0.648-1.001,0.568c-0.467-0.079-0.682-0.424-0.782-0.857c-0.08-0.348,0.026-0.672,0.131-0.997
		c0.24-0.738,0.515-1.466,0.653-2.234c0.06-0.331-0.032-0.476-0.382-0.335c-0.135,0.054-0.27,0.109-0.408,0.155
		c-1.384,0.457-2.679-0.34-2.781-1.787c-0.039-0.551-0.263-0.622-0.727-0.739c-1.096-0.275-2.186-0.376-3.304-0.248
		c-0.191,0.022-0.391,0.009-0.58-0.033c-1.395-0.307-2.838-0.561-4.129-1.112c-1.721-0.735-3.612-1.182-5.062-2.491
		c-0.196-0.177-0.462-0.265-0.7-0.386c-0.927-0.471-1.717-1.098-2.251-2.005c-0.282-0.479-0.663-0.813-1.179-1.031
		c-1.028-0.433-1.887-1.089-2.507-2.033c-0.327-0.498-0.83-0.811-1.257-1.205c-0.271-0.25-0.567-0.199-0.884-0.09
		c-1.094,0.377-2.243,0.557-3.324,1.008c-1.081,0.452-2.259,0.086-3.391,0.192c-1.037,0.097-2.078,0.125-3.088,0.426
		c-0.816,0.243-1.674,0.279-2.507,0.394c-1.763,0.243-3.466,0.712-5.178,1.148c-1.666,0.424-3.327,0.872-4.932,1.511
		c-0.834,0.332-1.657,0.697-2.463,1.075c-1.882,0.881-3.869,1.394-5.863,1.906c-0.668,0.171-1.352,0.149-2.026,0.061
		c-1.019-0.133-1.786,0.298-2.428,1.021c-0.224,0.253-0.372,0.592-0.651,0.778c-0.743,0.496-0.873,1.238-0.883,2.033
		c-0.014,1.115-0.118,2.228-0.069,3.344c0.058,1.313-0.247,2.616-0.174,3.919c0.123,2.204-0.306,4.401-0.011,6.604
		c0.129,0.963-0.312,1.811-1.026,2.108c-0.705,0.341-1.366,0.281-1.959-0.242c-0.21-0.186-0.403-0.184-0.664-0.111
		c-1.111,0.311-2.168,0.149-3.133-0.484c-0.292-0.192-0.564-0.226-0.89-0.147c-0.866,0.211-1.655-0.036-2.476-0.326
		c-2.356-0.832-4.362-2.284-6.478-3.542c-0.932-0.554-1.552-1.459-2.258-2.246c-0.937-1.044-1.655-2.255-2.236-3.541
		c-0.513-1.136-0.568-2.365-0.599-3.559c-0.054-2.077,0.069-4.159,0.123-6.239c0.008-0.293-0.017-0.575-0.068-0.865
		c-0.274-1.533,0.143-2.836,1.177-4.027c1.611-1.857,3.17-3.762,3.811-6.23c0.206-0.792,0.7-1.444,1.351-1.942
		c0.316-0.242,0.424-0.406,0.208-0.816c-0.627-1.191-0.585-1.181-1.794-0.497c-1.016,0.575-2.148,0.876-3.244,1.263
		c-1.513,0.534-2.946,1.243-4.293,2.112c-0.408,0.263-0.773,0.585-1.257,0.71c-0.307,0.079-0.489,0.313-0.633,0.568
		c-0.442,0.78-0.89,1.557-1.301,2.354c-0.314,0.608-0.73,1.105-1.375,1.336c-0.426,0.153-0.54,0.43-0.546,0.827
		c-0.02,1.286-0.042,2.572-0.071,3.857c-0.016,0.726-0.332,1.28-1.044,1.501c-0.639,0.199-1.201,0.013-1.619-0.528
		c-0.232-0.3-0.309-0.657-0.302-1.029c0.031-1.768-0.108-3.544,0.241-5.299c0.028-0.14,0.066-0.314,0.011-0.43
		c-0.678-1.43,0.041-2.587,0.729-3.74c1.068-1.788,2.12-3.588,3.252-5.334c0.819-1.264,2.115-1.942,3.474-2.515
		c1.81-0.763,3.673-1.366,5.528-2.002c1.55-0.532,2.996-1.363,4.507-2.018c1.395-0.604,2.76-1.315,4.155-1.86
		c1.728-0.675,3.45-1.268,5.044-2.262c0.626-0.391,1.147-0.651,1.302-1.427c0.104-0.518,0.371-1.013,0.711-1.424
		c0.643-0.775,0.813-1.75,1.193-2.635c0.253-0.591-0.125-1.127-0.185-1.689c-0.087-0.808-0.863-0.669-1.295-1.203
		c-0.1,0.669-0.179,1.206-0.261,1.742c-0.144,0.932-0.668,1.557-1.57,1.809c-0.373,0.104-0.5,0.231-0.453,0.632
		c0.041,0.355-0.155,0.666-0.528,0.783c-0.355,0.112-0.534-0.148-0.699-0.392c-0.618-0.914-1.018-1.942-1.308-2.982
		c-0.415-1.489-0.757-3.009-0.648-4.587c0.089-1.281,0.151-2.564,0.193-3.847c0.033-0.994,0.709-1.742,0.957-2.65
		c0.697-2.552,2.514-4.367,4.134-6.313c0.503-0.604,1.25-0.831,1.908-1.174c0.959-0.5,1.85-1.166,2.95-1.368
		c0.339-0.062,0.54-0.286,0.71-0.571c1.375-2.294,3.394-3.542,6.071-3.693c0.625-0.035,1.149-0.389,1.74-0.501
		c1.355-0.256,2.673-0.674,4.012-0.965c1.525-0.331,3.11-0.484,4.666-0.596c1.506-0.108,3.04,0.051,4.562-0.044
		c0.167-0.01,0.353-0.01,0.505,0.051c1.473,0.586,2.942,0.053,4.41,0.06c2.522,0.012,4.839-0.936,7.28-1.165
		c1.513-0.142,2.95-0.419,4.361-0.966c0.952-0.369,1.977-0.534,2.995-0.562c0.811-0.022,1.481-0.308,2.185-0.663
		c4.912-2.476,9.764-2.319,14.523,0.44c0.467,0.271,0.943,0.478,1.467,0.613c3.133,0.806,5.729,2.463,7.77,4.976
		c0.689,0.849,1.595,1.388,2.552,1.864c1.696,0.843,3.253,1.909,4.663,3.159c0.894,0.793,1.298,1.911,1.504,3.089
		c0.271,1.546,0.676,3.062,1.095,4.572c0.164,0.589,0.319,1.178,0.28,1.788c-0.057,0.872,0.432,1.641,0.431,2.498
		c0,0.215,0.144,0.22,0.299,0.145c0.33-0.16,0.621-0.346,0.81-0.694c0.673-1.241,1.719-2.04,2.973-2.678
		c1.046-0.533,1.97-1.303,2.969-1.935c1.831-1.16,3.612-2.426,5.802-2.866c0.282-0.057,0.55-0.183,0.828-0.26
		c2.16-0.602,4.307-1.287,6.603-1.027c0.26,0.029,0.532,0,0.794-0.039c1.32-0.195,5.473,0.574,6.638,1.236
		c0.597,0.339,1.211,0.717,1.55,1.298c0.755,1.295,2.095,1.827,3.21,2.654c1.401,1.039,2.786,2.093,3.823,3.529
		c0.155,0.215,0.351,0.401,0.527,0.601c1.161,1.319,1.119,3.247-0.097,4.492c-1.203,1.232-3.267,1.431-4.467,0.21
		c-0.754-0.767-1.449-0.625-2.264-0.462c-1.258,0.251-2.516,0.485-3.806,0.233c-0.377-0.074-0.719,0.081-1.055,0.214
		c-0.967,0.383-1.936,0.764-2.893,1.173c-1.349,0.578-2.341,1.53-2.922,2.89c-0.342,0.801-0.684,1.603-1.026,2.405
		C552.232,43.489,552.333,43.343,552.437,43.293z"/>
	<path fill="#F8DCC9" d="M454.273,92.828c0.733-0.71,0.943-1.504,0.781-2.559c-0.17-1.107-0.021-2.264,0.01-3.399
		c0.076-2.757,0.163-5.513,0.247-8.269c0.03-0.967,0.065-1.933,0.094-2.9c0.005-0.153,0.037-0.291,0.171-0.38
		c0.644-0.425,1.001-1.119,1.533-1.633c0.631-0.61,1.385-1.113,2.397-0.856c0.588,0.149,1.22,0.154,1.806-0.014
		c0.769-0.22,1.588-0.302,2.316-0.582c1.148-0.442,2.334-0.764,3.47-1.269c2.111-0.938,4.224-1.893,6.522-2.379
		c1.533-0.324,3.028-0.843,4.571-1.146c1.112-0.219,2.234-0.394,3.357-0.554c0.91-0.13,1.79-0.399,2.716-0.473
		c1.012-0.081,2.018-0.189,3.034-0.123c0.461,0.03,0.945,0.091,1.369-0.098c1.197-0.533,2.507-0.69,3.719-1.157
		c0.363-0.14,0.598-0.121,0.897,0.16c0.601,0.563,1.206,1.108,1.702,1.779c0.451,0.61,1.056,1.114,1.769,1.361
		c0.79,0.274,1.313,0.764,1.695,1.467c0.08,0.147,0.189,0.291,0.317,0.396c1.631,1.335,3.339,2.548,5.347,3.26
		c0.344,0.122,0.673,0.256,0.999,0.421c1.768,0.894,3.696,1.405,5.623,1.537c1.341,0.092,2.671,0.212,4.002,0.386
		c0.33,0.043,0.364,0.136,0.333,0.453c-0.15,1.592,1.168,2.555,2.654,1.962c0.334-0.133,0.663-0.28,1.056-0.447
		c-0.113,1.134-0.45,2.136-0.794,3.137c-0.111,0.321-0.232,0.638-0.153,0.991c0.089,0.399,0.308,0.677,0.727,0.693
		c0.416,0.016,0.661-0.236,0.785-0.628c0.09-0.286-0.052-0.82,0.43-0.749c0.506,0.074,0.279,0.598,0.282,0.923
		c0.014,1.494,0.57,2.117,2.084,2.179c0.371,0.015,0.339,0.23,0.427,0.447c0.597,1.462,0.429,3.039,0.694,4.551
		c0.226,1.286,0.38,2.585,0.535,3.882c0.166,1.389,0.079,2.729-0.532,4.045c-0.947,2.04-1.695,4.172-2.83,6.127
		c-0.326,0.562-0.571,1.155-1.135,1.57c-0.626,0.461-0.715,1.342-0.302,1.963c0.432,0.649,1.287,0.855,1.997,0.459
		c0.294-0.164,0.561-0.377,0.84-0.567c0.152-0.022,0.222,0.036,0.188,0.194c-0.419,0.873-1.308,1.24-1.98,1.841
		c-0.331,0.296-0.565,0.645-0.268,1.078c0.297,0.432,0.695,0.311,1.106,0.143c0.477-0.195,0.932-0.376,1.493-0.416
		c0.746-0.052,1.548-0.346,2.048-0.988c0.837-1.074,1.761-2.004,2.971-2.68c1.264-0.706,1.894-1.995,2.471-3.242
		c0.605-1.306,1.343-2.52,2.111-3.728c0.343-0.539,0.746-0.616,1.289-0.383c0.425,0.182,0.866,0.336,1.334,0.32
		c0.511-0.017,0.803,0.236,1.146,0.605c0.663,0.711,0.885,1.463,0.991,2.437c0.118,1.086,0.1,2.224,0.492,3.283
		c0.056,0.151,0.068,0.339,0.038,0.498c-0.188,1.001-0.358,2.012-0.74,2.958c-0.278,0.687-0.808,1.169-1.364,1.697
		c-1.483,1.41-3.367,1.176-5.084,1.623c-0.949,0.247-1.913,0.26-2.884,0.266c-0.746,0.004-1.439,0.22-2,0.737
		c-0.427,0.393-1.012,0.447-1.487,0.743c-1.139,0.71-2.145,1.474-2.172,3.006c-0.005,0.285-0.362,0.552-0.512,0.85
		c-0.317,0.63-0.142,0.992,0.572,1.254c0.195,0.386-0.046,0.598-0.329,0.766c-1.252,0.741-2.456,1.554-3.652,2.38
		c-0.225,0.145-0.398,0.375-0.68,0.429c-0.396-0.034-0.661,0.235-0.965,0.417c-0.074,0.003-0.143-0.012-0.21-0.043
		c-0.995-0.875-1.986-0.851-3.127-0.188c-1.488,0.865-2.83,2.003-4.435,2.631c-1.527,0.597-2.882,1.463-4.291,2.261
		c-1.177,0.667-2.478,0.965-3.852,0.737c-0.072-0.012-0.148-0.027-0.217-0.012c-2.275,0.503-4.667-0.051-6.907,0.769
		c-0.299,0.109-0.621,0.09-0.937,0.098c-1.186,0.032-2.372-0.042-3.561,0.081c-0.755,0.078-1.479-0.245-2.199-0.446
		c-4.646-1.294-9.27-2.672-13.913-3.973c-1.658-0.464-2.748-1.574-3.978-2.566c-2.355-1.899-4.186-4.304-6.184-6.543
		c-1.548-1.735-2.924-3.609-3.988-5.695c-0.35-0.686-0.926-1.105-1.698-1.232c-0.358-0.031-0.743,0.072-1.048-0.216
		c0.036-0.032,0.067-0.082,0.108-0.092c1.003-0.236,0.939-0.311,0.869-1.362c-0.097-1.46-0.897-2.686-1.149-4.081
		c-0.287-1.588-0.593-3.169-0.28-4.795c0.155-0.805-0.157-1.572-0.275-2.354C454.55,94.857,454.415,93.842,454.273,92.828z"/>
	<path fill="#F47536" d="M515.865,122.836c0.044,0.015,0.088,0.028,0.132,0.04c0.446,0.1,0.535-0.441,0.894-0.497
		c0.195-0.141,0.389-0.283,0.584-0.424c1.872-0.751,3.645-1.678,5.096-3.107c0.582-0.573,1.207-1.029,1.981-1.291
		c0.434-0.147,0.849-0.344,1.25-0.574c0.261-0.15,0.548-0.341,0.877-0.132c1.902,0.463,3.006,2.674,2.375,4.783
		c-0.284,0.95-0.555,1.909-0.917,2.83c-0.201,0.511-0.085,0.774,0.317,1.094c1.339,1.064,2.385,3.902,2.043,5.427
		c-0.589,2.627-3.623,3.795-5.777,2.187c-0.417-0.311-0.713-0.316-1.167-0.151c-1.546,0.564-2.919,0.227-4.047-0.967
		c-0.3-0.317-0.484-0.411-0.883-0.129c-0.736,0.518-1.594,0.759-2.488,0.563c-0.97-0.213-1.861-0.028-2.748,0.329
		c-0.965,0.389-1.956,0.453-2.896-0.006c-0.5-0.244-0.91-0.191-1.372,0.004c-1.66,0.701-3.402,1.113-5.173,1.404
		c-0.691,0.113-1.395,0.089-2.096,0.048c-0.448-0.026-0.671,0.085-0.676,0.638c-0.016,1.905-1.466,3.261-3.369,3.247
		c-1.6-0.012-3.206,0.07-4.8-0.036c-1.345-0.09-2.681-0.358-4.009-0.615c-0.6-0.116-1.214,0.009-1.801-0.197
		c-0.315-0.111-0.287,0.148-0.283,0.34c0.049,2.15-1.041,3.46-2.907,4.444c-1.68,0.887-3.216,2.059-4.687,3.285
		c-0.122,0.102-0.2,0.272-0.266,0.425c-0.589,1.358-1.659,2.243-2.899,2.96c-0.219,0.127-0.534,0.153-0.482,0.531
		c0.176,1.278-0.576,2.244-1.21,3.19c-0.491,0.732-0.866,1.499-1.261,2.275c-0.868,1.706-1.678,3.43-2.147,5.296
		c-0.143,0.568-0.107,1.165-0.215,1.722c-0.208,1.067-0.321,2.054-0.025,3.164c0.276,1.033-0.576,1.794-1.871,2.05
		c-0.614,0.136-1.12-0.152-1.484-0.555c-0.503-0.556-1.063-1.062-1.516-1.663c-0.624-0.911-1.276-1.797-2.167-2.474
		c-0.359-0.318-0.627-0.707-0.875-1.112c-0.18-0.333-0.454-0.601-0.643-0.928c-0.319-0.916-0.824-1.753-1.115-2.681
		c-0.143-0.456-0.439-0.793-0.851-1.047c-0.845-0.52-1.332-1.285-1.605-2.243c-0.811-2.844-1.908-5.58-3.184-8.247
		c-0.293-0.611-0.428-1.288-0.755-1.887c-0.067-0.169-0.12-0.343-0.17-0.518c-0.09-0.379-0.102-0.772-0.053-1.148
		c0.104-0.803-0.299-1.438-0.61-2.11c-0.137-0.295-0.316-0.209-0.526-0.097c-0.465,0.247-0.903,0.558-1.447,0.626
		c-0.077,0.004-0.152-0.002-0.227-0.015c-1.183-0.446-2.402-0.574-3.654-0.423c-0.079-0.021-0.147-0.062-0.203-0.121
		c-1.693-1.142-2.85-2.614-2.931-4.751c-0.011-0.28-0.193-0.493-0.32-0.724c-1.195-2.182-0.825-4.597,0.947-6.325
		c0.811-0.791,1.387-1.781,2.246-2.555c0.428-0.385,0.552-1.172,0.61-1.823c0.136-1.536,0.78-2.784,2.004-3.72
		c0.272-0.208,0.488-0.451,0.416-0.787c-0.336-1.572,0.304-3.066,0.341-4.606c0.024-0.978,0.216-1.922,0.588-2.828
		c0.073-0.179,0.091-0.422,0.221-0.53c1.2-0.992,1.942-2.488,3.45-3.139c0.389,0.014,0.777,0.028,1.166,0.042
		c0.197,0.167,0.26,0.398,0.318,0.637c0.849,3.478,2.672,6.314,5.586,8.42c0.676,0.488,1.228,1.073,1.723,1.749
		c1.798,2.451,4.128,4.217,7.014,5.206c0.726,0.249,1.364,0.602,1.958,1.079c3.32,2.671,7.105,3.653,11.306,3.043
		c0.534-0.077,0.973,0.005,1.456,0.245c4.28,2.123,8.607,2.264,12.964,0.226c0.509-0.238,1.019-0.433,1.596-0.446
		c2.725-0.06,5.172-0.976,7.416-2.474c0.432-0.289,0.872-0.502,1.383-0.606c2.148-0.434,4.105-1.302,5.855-2.63
		C515.368,122.894,515.553,122.632,515.865,122.836z"/>
	<path fill="#7CBDE7" d="M466.059,164.699c0.481,0.538,1.062,0.973,1.488,1.574c0.316,0.445,0.887,0.558,1.396,0.712
		c0.908,1.029,1.266,2.184,0.686,3.487c-0.586,1.316-1.947,1.937-3.397,1.524c-0.794-0.226-1.473-0.302-2.158,0.298
		c-0.381,0.334-0.932,0.362-1.456,0.357c-1.286-0.013-2.572,0.011-3.858-0.006c-0.468-0.006-0.812,0.124-1.142,0.485
		c-0.66,0.722-1.418,1.329-2.439,1.477c-0.096,0.014-0.208,0.082-0.282,0.051c-1.479-0.616-2.663,0.457-3.986,0.711
		c-1.279,0.245-2.404-0.177-3.519-0.623c-2.253-0.9-4.414-2.004-6.379-3.432c-1.858-1.35-3.794-2.65-5.216-4.483
		c-1.597-2.058-2.778-4.347-2.624-7.058c0.12-2.115,0.643-4.149,1.613-6.053c1.319-2.59,3.303-4.619,5.385-6.595
		c1.118-1.061,1.927-2.451,3.12-3.437c1.452-1.2,2.602-2.836,4.564-3.346c0.065,0.007,0.13,0.014,0.195,0.021
		c1.215,0.302,2.434,0.577,3.701,0.411c0.066,0.006,0.132,0.013,0.198,0.019c1.297,0.391,2.059,1.344,2.622,2.504
		c0.061,0.126,0.038,0.292,0.177,0.382c0.031,0.12,0.062,0.241,0.093,0.361c0.367,0.899,0.424,1.882,0.75,2.793
		c0.536,1.5,1.171,2.956,1.858,4.393c0.583,1.22,0.952,2.525,1.47,3.772c0.224,0.539,0.488,1.027,0.81,1.514
		c0.839,1.268,1.609,2.582,2.56,3.774c0.232,0.305,0.5,0.579,0.758,0.862c0.256,0.337,0.512,0.674,0.767,1.011
		C464.616,162.96,465.245,163.911,466.059,164.699z"/>
	<path fill="#F47534" d="M526.68,116.851c-1.258,0.616-2.705,0.864-3.741,1.909c-1.38,1.392-3.024,2.367-4.826,3.102
		c-0.212,0.086-0.42,0.093-0.637,0.093c1.172-0.87,2.377-1.688,3.657-2.39c0.283-0.155,0.442-0.354,0.467-0.668
		c0.733-0.272,1.282-0.841,1.962-1.208c0.943-0.509,1.889-0.963,2.967-1.083C526.579,116.687,526.63,116.769,526.68,116.851z"/>
	<path fill="#D19691" d="M552.437,43.293c-0.127,0.165-0.291,0.27-0.498,0.33c-0.028-0.171,0.039-0.27,0.183-0.322
		C552.227,43.299,552.332,43.296,552.437,43.293z"/>
	<path fill="#E7B7A6" d="M522.03,106.994c-0.063-0.065-0.125-0.13-0.188-0.194c0.211-0.174,0.231-0.558,0.602-0.551
		c0.034,0.001,0.099,0.061,0.096,0.088C522.503,106.656,522.254,106.817,522.03,106.994z"/>
	<path fill="#F47533" d="M515.865,122.836c-0.736,0.361-1.334,0.929-2.046,1.337c-1.464,0.839-3.005,1.433-4.663,1.718
		c-0.804,0.139-1.337,0.749-2.007,1.119c-2.063,1.14-4.224,1.903-6.601,1.932c-0.477,0.006-0.914,0.111-1.324,0.326
		c-2.148,1.12-4.449,1.605-6.85,1.563c-2.301-0.04-4.515-0.568-6.517-1.712c-0.629-0.359-1.157-0.21-1.722-0.135
		c-2.55,0.341-4.997-0.015-7.384-0.947c-1.506-0.588-2.846-1.442-4.055-2.491c-0.769-0.668-1.75-0.806-2.627-1.187
		c-2.468-1.074-4.437-2.732-6.019-4.865c-0.454-0.612-0.927-1.17-1.548-1.604c-2.784-1.946-4.591-4.589-5.572-7.817
		c-0.146-0.482-0.225-0.984-0.335-1.477c0.87,0.125,1.428,0.651,1.814,1.402c1.159,2.254,2.685,4.246,4.373,6.123
		c1.23,1.368,2.468,2.73,3.684,4.112c1.225,1.392,2.746,2.449,4.127,3.664c0.655,0.577,1.565,0.627,2.371,0.866
		c4.242,1.256,8.52,2.398,12.748,3.692c2.321,0.71,4.671,0.726,6.875,0.35c2.257-0.385,4.534-0.225,6.765-0.692
		c0.942-0.197,1.954,0.185,2.937-0.155c0.453-0.156,0.939-0.231,1.364-0.472c1.464-0.833,2.866-1.75,4.46-2.38
		c1.683-0.665,3.118-1.845,4.679-2.77C513.955,121.646,515.134,121.812,515.865,122.836z"/>
	<path fill="#5FAB80" d="M501.47,88.521c-0.018,2.835-2.313,5.064-5.193,5.041c-2.83-0.022-5.053-2.327-5.025-5.21
		c0.028-2.794,2.32-5.019,5.157-5.006C499.25,83.359,501.489,85.648,501.47,88.521z"/>
	<path fill="#5FAB80" d="M468.393,92.568c-2.899,0-5.118-2.215-5.108-5.098c0.009-2.83,2.241-5.023,5.111-5.022
		c2.901,0.001,5.116,2.212,5.107,5.097C473.493,90.377,471.264,92.568,468.393,92.568z"/>
	<path fill="#FFFFFF" d="M480.732,103.331c2.247-0.176,4.196,0.626,6.077,1.678c0.635,0.356,1.298,0.644,1.994,0.866
		c1.103,0.352,1.561,0.996,1.437,1.954c-0.112,0.867-0.851,1.401-1.966,1.457c-1.239,0.062-2.455-0.124-3.676-0.289
		c-2.195-0.297-4.403-0.09-6.605-0.141c-0.463-0.011-0.911-0.062-1.362-0.159c-0.642-0.138-1.081-0.5-1.36-1.088
		c-0.238-0.5-0.599-0.964-0.729-1.488c-0.241-0.965,0.72-2.166,1.909-2.341C477.878,103.57,479.293,103.189,480.732,103.331z"/>
	<path fill="#FFFFFF" d="M480.761,115.398c-1.511,0.259-2.738-0.496-3.457-1.866c-0.388-0.74-0.893-1.524-0.898-2.438
		c-0.007-1.264,1.157-2.045,2.302-1.516c0.456,0.21,0.901,0.3,1.395,0.298c1.28-0.005,1.75,0.394,1.982,1.682
		c0.075,0.413,0.293,0.331,0.578,0.287c1.086-0.17,1.852-0.894,2.675-1.515c1.154-0.87,2.378-0.472,2.756,0.91
		c0.18,0.657-0.071,1.214-0.537,1.619C485.657,114.513,483.493,115.521,480.761,115.398z"/>
	<path fill="#F15F22" d="M502.24,100.41c0.243,0.055,0.368,0.227,0.384,0.46c0.017,0.261-0.133,0.422-0.396,0.395
		c-0.263-0.027-0.348-0.237-0.345-0.475C501.886,100.567,502.005,100.433,502.24,100.41z"/>
	<path fill="#F26322" d="M470.351,100.462c-0.006,0.238-0.102,0.411-0.317,0.444c-0.25,0.039-0.424-0.111-0.452-0.355
		c-0.028-0.253,0.127-0.414,0.38-0.423C470.186,100.121,470.298,100.28,470.351,100.462z"/>
	<path fill="#FFEFE6" d="M516.892,122.379c-0.153,0.209-0.309,0.415-0.457,0.628c-0.285,0.412-0.337,0.064-0.437-0.131
		C516.1,122.359,516.439,122.266,516.892,122.379z"/>
	<path fill="#F37124" d="M499.148,99.268c0.196,0.029,0.328,0.143,0.328,0.329c0.001,0.187-0.133,0.321-0.322,0.322
		c-0.192,0.002-0.317-0.131-0.317-0.322C498.836,99.406,498.963,99.297,499.148,99.268z"/>
	<path fill="#F37427" d="M472.902,97.876c-0.039,0.179-0.143,0.313-0.336,0.301c-0.188-0.012-0.314-0.15-0.307-0.336
		c0.007-0.189,0.147-0.311,0.337-0.302C472.783,97.548,472.894,97.672,472.902,97.876z"/>
	<path fill="#F26122" d="M498.974,104.586c0.232,0.038,0.339,0.149,0.321,0.346c-0.018,0.194-0.138,0.302-0.336,0.285
		c-0.197-0.017-0.297-0.142-0.285-0.337C498.686,104.675,498.834,104.611,498.974,104.586z"/>
	<path fill="#F37021" d="M507.68,100.462c-0.167-0.022-0.264-0.116-0.266-0.276c-0.002-0.19,0.101-0.317,0.298-0.307
		c0.154,0.008,0.263,0.12,0.272,0.273C507.995,100.35,507.855,100.434,507.68,100.462z"/>
	<path fill="#F26622" d="M465.894,99.669c-0.031,0.196-0.147,0.299-0.339,0.283c-0.163-0.014-0.246-0.131-0.242-0.291
		c0.003-0.159,0.087-0.273,0.253-0.281C465.759,99.371,465.868,99.479,465.894,99.669z"/>
	<path fill="#F26422" d="M493.442,102.017c-0.001,0.176-0.095,0.278-0.254,0.293c-0.194,0.018-0.324-0.074-0.326-0.283
		c-0.002-0.162,0.093-0.279,0.25-0.296C493.309,101.709,493.415,101.83,493.442,102.017z"/>
	<path fill="#F26A21" d="M497.205,100.113c-0.012,0.164-0.102,0.266-0.264,0.288c-0.171,0.023-0.284-0.071-0.301-0.234
		c-0.02-0.19,0.062-0.337,0.28-0.331C497.086,99.841,497.172,99.954,497.205,100.113z"/>
	<path fill="#F37022" d="M500.086,101.7c-0.172-0.008-0.256-0.112-0.264-0.27c-0.008-0.16,0.072-0.281,0.238-0.29
		c0.195-0.011,0.319,0.103,0.307,0.3C500.358,101.594,500.252,101.691,500.086,101.7z"/>
	<path fill="#F26422" d="M467.443,101.588c-0.208-0.026-0.325-0.108-0.327-0.275c-0.002-0.203,0.129-0.316,0.323-0.294
		c0.156,0.018,0.244,0.141,0.239,0.307C467.673,101.505,467.546,101.557,467.443,101.588z"/>
	<path fill="#F47527" d="M462.534,96.686c-0.163-0.008-0.26-0.097-0.268-0.264c-0.008-0.171,0.085-0.27,0.254-0.272
		c0.164-0.002,0.275,0.095,0.287,0.255C462.819,96.577,462.693,96.651,462.534,96.686z"/>
	<path fill="#F47D2C" d="M493.303,98.443c-0.174-0.044-0.279-0.142-0.24-0.308c0.027-0.116,0.122-0.216,0.264-0.194
		c0.163,0.026,0.26,0.138,0.225,0.301C493.527,98.361,493.424,98.437,493.303,98.443z"/>
	<path fill="#F58131" d="M504.928,106.905c-0.153-0.046-0.261-0.141-0.219-0.305c0.029-0.113,0.122-0.215,0.262-0.19
		c0.159,0.028,0.256,0.139,0.219,0.3C505.163,106.825,505.067,106.908,504.928,106.905z"/>
	<path fill="#F58334" d="M504.401,95.421c-0.007,0.116-0.03,0.236-0.176,0.255c-0.14,0.018-0.218-0.081-0.238-0.201
		c-0.022-0.13,0.055-0.232,0.182-0.259C504.316,95.184,504.372,95.291,504.401,95.421z"/>
	<path fill="#F26922" d="M510.464,97.898c0.14,0.016,0.223,0.092,0.193,0.235c-0.026,0.127-0.117,0.215-0.253,0.205
		c-0.139-0.009-0.217-0.101-0.197-0.241C510.226,97.96,510.332,97.907,510.464,97.898z"/>
	<path fill="#F26422" d="M465.716,96.903c0.133,0.013,0.213,0.093,0.224,0.219c0.01,0.129-0.06,0.227-0.194,0.237
		c-0.16,0.011-0.269-0.068-0.258-0.24C465.496,96.988,465.589,96.92,465.716,96.903z"/>
	<path fill="#F16022" d="M467.852,98.289c0.123-0.002,0.211,0.064,0.228,0.193c0.019,0.146-0.092,0.221-0.207,0.221
		c-0.068,0-0.173-0.088-0.196-0.157C467.636,98.422,467.712,98.328,467.852,98.289z"/>
	<path fill="#F5842D" d="M508.939,103.745c0.091,0.024,0.181,0.053,0.191,0.165c0.013,0.14-0.081,0.218-0.198,0.231
		c-0.09,0.01-0.173-0.054-0.185-0.164C508.731,103.834,508.813,103.771,508.939,103.745z"/>
	<path fill="#F26622" d="M468.18,106.017c-0.041,0.114-0.095,0.21-0.242,0.194c-0.118-0.013-0.156-0.11-0.155-0.196
		c0.001-0.085,0.038-0.184,0.157-0.195C468.087,105.805,468.141,105.902,468.18,106.017z"/>
	<path fill="#F58232" d="M497.782,97.901c-0.02,0.109-0.098,0.168-0.196,0.169c-0.097,0.001-0.193-0.047-0.195-0.163
		c-0.002-0.141,0.086-0.217,0.223-0.204C497.717,97.714,497.77,97.797,497.782,97.901z"/>
	<path fill="#F47D27" d="M507.925,96.784c-0.088-0.026-0.183-0.042-0.194-0.162c-0.013-0.144,0.076-0.234,0.195-0.233
		c0.116,0.001,0.21,0.089,0.197,0.233C508.111,96.741,508.011,96.755,507.925,96.784z"/>
	<path fill="#F36F21" d="M510.214,101.057c-0.008,0.102-0.038,0.184-0.149,0.198c-0.122,0.015-0.164-0.071-0.168-0.165
		c-0.004-0.094,0.04-0.178,0.147-0.196C510.174,100.872,510.184,100.98,510.214,101.057z"/>
	<path fill="#F79346" d="M468.986,108.444c0.112-0.01,0.186,0.051,0.198,0.151c0.013,0.105-0.061,0.185-0.163,0.181
		c-0.054-0.002-0.127-0.068-0.152-0.124C468.824,108.55,468.879,108.475,468.986,108.444z"/>
	<path fill="#EF4323" d="M513.342,97.709c-0.068,0.053-0.122,0.127-0.169,0.123c-0.052-0.004-0.099-0.08-0.147-0.125
		c0.049-0.044,0.097-0.119,0.149-0.122C513.222,97.582,513.274,97.656,513.342,97.709z"/>
	<path fill="#F57E2F" d="M500.503,97.673c-0.024,0.112-0.108,0.145-0.2,0.116c-0.052-0.016-0.115-0.078-0.127-0.129
		c-0.026-0.115,0.066-0.173,0.159-0.168C500.429,97.496,500.5,97.564,500.503,97.673z"/>
	<path fill="#F8AF64" d="M490.41,96.226c0.101,0.045,0.148,0.127,0.104,0.226c-0.023,0.052-0.103,0.12-0.148,0.114
		c-0.143-0.02-0.07-0.145-0.078-0.226C490.281,96.264,490.322,96.213,490.41,96.226z"/>
	<path fill="#FDFEFF" d="M462.264,160.429c-0.951-0.947-1.562-2.136-2.321-3.221c-1.093-1.56-1.606-3.353-2.296-5.086
		c-0.461-1.159-0.978-2.309-1.532-3.43c-0.729-1.477-1.083-3.036-1.273-4.651c0.626,1.409,1.2,2.844,1.89,4.221
		c1.013,2.022,1.5,4.219,2.227,6.335c0.279,0.813,0.813,1.427,1.552,1.85c0.309,0.177,0.54,0.394,0.673,0.724
		c0.414,1.029,0.834,2.056,1.251,3.084C462.478,160.411,462.406,160.455,462.264,160.429z"/>
	<path fill="#FDFDFE" d="M454.749,143.679c-0.751-1.138-1.573-2.208-2.799-2.886c0.547-0.247,1.115-0.461,1.579-0.856
		c0.277-0.237,0.328-0.101,0.497,0.156C454.755,141.201,454.745,142.437,454.749,143.679z"/>
	<path fill="#807836" d="M451.752,140.774c-1.298,0.437-2.526,0.243-3.702-0.412C449.336,140.035,450.568,140.194,451.752,140.774z"
		/>
	<path fill="#A97B3C" d="M466.059,164.699c-0.949-0.668-1.634-1.571-2.243-2.54C464.812,162.786,465.452,163.728,466.059,164.699z"
		/>
	<path fill="#E3E4E3" d="M462.264,160.429c0.057-0.058,0.114-0.116,0.171-0.174c0.222,0.285,0.487,0.541,0.612,0.893
		C462.705,160.998,462.482,160.716,462.264,160.429z"/>
	<path fill="#FFFFFF" d="M493.946,85.833c0.784-0.005,1.383,0.576,1.395,1.354c0.013,0.817-0.592,1.425-1.408,1.414
		c-0.78-0.011-1.362-0.606-1.359-1.39C492.577,86.429,493.165,85.838,493.946,85.833z"/>
	<path fill="#FCFDFC" d="M498.061,90.488c0.382,0.05,0.625,0.248,0.626,0.648c0.001,0.432-0.241,0.672-0.672,0.663
		c-0.395-0.008-0.623-0.24-0.628-0.635C497.381,90.727,497.637,90.519,498.061,90.488z"/>
	<path fill="#FFFFFF" d="M467.374,86.23c-0.012,0.798-0.575,1.349-1.381,1.351c-0.834,0.001-1.399-0.576-1.387-1.417
		c0.012-0.824,0.607-1.377,1.453-1.35C466.846,84.838,467.386,85.42,467.374,86.23z"/>
	<path fill="#FDFEFD" d="M470.097,90.794c-0.408-0.077-0.674-0.284-0.667-0.671c0.007-0.382,0.263-0.637,0.646-0.632
		c0.382,0.005,0.634,0.262,0.632,0.646C470.707,90.527,470.425,90.713,470.097,90.794z"/>
</g>
<g>
	<path d="M420.697,65.856c0.169-0.793,0.321-1.589,0.508-2.377c1.111-4.677,4.242-7.617,8.358-9.711
		c3.547-1.805,7.335-2.97,11.098-4.197c2.727-0.889,5.414-1.854,7.674-3.7c1.548-1.264,2.735-2.77,3.038-4.82
		c0.05-0.34,0.042-0.689,0.072-1.241c-0.886,1.129-1.469,2.262-2.664,2.779c0.55-2.734,1.093-5.431,1.648-8.188
		c0.162,0.142,0.386,0.33,0.602,0.529c1.142,1.052,2.123,2.226,2.749,3.664c0.908,2.084,0.752,4.104-0.762,5.793
		c-0.978,1.09-2.143,2.131-3.43,2.798c-2.205,1.142-4.564,1.992-6.871,2.931c-2.776,1.13-5.62,2.112-8.338,3.366
		c-3.477,1.604-6.39,3.941-8.122,7.47c-1.463,2.982-2.286,6.114-1.824,9.475c0.063,0.457,0.203,0.903,0.217,1.286
		c0.333-1.681,0.488-3.423,1.035-5.032c1.391-4.09,4.453-6.625,8.301-8.311c2.82-1.235,5.8-1.832,8.843-2.191
		c0.518-0.061,1.086-0.252,1.499-0.56c4.322-3.227,9.097-5.393,14.389-6.499c1.306-0.273,2.568-0.937,3.745-1.608
		c2.19-1.247,4.311-2.616,6.443-3.963c2.258-1.426,4.632-2.539,7.315-2.861c2.815-0.339,5.409,0.347,7.84,1.8
		c-0.626-0.075-1.25-0.16-1.877-0.224c-3.058-0.312-5.815,0.359-8.16,2.451c-1.465,1.307-2.968,2.57-4.412,3.816
		c15.873,0.556,30.394,5.436,43.039,15.526c-0.086-0.029-0.182-0.043-0.256-0.091c-7.047-4.441-14.714-7.312-22.826-9.092
		c-6.542-1.436-13.133-2.418-19.848-2.375c-6.643,0.042-13.117,1.004-19.258,3.668c-6.392,2.774-11.585,6.96-15.167,13.014
		c-0.229,0.387-0.43,0.791-0.586,1.251c1.173-1.142,2.503-1.998,4.203-2.63c-0.29,0.39-0.468,0.627-0.644,0.865
		c-1.779,2.399-3.209,4.963-3.655,7.97c-0.256,1.727-0.074,3.403,0.71,4.986c2.539,5.125,6.777,7.95,12.277,9.062
		c0.28,0.057,0.566,0.086,1.017,0.153c-0.358-0.425-0.63-0.738-0.892-1.06c-1.166-1.437-2.108-2.989-2.34-4.869
		c-0.301-2.434,0.678-4.409,2.292-6.13c1.483-1.581,3.252-2.785,5.194-3.709c7.006-3.333,14.123-6.396,21.6-8.54
		c4.772-1.368,9.602-2.415,14.609-2.239c3.841,0.135,7.348,1.116,10.039,4.114c0.574,0.639,1.267,1.181,1.947,1.714
		c3.81,2.987,8.089,4.673,12.986,4.539c0.979-0.027,1.954-0.22,2.93-0.341c0.205-0.025,0.409-0.068,0.715-0.12
		c-0.75,1.239-1.442,2.38-2.184,3.607c1.468,0.115,2.601-0.195,3.194-1.823c0.973,2.245,0.489,3.996-0.661,5.764
		c0.543-0.375,1.096-0.737,1.627-1.129c0.555-0.409,1.089-0.847,1.687-1.315c-0.461,1.11-0.893,2.152-1.322,3.187
		c0.695-0.266,1.302-0.499,2.035-0.779c0.272,1.362,0.533,2.548,0.742,3.742c0.646,3.702,1.1,7.418,0.751,11.188
		c-0.26,2.803-0.84,5.515-2.441,7.895c-0.478,0.71-1.093,1.328-1.74,2.101c1.771-0.847,2.991-2.18,4.311-3.628
		c0.058,1.51-0.502,2.637-1.309,3.62c-0.799,0.974-1.718,1.849-2.618,2.802c1.073,0.041,2.05-0.284,2.973-0.795
		c1.505-0.833,2.684-2.044,3.641-3.438c1.084-1.58,2.053-3.239,3.072-4.864c0.357-0.569,0.662-1.178,1.076-1.701
		c1.399-1.767,3.792-1.73,5.185,0.056c0.832,1.067,1.112,2.338,1.225,3.637c0.164,1.881-0.043,3.729-0.525,5.566
		c-0.681,2.595-2.402,3.974-4.949,4.397c-1.561,0.259-3.144,0.385-4.716,0.578c-2.087,0.256-3.965,0.944-5.372,2.617
		c0.569-1.638,1.675-2.813,3.21-3.554c1.714-0.828,3.502-1.225,5.443-0.906c3.291,0.542,5.313-1.064,5.708-4.386
		c0.207-1.741,0.069-3.453-0.312-5.153c-0.068-0.302-0.176-0.601-0.308-0.881c-0.584-1.238-1.643-1.484-2.552-0.477
		c-1.255,1.389-2.404,2.874-3.585,4.33c-1.464,1.805-3.067,3.457-5.13,4.582c-1.573,0.858-3.226,1.375-5.048,0.964
		c-0.087-0.02-0.169-0.06-0.282-0.102c0.411-0.629,0.798-1.222,1.308-2.004c-2.022,0.695-3.87,0.931-5.92,0.299
		c2.087-0.453,3.488-1.661,4.712-3.14c1.936-2.339,2.76-5.081,2.925-8.052c0.199-3.593-0.114-7.155-0.772-10.689
		c-0.03-0.162-0.082-0.319-0.121-0.467c-1.337-0.189-1.431-0.299-1.38-1.716c0.014-0.38,0.081-0.759,0.119-1.096
		c-0.647,0.262-1.275,0.604-1.947,0.762c-0.687,0.162-1.416,0.143-2.169,0.122c1.558-1.337,2.308-3.03,2.639-5.186
		c-1.07,0.955-2.226,1.029-3.394,1.218c-1.084,0.175-2.106,0.734-3.166,1.128c0.399-1.869,1.497-3.412,3.088-4.851
		c-0.379,0-0.601-0.007-0.823,0.001c-3.619,0.133-7.166-0.276-10.503-1.737c-1.304-0.571-2.6-1.301-3.677-2.22
		c-2.129-1.816-4.594-2.614-7.285-2.972c-3.449-0.459-6.793,0.181-10.143,0.868c-7.643,1.565-15.267,3.216-22.689,5.647
		c-2.662,0.872-5.233,2.018-7.853,3.019c-0.541,0.206-0.69,0.559-0.683,1.1c0.028,2.145,1.081,3.751,2.676,5.041
		c0.692,0.559,1.532,0.141,1.609-0.759c0.089-1.053,0.122-2.11,0.237-3.165c0,2.564-0.019,5.129,0.004,7.693
		c0.044,4.834,0.227,9.66,1.009,14.443c0.367,2.248,1.048,4.361,2.296,6.308c2.067,3.224,4.201,6.382,6.922,9.108
		c3.943,3.949,8.793,6.019,14.218,6.861c5.418,0.841,10.669-0.102,15.849-1.642c0.221-0.066,0.443-0.13,0.827-0.242
		c-1.023,1.286-2.151,2.183-3.495,2.723c-1.316,0.529-2.702,0.881-3.98,1.286c2.251,0.338,4.592,0.158,6.923-0.174
		c5.562-0.792,10.775-2.733,15.919-4.893c0.263-0.11,0.526-0.22,0.819-0.342c-1.026,1.287-6.069,4.057-9.61,5.305
		c-3.525,1.242-7.147,1.867-10.888,1.799c7.65,1.133,15.215,0.79,22.698-1.286c-0.163,0.095-0.322,0.198-0.49,0.284
		c-2.776,1.428-5.551,2.856-8.332,4.274c-0.228,0.116-0.492,0.233-0.738,0.232c-11.727-0.029-22.968-2.152-33.384-7.793
		c-0.907-0.491-1.774-1.058-2.655-1.597c-2.321-1.419-4.24-3.184-5.75-5.522c-1.636-2.534-3.621-4.846-5.51-7.209
		c-0.501-0.627-1.199-1.101-1.83-1.616c-0.363-0.296-0.71-0.276-1.065,0.107c-2.564,2.766-3.644,6.01-3.026,9.735
		c0.12,0.725,0.669,1.399,1.093,2.048c0.348,0.533,1.025,0.985,0.674,1.69c-0.324,0.651-1.07,0.65-1.728,0.638
		c-1.898-0.035-2.995,1.356-2.566,3.233c0.04,0.174-0.045,0.487-0.177,0.572c-3.46,2.23-4.002,5.471-3.183,9.17
		c0.19,0.86,0.503,1.693,0.762,2.545c-0.03,0.005-0.084,0.028-0.096,0.015c-3.076-3.498-3.855-8.077-1.569-12.224
		c0.197-0.357,0.311-0.795,0.334-1.203c0.069-1.209,0.15-2.421,0.795-3.474c0.369-0.602,0.799-1.313,1.385-1.605
		c0.991-0.493,1.111-1.263,1.233-2.173c0.291-2.17,1.008-4.195,2.248-6.016c0.906-1.33,2.024-2.447,3.421-3.252
		c0.446-0.257,0.618-0.589,0.698-1.077c0.262-1.601-0.127-3.147-0.264-4.722c-0.226-2.605-0.328-5.229-0.297-7.843
		c0.015-1.273-0.293-2.023-1.404-2.766c-3.249-2.172-5.101-5.881-4.959-9.571c0.768,2.212,2.2,3.726,3.978,4.981
		c-1.915-2.476-3.202-5.093-1.993-8.311c-2.306,0.6-3.934,3.23-3.57,5.684c0.355,2.392,1.76,4.12,3.547,5.58
		c0.94,0.768,1.979,1.415,2.98,2.263c-1.535-0.13-3.081-0.189-4.603-0.405c-4.036-0.573-7.763-1.972-11.044-4.433
		c-5.312-3.983-7.078-9.357-5.275-15.892c1.179-4.273,3.377-7.984,6.208-11.35c0.149-0.177,0.289-0.361,0.571-0.715
		c-0.847,0.149-1.504,0.225-2.142,0.382c-5.397,1.328-9.259,4.345-10.697,9.92c-0.26,1.006-0.377,2.099-0.301,3.132
		c0.176,2.398,1.626,3.863,3.823,4.66c0.223,0.081,0.451,0.147,0.66,0.328c-0.252-0.039-0.507-0.069-0.757-0.12
		c-3.894-0.798-8.405-3.549-9.011-9.3c-0.009-0.086-0.078-0.167-0.119-0.25C420.697,67.973,420.697,66.915,420.697,65.856z"/>
	<path d="M507.709,4.385c1.2,0.217,2.413,0.376,3.596,0.66c5.288,1.267,9.616,4.157,13.322,8.043
		c3.843,4.029,6.719,8.692,8.89,13.802c0.716,1.686,1.418,2.076,3.142,1.478c1.036-0.359,2.031-0.861,3.003-1.379
		c3.115-1.661,6.212-3.357,9.642-4.313c7.127-1.986,13.421-0.121,18.985,4.396c3.242,2.632,4.464,6.344,4.422,10.464
		c-0.025,2.422-0.503,4.768-1.427,7.08c-2.476-5.715-7.041-7.4-12.757-6.545c-3.225,0.482-5.456,2.479-6.786,5.455
		c3.745-2.369,7.545-3.974,11.988-1.294c-0.682,0.249-1.223,0.413-1.737,0.64c-2.294,1.013-2.946,2.485-2.402,4.926
		c0.29,1.301,0.448,2.655,0.467,3.987c0.031,2.206-0.843,3.658-2.904,5.48c1.208-0.172,2.429-0.278,3.62-0.529
		c4.358-0.918,8.75-1.316,13.182-0.808c5.309,0.609,10.008,2.477,13.412,6.85c4.062,5.218,3.606,11.171,0.026,16.219
		c-0.056,0.079-0.103,0.164-0.232,0.184c0.167-0.729,0.377-1.451,0.495-2.187c0.494-3.085-0.599-5.703-2.221-8.27
		c-2.173-3.439-5.493-4.311-9.164-4.415c-1.789-0.05-3.588,0.251-5.383,0.389c-2.125,0.164-4.251,0.324-6.372,0.485
		c-0.028-0.116-0.034-0.034,0.004,0.001c2.562,2.427,3.926,5.473,4.563,8.883c0.549,2.933,0.606,5.884,0.039,8.817
		c-0.93,4.809-3.859,7.753-8.621,8.749c-2.201,0.46-4.466,0.628-6.706,0.893c-1.49,0.176-2.946,0.459-4.276,1.178
		c-1.369,0.74-2.394,1.777-2.632,3.397c-0.164,1.118,0.102,2.095,1.019,2.836c0.374,0.302,0.748,0.606,1.095,0.938
		c1.745,1.666,2.024,3.645,0.817,5.749c-0.831,1.449-2.106,2.42-3.541,3.195c-2.545,1.374-5.31,2.062-8.168,2.579
		c2.013,0.286,3.647,1.079,4.391,3.349c-2.08-1.58-4.149-2.832-6.683-3.142c0.46-0.09,0.925-0.157,1.378-0.273
		c2.274-0.584,4.585-1.061,6.805-1.808c2.119-0.713,3.844-2.049,4.885-4.132c0.738-1.476,0.643-2.895-0.468-4.076
		c-0.93-0.988-2.073-1.772-3.092-2.68c-0.786-0.7-1.616-1.381-2.266-2.197c-1.56-1.959-1.186-3.666,1.134-4.571
		c1.635-0.637,3.399-1.006,5.139-1.293c2.413-0.399,4.893-0.492,7.169-1.485c4.477-1.954,7.688-5.118,8.454-10.083
		c0.911-5.902-0.69-11.148-4.935-15.464c-0.974-0.99-2.055-1.876-3.088-2.81c0.697,0.215,1.413,0.471,2.147,0.657
		c3.021,0.769,6.092,0.802,9.169,0.513c2.582-0.242,5.151-0.643,7.736-0.84c3.085-0.236,6.059,0.208,8.625,2.117
		c0.667,0.496,1.266,1.115,1.787,1.765c0.52,0.649,0.902,1.407,1.422,2.112c-0.08-0.238-0.142-0.484-0.243-0.713
		c-1.481-3.37-4.128-5.566-7.348-7.117c-4.917-2.369-10.133-3.208-15.558-2.788c-2.967,0.23-5.928,0.55-8.898,0.719
		c-1.311,0.075-2.63-0.156-4.047-0.798c0.399-0.133,0.639-0.191,0.86-0.29c1.114-0.497,2.295-0.889,3.318-1.533
		c2.186-1.375,2.96-3.351,2.263-5.841c-0.499-1.781-0.893-3.532-0.569-5.388c0.027-0.155-0.189-0.425-0.361-0.531
		c-1.069-0.665-2.253-0.755-3.399-0.349c-1.275,0.451-2.491,1.069-3.772,1.631c0.245-0.63,0.48-1.329,0.784-1.996
		c2.044-4.486,5.628-6.713,10.462-7.069c2.297-0.169,4.558,0.07,6.779,0.686c0.134,0.037,0.275,0.046,0.491,0.081
		c-0.358-1.82-1.068-3.42-2.105-4.876c-2.324-3.262-5.605-5.153-9.347-6.252c-1.924-0.565-3.929-0.903-5.921-1.168
		c-2.471-0.329-4.753,0.463-6.917,1.587c-3.848,1.997-7.039,4.835-10.028,7.923c-0.784,0.81-1.532,1.656-2.418,2.617
		c0-0.425-0.001-0.714,0-1.004c0.028-5.394-1.332-10.357-4.609-14.711c-1.416-1.882-3.135-3.451-5.129-4.704
		c-4.428-2.783-9.127-4.912-14.318-5.819c-2.951-0.516-5.881-0.476-8.773,0.4c-5.814,1.761-11.744,2.763-17.818,3.207
		c-8.322,0.609-16.451,2.268-24.124,5.715c-1.092,0.49-2.132,1.102-3.172,1.699c-4.138,2.377-6.224,6.133-7.098,10.679
		c-0.604,3.142-0.29,6.211,0.848,9.2c-0.073,0.021-0.146,0.042-0.219,0.063c-0.392-1.292-0.947-2.56-1.148-3.881
		c-1.195-7.876,1.376-14.234,7.902-18.885c3.956-2.819,8.456-4.387,13.137-5.501c3.752-0.893,7.568-1.3,11.407-1.558
		c3.852-0.259,7.499-1.333,11.034-2.843c3.288-1.405,6.559-2.866,10.084-3.601c1.312-0.273,2.644-0.449,3.966-0.669
		C505.111,4.385,506.41,4.385,507.709,4.385z"/>
	<path d="M527.838,36.6c2.158,3.157,1.921,6.871-0.588,10.551c1.667,0.56,3.371,1.052,5.013,1.702
		c4.468,1.769,8.45,4.265,11.468,8.092c3.293,4.175,4.484,8.969,3.977,14.203c-0.17,1.754-0.539,3.489-0.817,5.232
		c-0.068-0.011-0.136-0.021-0.204-0.032c0.095-0.757,0.22-1.512,0.28-2.272c0.61-7.706-2.479-13.697-8.592-18.208
		c-6.166-4.551-13.093-6.021-20.603-4.726c-1.571,0.271-3.083,0.883-4.626,1.328c-3.419,0.988-6.375,0.148-9.003-2.196
		c-2.63-2.346-4.675-5.163-6.613-8.063c-1.548-2.316-3.002-4.696-4.489-7.052c-2.791-4.422-6.514-7.816-11.256-10.026
		c-5.802-2.704-11.576-2.525-17.274,0.374c-0.228,0.116-0.453,0.235-0.731,0.275c0.079-0.062,0.153-0.133,0.239-0.186
		c3.902-2.423,8.073-4.2,12.657-4.704c8.878-0.978,15.961,2.217,20.896,9.681c1.979,2.992,3.55,6.26,5.219,9.449
		c1.461,2.79,2.852,5.612,4.873,8.06c1.299,1.573,2.889,2.647,4.928,3.019c0.71,0.13,1.3,0.022,1.881-0.426
		c2.1-1.618,3.143-3.836,3.637-6.356c0.769-3.93,0.207-7.793-0.629-11.644c-1.564-7.205-6.298-11.485-12.918-14.016
		c-3.528-1.349-7.203-2.013-10.958-2.376c2.357,0.128,4.721,0.186,7.071,0.399c3.696,0.335,7.305,1.098,10.763,2.497
		c4.408,1.784,7.659,4.721,9.591,9.143c1.788,4.092,2.951,8.269,2.535,12.778c-0.031,0.334-0.088,0.666-0.139,0.998
		c-0.05,0.324-0.107,0.647-0.163,0.984C525.659,42.927,527.307,40.587,527.838,36.6z"/>
	<path d="M443.251,143.601c0.371-0.437,0.731-0.884,1.117-1.307c0.6-0.657,1.232-1.284,1.825-1.947
		c0.902-1.01,1.606-2.127,2.063-3.428c0.807-2.297,2.113-2.578,3.827-0.836c2.037,2.071,3.414,4.587,4.501,7.242
		c1.373,3.352,2.587,6.768,3.93,10.133c1.551,3.885,3.613,7.48,6.35,10.663c0.624,0.726,1.307,1.4,2.116,2.261
		c-0.388-0.166-0.609-0.245-0.817-0.352c-2.953-1.521-5.223-3.818-7.216-6.415c-3.058-3.984-5.187-8.462-6.902-13.152
		c-0.548-1.499-1.191-2.939-2.314-4.112c-1.878-1.961-4.121-2.115-6.231-0.404c-0.719,0.583-1.404,1.209-2.105,1.816
		C443.347,143.71,443.299,143.656,443.251,143.601z"/>
	<path d="M494.397,106.475c-1.202,1.27-2.548,2.636-3.832,4.058c-2.13,2.36-4.484,4.351-7.713,5.006
		c-0.423,0.086-0.848,0.181-1.277,0.215c-2.757,0.219-4.489-0.814-5.172-3.508c-0.593-2.338-1.711-4.305-3.225-6.104
		c-0.38-0.452-0.3-0.921,0.049-1.222c0.623-0.539,1.286-1.126,2.039-1.406c3.719-1.383,7.379-1.068,10.992,0.515
		c1.795,0.786,3.632,1.493,5.495,2.098C492.644,106.416,493.639,106.384,494.397,106.475z M489.143,106.282
		c-0.706-0.342-1.319-0.664-1.951-0.942c-2.678-1.177-5.427-2.085-8.405-1.963c-1.512,0.062-2.923,0.456-4.131,1.474
		c0.343,0.734,0.651,1.435,1.002,2.114c0.097,0.188,0.301,0.39,0.497,0.448c2.511,0.737,5.057,1.127,7.678,0.716
		c1.002-0.157,1.661-0.694,1.954-1.672c0.045-0.149,0.115-0.29,0.181-0.451C486.864,106.963,488.227,107.11,489.143,106.282z
		 M486.32,113.374c-0.183,0-0.367-0.007-0.55,0.001c-1.582,0.071-3.164,0.204-4.745,0.196c-0.874-0.005-1.761-0.188-2.617-0.397
		c-0.616-0.151-1.087-0.915-1.005-1.425c0.104-0.646,0.67-0.686,1.146-0.797c0.349-0.081,0.717-0.079,1.077-0.114
		c0.002-0.068,0.004-0.136,0.005-0.205c-0.799-0.058-1.604-0.197-2.397-0.15c-0.8,0.048-1.029,0.616-0.646,1.332
		c0.204,0.38,0.423,0.753,0.627,1.133c0.48,0.894,1.215,1.497,2.183,1.752C481.905,115.361,484.134,114.466,486.32,113.374z"/>
	<path d="M523.124,129.11c1.003-1.409,2.168-2.853,3.113-4.428c1.107-1.844,1.662-3.871,1.259-6.071
		c-0.166-0.902-0.6-1.436-1.53-1.381c-1.015,0.06-2.02,0.322-3.026,0.512c-0.25,0.047-0.488,0.156-0.758,0.171
		c1.125-1.062,2.464-1.731,3.941-2.083c2.815-0.671,5.473-0.318,7.91,1.345c0.591,0.403,1.219,0.78,1.881,1.044
		c0.884,0.354,1.427,0.018,1.671-0.896c0.093-0.347,0.169-0.7,0.284-1.04c0.366-1.087,1.025-1.492,2.144-1.338
		c1.064,0.146,2.156,0.925,2.736,1.986c-0.894-0.173-1.746-0.362-2.608-0.493c-0.371-0.056-0.764-0.02-1.141,0.024
		c-0.554,0.065-0.806,0.395-0.876,0.964c-0.084,0.686-0.205,1.381-0.429,2.032c-0.282,0.821-0.868,1.059-1.584,0.583
		c-0.853-0.568-1.619-1.27-2.402-1.938c-1.086-0.925-2.124-0.958-3.263-0.097c-0.375,0.283-0.516,0.606-0.546,1.09
		c-0.089,1.434-0.228,2.868-0.419,4.293c-0.078,0.582-0.338,1.14-0.529,1.753c1.381,0.088,2.032,0.99,2.432,2.233
		c0.615,1.915,1.088,3.836,0.73,5.864c-0.162,0.919-0.617,1.268-1.46,0.907c-1.108-0.475-2.143-1.118-3.124-1.643
		c0.396-0.908,0.827-1.603,0.988-2.356c0.126-0.59,0.038-1.295-0.17-1.87c-0.311-0.857-0.774-0.946-1.583-0.509
		c-0.161,0.087-0.321,0.174-0.584,0.317c1.033-1.415,1.047-1.489,0.372-2.12C525.44,127.109,524.546,128.532,523.124,129.11z"/>
	<path d="M465.081,126.585c1.837,1.551,3.528,3.214,5.444,4.555c6.092,4.264,12.893,5.76,20.249,4.816
		c0.184-0.024,0.406-0.072,0.553,0.003c1.281,0.649,2.565,1.294,3.807,2.012c0.275,0.159,0.538,0.618,0.516,0.918
		c-0.015,0.207-0.515,0.507-0.823,0.542c-1.284,0.145-2.579,0.294-3.868,0.278c-4.043-0.05-8.063-0.353-11.956-1.571
		c-5.155-1.613-9.481-4.39-12.49-8.98C465.981,128.344,465.562,127.455,465.081,126.585z"/>
	<path d="M452.289,127.108c1.345-0.161,2.604,0.214,3.821,0.745c2.367,1.033,4.406,2.563,6.195,4.39
		c2.117,2.161,4.069,4.483,6.198,6.632c1.703,1.719,3.52,3.334,5.372,4.894c1.22,1.028,2.657,1.703,4.304,1.84
		c0.741,0.061,0.892,0.319,0.445,0.907c-1.027,1.35-2.142,2.634-3.25,3.979c-1.951-1.36-3.547-2.876-5.063-4.481
		c-2.751-2.913-5.074-6.142-7.082-9.603c-1.489-2.569-3.163-4.993-5.482-6.901C456.16,128.202,454.403,127.269,452.289,127.108z"/>
	<path d="M528.795,73.397c-0.811-8.681-4.709-15.402-11.696-20.382c0.524,0.194,1.053,0.376,1.572,0.585
		c2.821,1.134,5.49,2.541,7.827,4.509c2.298,1.935,4.092,4.215,4.503,7.303C531.388,68.313,530.417,70.868,528.795,73.397z"/>
	<path d="M501.425,86.4c0.824,3.006,0.159,5.318-2.32,6.922c-1.916,1.239-4.372,1.069-6.218-0.314
		c-1.985-1.487-2.585-3.661-1.821-6.591c-0.747,0.381-1.2,0.988-1.893,2.537c-0.202-2.358,1.462-4.928,3.82-5.724
		c3.514-1.186,8.404-0.391,11.157,3.411c0.397,0.548,0.565,1.053,0.347,1.72c-0.243,0.741-0.394,1.512-0.607,2.358
		c-0.049-0.127-0.07-0.153-0.065-0.171c0.468-1.571-0.479-2.502-1.528-3.388C502.062,86.96,501.833,86.755,501.425,86.4z
		 M500.705,88.681c-0.05-2.329-1.255-4.28-4.553-4.326c-2.525-0.036-4.302,1.611-4.381,4.108c-0.078,2.476,1.855,4.514,4.357,4.594
		C498.591,93.135,500.641,91.175,500.705,88.681z"/>
	<path d="M463.184,85.119c-0.617,0.94-1.234,1.88-1.8,2.742c-0.525-1.234-0.44-2.456,0.619-3.669
		c2.117-2.424,4.738-3.153,7.793-2.555c2.849,0.558,4.692,2.273,5.529,5.058c0.027,0.089,0.033,0.185,0.077,0.443
		c-0.347-0.499-0.583-0.885-0.866-1.234c-0.282-0.348-0.611-0.658-0.974-0.965c1.077,2.928,0.609,5.428-2.001,7.271
		c-1.808,1.277-4.302,1.258-6.1-0.027c-2.457-1.756-2.988-4.143-2.031-6.946C463.347,85.199,463.265,85.159,463.184,85.119z
		 M464.06,87.599c0.018,2.488,2.038,4.481,4.512,4.45c2.492-0.031,4.444-2.051,4.436-4.532c-0.007-2.14-1.783-4.522-4.773-4.38
		C465.962,83.245,464.043,85.21,464.06,87.599z"/>
	<path d="M473.854,152.221c-1.959-0.228-3.781-0.91-5.479-1.855c-1.883-1.049-3.674-2.264-5.532-3.362
		c-0.419-0.247-0.948-0.307-1.427-0.453c0.061,0.474,0.018,0.995,0.203,1.414c0.51,1.155,1.116,2.268,1.771,3.569
		c-0.649-0.471-1.25-0.806-1.727-1.269c-2.267-2.203-3.647-4.802-3.431-8.068c0.016-0.238,0.011-0.497,0.105-0.707
		c0.157-0.352,0.333-0.88,0.6-0.948c0.284-0.073,0.744,0.237,1.021,0.494c2.582,2.405,5.091,4.89,7.722,7.239
		C469.509,149.907,471.591,151.212,473.854,152.221z"/>
	<path d="M456.751,158.602c-0.167,1.327-0.378,2.651-0.492,3.982c-0.169,1.966-0.208,3.936,0.335,5.865
		c0.51,1.814,1.489,3.1,3.552,3.227c0.268,0.016,0.522,0.268,0.782,0.411c-0.168,0.246-0.28,0.593-0.513,0.723
		c-1.539,0.863-3.104,1.68-4.841,2.608c-2.098-5.922-1.504-11.426,0.967-16.819C456.611,158.601,456.681,158.602,456.751,158.602z"
		/>
	<path d="M496.404,80.592c-0.312-0.021-0.641,0.014-0.932-0.074c-1.492-0.45-2.876-0.155-4.268,0.445
		c-0.624,0.269-1.337,0.343-2.018,0.461c-0.631,0.109-1.034-0.184-1.278-0.785c-0.229-0.565-0.037-0.997,0.336-1.371
		c1.075-1.079,2.385-1.688,3.902-1.81c1.493-0.121,2.982-0.099,4.423,0.379c0.405,0.134,0.803,0.325,1.158,0.56
		c0.511,0.337,0.784,0.913,0.521,1.433c-0.175,0.346-0.719,0.533-1.13,0.719c-0.199,0.09-0.473,0.016-0.714,0.016
		C496.404,80.573,496.404,80.582,496.404,80.592z"/>
	<path d="M470.302,77.136c1.446,0.035,2.872,0.198,4.189,0.849c0.767,0.379,1.347,0.91,1.323,1.875
		c-0.012,0.496-0.248,0.833-0.712,0.803c-0.576-0.037-1.287-0.054-1.685-0.386c-1.053-0.878-2.189-0.856-3.397-0.649
		c-0.471,0.081-0.936,0.301-1.4,0.291c-0.436-0.009-1.021-0.114-1.254-0.406c-0.205-0.257-0.142-0.889,0.026-1.252
		c0.399-0.863,1.273-1.014,2.119-1.121C469.771,77.108,470.038,77.136,470.302,77.136z"/>
	<path d="M479.652,100.599c-2.485-0.236-4.365-2.174-4.232-4.479c0.034-0.597,0.326-1.186,0.551-1.759
		c0.064-0.164,0.297-0.354,0.469-0.37c2.491-0.241,4.135-1.499,4.754-4.023c0.073,0.038,0.146,0.075,0.219,0.113
		c-0.17,0.859-0.248,1.75-0.542,2.564c-0.193,0.535-0.2,0.869,0.209,1.245c0.205,0.189,0.349,0.443,0.498,0.638
		c-0.858,0.054-1.728-0.015-2.533,0.182c-2.147,0.527-2.804,2.855-1.266,4.428C478.323,99.695,479.013,100.109,479.652,100.599z"/>
	<path d="M465.625,100.205c-0.216-0.245-0.46-0.409-0.439-0.525c0.032-0.175,0.248-0.317,0.386-0.472
		c0.138,0.133,0.366,0.252,0.388,0.401C465.983,99.754,465.791,99.93,465.625,100.205z"/>
	<path d="M472.657,98.31c-0.194-0.211-0.308-0.335-0.422-0.459c0.137-0.125,0.261-0.323,0.416-0.351
		c0.113-0.02,0.387,0.199,0.376,0.284C473.006,97.942,472.831,98.081,472.657,98.31z"/>
	<path d="M470.614,100.49c-0.231,0.182-0.366,0.361-0.523,0.382c-0.087,0.012-0.31-0.257-0.292-0.37
		c0.026-0.156,0.201-0.335,0.355-0.399C470.223,100.075,470.398,100.302,470.614,100.49z"/>
	<path d="M501.961,100.17c0.198,0.277,0.383,0.423,0.369,0.545c-0.019,0.166-0.191,0.315-0.297,0.472
		c-0.123-0.116-0.334-0.225-0.346-0.352C501.672,100.673,501.817,100.495,501.961,100.17z"/>
	<path d="M499.185,104.827c-0.219,0.185-0.401,0.408-0.465,0.379c-0.154-0.071-0.325-0.25-0.35-0.408
		c-0.018-0.111,0.215-0.379,0.297-0.364C498.826,104.462,498.957,104.641,499.185,104.827z"/>
	<path d="M498.464,90.657c-0.423,0-0.818-0.113-1.045,0.034c-0.196,0.127-0.199,0.549-0.314,0.928
		c-2.016,0.815-4.219-0.795-4.065-3.112c1.079,0.256,1.636,0.099,1.98-0.558c0.336-0.642,0.147-1.196-0.631-1.842
		c1.03-0.922,2.738-0.814,3.838,0.244C499.455,87.534,499.517,89.436,498.464,90.657z"/>
	<path d="M470.759,89.646c-0.423,0-0.818-0.113-1.045,0.034c-0.196,0.128-0.2,0.55-0.314,0.928
		c-2.016,0.815-4.219-0.795-4.065-3.112c1.079,0.256,1.636,0.099,1.98-0.558c0.336-0.642,0.147-1.196-0.631-1.842
		c1.029-0.922,2.738-0.814,3.838,0.244C471.75,86.523,471.811,88.426,470.759,89.646z"/>
</g>
<g>
	<path d="M554.033,108.862c3.191,3.962,5.812,8.244,7.257,13.163c0.996,3.392,1.25,6.798-0.053,10.183
		c-1.072,2.784-3.103,4.83-5.281,6.744c-2.063,1.813-4.422,3.121-7.205,3.935c1.399,1.723,3.062,3.035,4.741,4.433
		c0.146-0.205,0.272-0.365,0.38-0.537c2.76-4.395,5.899-8.485,9.719-12.021c1.7-1.574,3.526-2.986,5.672-3.91
		c2.093-0.902,4.21-1.234,6.268,0.095c0.498,0.322,0.99,0.711,1.358,1.17c2.988,3.722,5.461,7.738,6.643,12.417
		c1.083,4.285,0.632,8.319-2.385,11.777c-0.736,0.844-1.578,1.639-2.497,2.274c-4.372,3.021-9.208,4.72-14.552,4.805
		c-3.705,0.059-7.103-1.008-10.229-2.975c-0.182-0.115-0.365-0.229-0.549-0.342c-0.019-0.012-0.046-0.011-0.161-0.037
		c0.093,0.23,0.153,0.42,0.242,0.596c2.004,3.964,5.283,6.045,9.665,6.233c6.115,0.262,11.628-1.707,16.715-4.959
		c2.347-1.5,4.58-3.18,6.919-4.694c2.061-1.334,4.23-2.493,6.684-2.939c1.81-0.329,3.602-0.154,5.308,0.543
		c2.048,0.836,3.06,2.633,2.59,4.982c-0.317,1.582-0.873,3.143-1.527,4.623c-0.643,1.456-1.939,1.916-3.201,1.375
		c-0.217-0.093-0.457-0.297-0.542-0.507c-0.95-2.361-3.126-3.167-5.667-2.37c-1.937,0.608-3.569,1.762-5.146,2.987
		c-2.487,1.931-4.863,4.015-7.434,5.826c-4.277,3.014-8.944,5.26-14.151,6.156c-3.676,0.633-7.165,0.189-10.067-2.425
		c-2.327-2.096-3.449-4.857-4.121-7.843c-0.745-3.308-0.463-6.595,0.21-9.867c0.108-0.527-0.025-0.836-0.362-1.205
		c-3.206-3.514-5.583-7.502-6.819-12.124c-0.148-0.552-0.208-1.128-0.294-1.611c-1.244-0.689-2.453-1.359-3.626-2.009
		c0.103,0.8,0.27,1.685,0.321,2.576c0.131,2.312-0.23,4.576-1.116,6.701c-1.414,3.391-2.97,6.723-5.214,9.671
		c-4.586,6.025-10.65,9.475-18.155,10.449c-3.492,0.453-6.952,0.195-10.42-0.232c-5.511-0.679-11.031-1.284-16.597-1.222
		c-3.368,0.038-6.636,0.589-9.756,1.932c-1.65,0.71-3.347,1.312-5.085,1.986c0.797,2.09,1.961,3.912,3.472,5.506
		c3.265,3.444,7.364,5.29,11.959,6.17c4.128,0.791,8.185,0.234,12.218-0.653c7.086-1.56,13.686-4.419,20.136-7.653
		c3.498-1.753,6.933-3.633,10.449-5.351c3.206-1.566,6.597-2.505,10.211-2.355c0.736,0.031,1.466,0.206,2.281,0.327
		c0.534-4.807,1.678-9.513,3.569-14.197c0.51,0.706,0.97,1.28,1.346,1.905c0.097,0.161-0.026,0.496-0.116,0.724
		c-0.847,2.149-1.718,4.315-1.812,6.64c-0.321,7.944,2.62,14.218,9.748,18.144c4.349,2.396,9.054,3.216,14,2.676
		c7.203-0.787,13.94-3.144,20.436-6.203c4.95-2.331,9.786-4.905,14.672-7.37c2.949-1.488,6.025-2.519,9.371-2.507
		c3.355,0.013,5.504,1.948,5.949,5.266c0.434,3.24-0.111,6.384-1.014,9.459c-0.917,3.123-2.014,6.193-3.032,9.286
		c-0.089-0.029-0.179-0.058-0.268-0.087c0.215-0.635,0.434-1.268,0.643-1.904c0.691-2.101,1.296-4.218,1.435-6.446
		c0.263-4.225-2.35-7.134-6.567-7.262c-3.121-0.095-6.02,0.844-8.859,1.992c-3.281,1.327-6.386,2.988-9.346,4.939
		c-6.461,4.258-13.239,7.888-20.669,10.184c-2.6,0.804-5.254,1.335-7.974,1.529c-5.116,0.364-9.515-1.449-13.522-4.438
		c-1.988-1.483-3.603-3.316-4.892-5.435c-0.098-0.162-0.207-0.318-0.385-0.592c-0.365,1.088-0.69,2.078-1.029,3.064
		c-0.483,1.403-0.938,2.816-1.905,3.996c-1.192,1.454-2.746,1.989-4.425,1.222c-2.884-1.317-5.028-3.444-6.18-6.431
		c-0.702-1.821-0.288-3.551,0.836-5.111c1.093-1.517,2.565-2.573,4.249-3.431c0.972,1.022,1.931,2.03,2.891,3.039
		c0.954,1.003,1.908,2.006,2.909,3.058c0.379-3.659-2.344-6.752-6.005-6.982c-3.366-0.212-6.526,0.657-9.625,1.809
		c-3.586,1.334-6.997,3.003-10.221,5.101c-6.179,4.021-12.683,7.412-19.767,9.586c-2.649,0.813-5.349,1.357-8.118,1.54
		c-5.169,0.342-9.618-1.512-13.618-4.586c-4.384-3.369-6.693-7.946-7.467-13.354c-0.132-0.925-0.214-1.857-0.33-2.882
		c-0.361,0.146-0.687,0.27-1.007,0.407c-4.885,2.09-9.857,3.922-15.098,4.91c-4.339,0.817-8.7,1.126-12.981-0.24
		c-5.09-1.625-8.618-4.907-10.176-10.121c-0.164-0.548-0.262-1.116-0.391-1.674c0-0.962,0-1.924,0-2.886
		c0.038-0.088,0.099-0.172,0.111-0.263c0.445-3.49,1.916-6.572,3.821-9.465c3.679-5.586,8.448-10.137,13.667-14.251
		c0.052-0.041,0.132-0.046,0.149-0.051c-1.489,1.676-3.044,3.319-4.477,5.062c-2.561,3.114-4.783,6.45-5.99,10.349
		c-1.434,4.631-0.829,8.862,3.136,11.984c4.716,3.713,10.061,5.496,16.162,4.382c4.367-0.798,8.547-2.175,12.665-3.788
		c0.541-0.212,0.79-0.494,0.86-1.059c0.441-3.566,1.412-7.011,2.642-10.367c1.506-4.109,3.625-7.92,6.505-11.224
		c8.636-9.909,19.782-14.756,32.689-15.915c4.765-0.428,9.507-0.102,14.218,0.711c2.998,0.518,5.912,1.281,8.537,2.892
		c0.546,0.335,1.065,0.714,1.622,1.091c0.019-0.12,0.05-0.191,0.039-0.255c-0.451-2.536,0.125-4.923,1.108-7.23
		c1.952-4.578,4.982-8.412,8.369-11.992c0.028-0.03,0.099-0.021,0.227-0.043c-0.213,0.304-0.378,0.538-0.542,0.773
		c-1.492,2.131-2.833,4.348-3.756,6.791c-0.693,1.834-1.206,3.708-0.808,5.699c0.307,1.539,1.138,2.702,2.512,3.496
		c0.312-1.662,0.549-3.274,0.924-4.853c1.288-5.433,4.061-10.137,7.368-14.543c1.087-1.448,2.419-2.713,3.638-4.061
		C553.937,108.862,553.985,108.862,554.033,108.862z M471.197,167.491c1.005-0.455,1.911-0.834,2.79-1.269
		c2.646-1.311,5.231-2.756,7.93-3.943c4.985-2.191,10.272-3.12,15.692-3.329c6.237-0.24,12.299,0.725,18.229,2.645
		c2.402,0.778,4.863,1.166,7.375,0.518c0.95-0.245,1.82-0.663,2.559-1.43c-1.62-0.261-3.164-0.458-4.686-0.768
		c-2.864-0.583-5.636-1.44-8.04-3.183c-2.815-2.041-3.694-4.822-2.61-8.125c0.732-2.231,2.056-4.114,3.509-5.917
		c0.704-0.873,1.436-1.723,2.231-2.676c-0.511-0.048-0.91-0.107-1.31-0.119c-1.154-0.034-2.308-0.054-3.462-0.07
		c-6.349-0.092-12.628,0.442-18.751,2.225c-5.998,1.747-11.374,4.573-15.853,9.029C472.242,155.614,470.59,161.082,471.197,167.491z
		 M553.954,147.872c2.101,1.226,4.04,2.472,6.08,3.523c3.941,2.03,8.237,2.838,12.593,3.346c0.97,0.113,1.971,0.091,2.945-0.001
		c1.284-0.121,1.8-0.923,1.487-2.171c-0.133-0.533-0.316-1.059-0.534-1.564c-1.316-3.042-3.084-5.808-5.209-8.343
		c-1.474-1.759-3.082-3.38-5.239-4.313c-1.375-0.595-2.703-0.511-4.1,0.101C557.835,140.261,556.172,144.12,553.954,147.872z
		 M550,118.609c-0.777,1.491-1.548,2.846-2.203,4.255c-1.483,3.187-2.375,6.528-2.419,10.068c-0.005,0.404-0.005,0.746,0.516,0.869
		c2.015,0.478,4.043,0.864,6.124,0.738c1.499-0.091,2.973-0.368,4.2-1.304c0.412-0.314,0.885-0.8,0.954-1.264
		c0.161-1.078,0.256-2.216,0.089-3.284C556.559,124.198,553.625,121.264,550,118.609z M531.27,148.629
		c-0.236-2.526-1.185-4.512-3.385-5.793c-2.397-1.396-5.049-1.914-7.759-2.208c-0.184-0.02-0.488,0.127-0.573,0.284
		c-0.542,1.009-1.17,2-1.521,3.078c-0.636,1.955-0.065,3.664,1.532,4.958c0.646,0.523,1.375,0.975,2.127,1.33
		c2.462,1.164,5.114,1.59,7.795,1.876c0.496,0.053,0.818-0.162,0.95-0.581C530.744,150.602,530.996,149.612,531.27,148.629z"/>
	<path d="M624.306,161.964c-0.061,0.121-0.136,0.237-0.181,0.363c-0.651,1.791-2.171,2.929-3.949,2.952
		c-1.93,0.025-3.428-1.004-4.154-2.854c-0.043-0.11-0.092-0.218-0.142-0.335c-1.192,2.566-3.016,3.633-5.224,3.066
		c-2.077-0.533-3.348-2.314-3.224-4.516c0.126-2.222,1.721-3.524,4.816-3.93c-1.206-2.599-0.937-4.533,0.827-5.953
		c1.472-1.185,3.628-1.228,5.159-0.104c1.867,1.372,2.154,3.212,0.95,6.1c0.569,0.028,1.154-0.018,1.705,0.099
		c1.543,0.329,2.611,1.255,3.178,2.742c0.065,0.171,0.16,0.33,0.241,0.494C624.306,160.713,624.306,161.339,624.306,161.964z
		 M615.107,158.359c0.283,0.592,0.522,1.091,0.76,1.589c0.25-0.531,0.497-1.054,0.749-1.589
		C616.104,158.359,615.634,158.359,615.107,158.359z"/>
	<path d="M597.549,145.223c-3.338,0.002-6.001-2.652-5.995-5.975c0.006-3.344,2.647-5.994,5.976-5.995
		c3.339-0.002,5.993,2.644,5.995,5.976C603.526,142.567,600.881,145.221,597.549,145.223z"/>
	<path d="M519.625,173.597c0.369-0.416,0.684-0.903,1.117-1.237c2.262-1.745,4.494-3.54,6.847-5.154
		c4.555-3.124,9.187-6.136,13.779-9.206c0.354-0.237,0.695-0.526,0.959-0.857c0.545-0.682,0.442-1.253-0.249-1.843
		c-0.618,0.255-1.214,0.566-1.847,0.746c-0.981,0.279-1.707-0.117-2.037-1.084c-0.373-1.092-0.439-2.206-0.076-3.324
		c0.458-1.413,1.441-2.258,2.588-2.216c1.966,0.071,3.258,0.943,3.636,2.477c0.362,1.467,0.09,2.91-0.202,4.35
		c-0.324,1.599-1.053,2.909-2.318,4.022c-6.384,5.615-13.35,10.272-21.349,13.28c-0.22,0.083-0.444,0.151-0.667,0.226
		C519.746,173.717,519.685,173.657,519.625,173.597z"/>
	<path fill="#FFFFFF" d="M550,118.609c3.625,2.655,6.559,5.589,7.26,10.078c0.167,1.068,0.072,2.206-0.089,3.284
		c-0.069,0.463-0.542,0.949-0.954,1.264c-1.227,0.935-2.701,1.213-4.2,1.304c-2.081,0.126-4.109-0.26-6.124-0.738
		c-0.521-0.124-0.521-0.466-0.516-0.869c0.044-3.54,0.937-6.88,2.419-10.068C548.452,121.455,549.223,120.1,550,118.609z"/>
	<path fill="#FFFFFF" d="M531.27,148.629c-0.274,0.983-0.525,1.973-0.833,2.945c-0.133,0.418-0.454,0.634-0.95,0.581
		c-2.682-0.286-5.333-0.711-7.795-1.876c-0.752-0.356-1.481-0.807-2.127-1.33c-1.597-1.294-2.169-3.004-1.532-4.958
		c0.351-1.078,0.979-2.069,1.521-3.078c0.084-0.157,0.389-0.304,0.573-0.284c2.71,0.294,5.362,0.813,7.759,2.208
		C530.085,144.117,531.033,146.103,531.27,148.629z"/>
	<path d="M509.736,118.719c0.013-3.36,2.685-5.976,6.085-5.957c3.291,0.019,5.904,2.72,5.885,6.085
		c-0.018,3.29-2.72,5.904-6.085,5.885C512.358,124.714,509.724,122.023,509.736,118.719z"/>
	<path fill="#FFFFFF" d="M615.107,158.359c0.527,0,0.997,0,1.51,0c-0.252,0.535-0.499,1.058-0.749,1.589
		C615.629,159.45,615.39,158.951,615.107,158.359z"/>
</g>
<g>
	<path d="M89.961,141.679h-0.703c-5.039,0-8.555-2.461-10.547-7.383c0,4.024-1.172,8.866-3.516,14.531
		c-1.797,4.336-3.418,7.46-4.863,9.375l-10.195,2.988c9.844-11.759,14.766-25.585,14.766-41.484c0-3.398-0.157-6.504-0.469-9.316
		l5.332-3.75c-0.43,12.773,0.253,20.489,2.051,23.145c2.382,3.478,4.863,5.215,7.441,5.215h0.703V141.679z"/>
	<path d="M112.11,119.53c0,7.617-2.52,13.556-7.559,17.813c-3.438,2.892-8.086,4.336-13.945,4.336h-1.758v-6.68h2.871
		c11.289,0,16.934-3.378,16.934-10.137c0-3.124-0.84-7.519-2.52-13.184c-1.875-6.328-3.809-10.137-5.801-11.426
		c-1.954,1.212-3.516,3.653-4.688,7.324c-0.977,3.047-1.465,5.997-1.465,8.848c0,6.797,1.406,10.195,4.219,10.195
		c1.21,0,3.144-2.051,5.801-6.152l3.926,2.52c-3.946,3.281-7.441,4.922-10.488,4.922c-2.54,0-4.532-1.19-5.977-3.574
		c-1.25-2.03-1.875-4.395-1.875-7.09c0-4.062,0.996-8.124,2.988-12.188c2.187-4.453,4.707-6.68,7.559-6.68
		c2.656,0,5.175,1.758,7.559,5.273C110.704,107.793,112.11,113.085,112.11,119.53z M102.911,85.019c0,2.891-1.426,4.336-4.277,4.336
		c-1.211,0-2.237-0.419-3.076-1.26c-0.84-0.839-1.26-1.865-1.26-3.076c0-2.851,1.445-4.277,4.336-4.277
		c1.172,0,2.177,0.42,3.018,1.26C102.49,82.841,102.911,83.847,102.911,85.019z"/>
	<path d="M137.436,141.679h-0.703c-4.415,0-8.379-2.227-11.895-6.68c-2.032-2.578-3.438-6.19-4.219-10.84
		c-0.43-2.616-0.82-7.734-1.172-15.352l-1.641-36.328l6.504,5.801l0.645,37.852c0,1.954,0,4.415,0,7.383
		c0.078,2.97,0.703,5.273,1.875,6.914c2.187,3.047,5.488,4.57,9.902,4.57h0.703V141.679z"/>
	<path d="M201.362,141.679H200.6c-2.735,0-5.411-0.82-8.027-2.461c-2.852-1.758-4.57-3.905-5.156-6.445
		c-0.391,1.758-1.153,3.478-2.285,5.156c-1.68,2.501-3.731,3.75-6.152,3.75c-2.305,0-4.405-0.82-6.299-2.461
		c-1.895-1.641-3.135-3.593-3.721-5.859c-0.352,1.954-1.23,3.79-2.637,5.508c-1.758,2.149-3.75,3.223-5.977,3.223
		c-5.313,0-8.906-3.281-10.781-9.844c-1.25,2.578-2.988,4.746-5.215,6.504c-2.461,1.954-5,2.93-7.617,2.93h-0.703v-6.68h0.703
		c2.695,0,5.283-1.113,7.764-3.34c2.48-2.227,3.721-4.667,3.721-7.324c0-9.179-0.333-15.8-0.996-19.863l5.742,4.57
		c0,1.837-0.098,4.591-0.293,8.262c-0.196,3.673-0.293,6.427-0.293,8.262c0,4.219,0.293,6.817,0.879,7.793
		c1.21,1.992,3.164,2.988,5.859,2.988c2.578,0,4.589-1.055,6.035-3.164c1.289-1.835,1.934-4.102,1.934-6.797
		c0-1.366-0.606-8.632-1.816-21.797l5.508,4.453v18.398c0,5.665,1.875,8.496,5.625,8.496c5.977,0,8.965-3.281,8.965-9.844
		c0-2.813-0.586-10.02-1.758-21.621l5.918,4.922c0,7.617,0.097,12.677,0.293,15.176c0.273,3.516,0.938,5.899,1.992,7.148
		c1.875,2.188,4.805,3.281,8.789,3.281h0.762V141.679z"/>
	<path d="M238.745,131.718c-1.25,6.642-4.551,9.961-9.902,9.961c-3.243,0-6.27-1.465-9.082-4.395
		c-1.289-1.366-2.871-3.671-4.746-6.914c-0.117,3.164-1.797,5.88-5.039,8.145c-2.969,2.109-6.094,3.164-9.375,3.164h-0.703v-6.68
		h0.703c2.93,0,5.527-0.604,7.793-1.816c2.773-1.444,4.16-3.516,4.16-6.211c0-0.507-0.04-0.976-0.117-1.406
		c-0.547-3.085-0.82-5.839-0.82-8.262c0-7.343,2.324-11.854,6.973-13.535c0.664-0.234,1.386-0.352,2.168-0.352
		c3.554,0,6.933,1.739,10.137,5.215c5.351,5.782,8.027,12.677,8.027,20.684C238.92,130.293,238.862,131.094,238.745,131.718z
		 M226.44,110.214c-2.305-2.733-4.356-4.102-6.152-4.102c-2.813,0-4.219,2.52-4.219,7.559c0,3.243,0.82,6.954,2.461,11.133
		c3.593,9.181,7.383,13.77,11.367,13.77c0.312,0,0.683-0.059,1.113-0.176c2.031-0.546,3.047-3.047,3.047-7.5
		C234.057,123.086,231.518,116.19,226.44,110.214z"/>
	<path d="M288.279,132.011c0,3.009-1.016,5.098-3.047,6.27c-3.946,2.267-8.399,3.398-13.359,3.398
		c-7.657,0-11.484-2.421-11.484-7.266c0-3.516,1.289-7.559,3.867-12.129c2.07-3.671,4.375-6.855,6.914-9.551
		c-1.289-0.78-3.243-1.737-5.859-2.871l7.734-1.934c0.429,0.313,1.035,0.802,1.816,1.465c0.938-0.741,2.304-1.699,4.102-2.871
		l5.156,4.512c-1.016,0.352-2.695,1.172-5.039,2.461c2.265,2.188,4.296,4.962,6.094,8.32
		C287.244,125.683,288.279,129.081,288.279,132.011z M285.35,131.19c0-1.406-0.899-3.691-2.695-6.855
		c-2.109-3.71-4.493-6.483-7.148-8.32c-1.641,1.055-3.965,3.398-6.973,7.031c-3.321,4.024-5.372,7.228-6.152,9.609
		c0.586,1.563,3.554,2.344,8.906,2.344c3.671,0,6.992-0.487,9.961-1.465C283.63,132.754,284.998,131.973,285.35,131.19z"/>
	<path d="M324.152,124.335c0,1.095-0.332,2.871-0.996,5.332s-1.289,4.083-1.875,4.863c-1.446,1.915-4.434,3.966-8.965,6.152
		c-4.805,2.304-8.906,3.457-12.305,3.457c-4.219,0-6.485-1.23-6.797-3.691l0.41-6.855c1.718,2.578,4.453,3.867,8.203,3.867
		c3.71,0,7.773-1.055,12.188-3.164c4.843-2.304,7.266-4.765,7.266-7.383c0-3.085-1.719-7.421-5.156-13.008
		c-2.813-4.57-5.391-6.855-7.734-6.855c-0.703,0-1.465,0.176-2.285,0.527c2.421-3.633,4.726-5.449,6.914-5.449
		c2.968,0,5.684,3.047,8.145,9.141C323.156,116.348,324.152,120.702,324.152,124.335z"/>
	<path d="M346.139,105.468c0.156,16.603-0.41,27.794-1.699,33.574c-1.641,7.383-4.219,13.397-7.734,18.047l-10.195,2.988
		c1.68-1.992,3.32-4.2,4.922-6.621c6.563-10.001,9.844-21.621,9.844-34.863c0-3.398-0.156-6.504-0.469-9.316L346.139,105.468z
		 M346.021,93.515c0,2.891-1.426,4.336-4.277,4.336c-1.211,0-2.236-0.419-3.076-1.26c-0.84-0.839-1.26-1.865-1.26-3.076
		c0-2.851,1.445-4.277,4.336-4.277c1.172,0,2.178,0.42,3.018,1.26C345.602,91.337,346.021,92.343,346.021,93.515z"/>
	<path d="M371.523,141.679h-0.703c-4.415,0-8.379-2.227-11.895-6.68c-2.032-2.578-3.438-6.19-4.219-10.84
		c-0.431-2.616-0.82-7.734-1.172-15.352l-1.641-36.328l6.504,5.801l0.645,37.852c0,1.954,0,4.415,0,7.383
		c0.077,2.97,0.703,5.273,1.875,6.914c2.187,3.047,5.487,4.57,9.902,4.57h0.703V141.679z"/>
	<path d="M422.793,128.261c0,2.97-0.859,5.859-2.578,8.672c-1.955,3.164-4.336,4.746-7.148,4.746c-2.307,0-4.404-0.82-6.299-2.461
		c-1.896-1.641-3.135-3.593-3.721-5.859c-0.352,1.954-1.23,3.79-2.637,5.508c-1.758,2.149-3.75,3.223-5.977,3.223
		c-5.313,0-8.906-3.281-10.781-9.844c-1.252,2.578-2.988,4.746-5.215,6.504c-2.461,1.954-5.001,2.93-7.617,2.93h-0.703v-6.68h0.703
		c2.695,0,5.281-1.113,7.764-3.34c2.48-2.227,3.721-4.667,3.721-7.324c0-9.179-0.332-15.8-0.996-19.863l5.742,4.57
		c0,1.837-0.098,4.591-0.293,8.262c-0.197,3.673-0.293,6.427-0.293,8.262c0,4.219,0.293,6.817,0.879,7.793
		c1.209,1.992,3.164,2.988,5.859,2.988c2.578,0,4.629-1.249,6.152-3.75c1.209-1.992,1.816-4.062,1.816-6.211
		c0-1.366-0.607-8.672-1.816-21.914l5.508,4.453v18.516c0,5.665,1.875,8.496,5.625,8.496c3.008,0,5.508-0.879,7.5-2.637
		c1.561-1.406,2.344-2.754,2.344-4.043c0-2.93-1.504-7.421-4.512-13.477c-2.344-4.726-4.533-8.496-6.563-11.309l9.434,5.332
		C421.424,116.211,422.793,122.363,422.793,128.261z M397.129,93.222c0,1.172-0.42,2.188-1.26,3.047
		c-0.842,0.86-1.846,1.289-3.018,1.289c-1.211,0-2.236-0.419-3.076-1.26c-0.842-0.839-1.26-1.865-1.26-3.076
		c0-2.851,1.443-4.277,4.336-4.277c1.172,0,2.176,0.42,3.018,1.26C396.709,91.044,397.129,92.05,397.129,93.222z M403.164,81.093
		c0,1.172-0.42,2.178-1.26,3.018c-0.842,0.84-1.846,1.26-3.018,1.26c-2.893,0-4.336-1.425-4.336-4.277
		c0-1.21,0.418-2.236,1.26-3.076c0.84-0.839,1.865-1.26,3.076-1.26c1.172,0,2.176,0.43,3.018,1.289
		C402.744,78.906,403.164,79.921,403.164,81.093z M409.199,93.222c0,1.172-0.42,2.188-1.26,3.047
		c-0.842,0.86-1.846,1.289-3.018,1.289c-1.211,0-2.236-0.419-3.076-1.26c-0.842-0.839-1.26-1.865-1.26-3.076
		c0-2.851,1.443-4.277,4.336-4.277c1.172,0,2.176,0.42,3.018,1.26C408.779,91.044,409.199,92.05,409.199,93.222z"/>
</g>
</svg>
