<svg xmlns="http://www.w3.org/2000/svg" viewBox="0 0 418.15 295.23"><title>first_10</title><g id="Layer_2" data-name="Layer 2"><g id="Layer_1-2" data-name="Layer 1"><path d="M345.8,72.45a63.32,63.32,0,0,0-12.59-29.39,62.43,62.43,0,0,0-8.91-9.26l.12-.1L294.88,10.28A43.61,43.61,0,0,0,266.84,0c-21.77,0-39.73,16.23-43.93,37.71a24.15,24.15,0,0,0-42.15,0C176.5,16.23,158.6,0,136.83,0a43.61,43.61,0,0,0-28,10.28L79.25,33.7l.12.1a63.25,63.25,0,0,0,41,111.44A63.34,63.34,0,0,0,183,91.32l.06-1.65.68.73a26,26,0,0,0,36.12-1.66l.45-.71.21,3.29A63.33,63.33,0,0,0,345.8,72.45Zm-271.62.17a38.56,38.56,0,0,1,51.65-32.48,48.83,48.83,0,0,0-6.27-.45A47.74,47.74,0,0,0,74.18,72.62Zm5.06,11.8a38.86,38.86,0,1,1,38.86,38.86A38.91,38.91,0,0,1,79.24,84.42ZM178.85,97.7a62.76,62.76,0,0,1-78.23,41.91c2.27.2,4.55.35,6.87.35A79.17,79.17,0,0,0,180.3,91.88C179.91,93.84,179.42,95.78,178.85,97.7Zm22.51-17.79a10.28,10.28,0,1,1,10.27-10.27A10.27,10.27,0,0,1,201.36,79.91ZM241,63a38.56,38.56,0,0,1,49.47-22.9,48.7,48.7,0,0,0-6.27-.45,47.74,47.74,0,0,0-45.38,32.93A38.49,38.49,0,0,1,241,63Zm4.55,21.38a38.86,38.86,0,1,1,38.86,38.86A38.91,38.91,0,0,1,245.56,84.42ZM342.15,97.7a62.76,62.76,0,0,1-78.23,41.91c2.27.2,4.56.35,6.87.35A79.17,79.17,0,0,0,343.6,91.88C343.21,93.84,342.72,95.78,342.15,97.7Z" style="fill:#fff"/><path d="M26.74,201.29a1.83,1.83,0,0,1,.59-1.41,2.28,2.28,0,0,1,3,0,2,2,0,0,1,0,2.8,2.12,2.12,0,0,1-1.49.54,2.09,2.09,0,0,1-1.48-.54A1.83,1.83,0,0,1,26.74,201.29Z" style="fill:#fff"/><path d="M48.49,200.87a1.64,1.64,0,0,1-1.64,1.65h0a2.82,2.82,0,0,1-2.17-1,2.57,2.57,0,0,1-1.93.72q-1.11,0-5.82-2l.59,9.38-3.14.56q-.46-9.28-.49-10.29A3.13,3.13,0,0,1,34,199a3.65,3.65,0,0,1,.5-1.05,2.56,2.56,0,0,1,2.48-1,8.43,8.43,0,0,1,1.1-2.18,4.28,4.28,0,0,1,3.49-2.18,3.87,3.87,0,0,1,3.32,1.72,6.26,6.26,0,0,1,.73,1.49,7.69,7.69,0,0,1,.29,1.34.41.41,0,0,1,0,.11c0,.11,0,.22,0,.33a3.46,3.46,0,0,0,.3,1.18c.18.37.38.55.62.55a1.64,1.64,0,0,1,1.16.49A1.59,1.59,0,0,1,48.49,200.87Zm-5-1.76a6.28,6.28,0,0,0-.21-1.46c-.26-1-.68-1.58-1.26-1.75A1.51,1.51,0,0,0,41,196a2.07,2.07,0,0,0-.73.62,4.1,4.1,0,0,0-.57,1.07Z" style="fill:#fff"/><path d="M44.85,200.8a1.64,1.64,0,0,1,1-1.53,1.73,1.73,0,0,1,.64-.12h1.66c.32,0,.66,0,1,0s.73-.08,1.08-.14a4.85,4.85,0,0,0,.95-.26,1.32,1.32,0,0,0,.62-.41,1,1,0,0,0,.11-.48,3.35,3.35,0,0,0-.21-1.06,11.74,11.74,0,0,0-.51-1.25q-.28-.64-.6-1.23c-.2-.38-.37-.71-.49-1l3-1.47a11.14,11.14,0,0,1,.63,1.33c.2.52.38,1,.54,1.58s.29,1.07.39,1.59a8,8,0,0,1,.14,1.35,4.88,4.88,0,0,1-.37,1.93,4.7,4.7,0,0,1-1.2,1.62,5,5,0,0,1-1.83.95,5.72,5.72,0,0,1-.78.13c-.32,0-.63.06-1,.08l-.91,0H46.49a1.74,1.74,0,0,1-.64-.13,1.45,1.45,0,0,1-.52-.35,1.49,1.49,0,0,1-.35-.53A1.53,1.53,0,0,1,44.85,200.8Zm10.09,5.08-2,2-2-2-2,2-2-2,2-2,2,2,2-2Z" style="fill:#fff"/><path d="M61.72,202.45a7.15,7.15,0,0,1-2.68-.53,6.71,6.71,0,0,1-2.42-1.68l1.88-2.66a6,6,0,0,0,1,.77,4.87,4.87,0,0,0,.91.46,3.73,3.73,0,0,0,.83.23,5,5,0,0,0,.74.07h.35l.4,0,.39-.07a2.75,2.75,0,0,0,.34-.1,5.07,5.07,0,0,0,.86-.46c-.27-.64-.56-1.31-.86-2s-.63-1.39-.94-2.09l-.93-2.08c-.3-.69-.59-1.35-.85-2l3-1.27.93,2.25c.3.74.66,1.61,1.08,2.62s.89,2.16,1.44,3.44c.12.31.24.58.34.8a2.15,2.15,0,0,0,.37.58,1.27,1.27,0,0,0,.51.34,2.37,2.37,0,0,0,.77.11,1.77,1.77,0,0,1,.64.12,1.7,1.7,0,0,1,.52.35,1.77,1.77,0,0,1,.36.53,1.58,1.58,0,0,1,.14.65,1.53,1.53,0,0,1-.14.64,1.66,1.66,0,0,1-.36.53,1.54,1.54,0,0,1-.52.35,1.78,1.78,0,0,1-.64.13,6.19,6.19,0,0,1-1.12-.09,4.08,4.08,0,0,1-.87-.23,3.39,3.39,0,0,1-.68-.37,4.88,4.88,0,0,1-.55-.47l-.6.36c-.21.11-.45.22-.72.34a7,7,0,0,1-1.35.35A11.21,11.21,0,0,1,61.72,202.45Z" style="fill:#fff"/><path d="M67.5,200.8a1.61,1.61,0,0,1,1.65-1.65h.79a13.68,13.68,0,0,0,1.45-.07,4.68,4.68,0,0,0,1.22-.26,2.14,2.14,0,0,0,.86-.58,1.46,1.46,0,0,0,.35-1c0-.15,0-.28,0-.38s0-.22-.06-.37l-.15-.56c-.07-.23-.16-.56-.28-1l3-.85a8,8,0,0,1,.36,1.32,14.93,14.93,0,0,1,.25,1.81c0,.21,0,.42.08.65a2.39,2.39,0,0,0,.17.61,1.33,1.33,0,0,0,.33.47.8.8,0,0,0,.54.18,1.75,1.75,0,0,1,.65.12,1.7,1.7,0,0,1,.52.35,1.77,1.77,0,0,1,.36.53,1.57,1.57,0,0,1,.13.65,1.53,1.53,0,0,1-.13.64,1.66,1.66,0,0,1-.36.53,1.58,1.58,0,0,1-.53.35,1.69,1.69,0,0,1-.63.13,4.44,4.44,0,0,1-1.72-.31,4.16,4.16,0,0,1-1.22-.8,4.51,4.51,0,0,1-1.08.52,9.87,9.87,0,0,1-1.3.34,12.79,12.79,0,0,1-1.42.19q-.73.06-1.44.06h-.79a1.75,1.75,0,0,1-.65-.13A1.58,1.58,0,0,1,68,202a1.63,1.63,0,0,1-.35-.53A1.69,1.69,0,0,1,67.5,200.8Zm10,5.39-2,2-2-2-2,2-2-2,2-2,2,2,2-2Z" style="fill:#fff"/><path d="M76.51,200.8a1.48,1.48,0,0,1,.14-.62,1.71,1.71,0,0,1,.37-.52,2.09,2.09,0,0,1,.55-.36,2,2,0,0,1,.69-.15,2.9,2.9,0,0,0,1-.18,2.34,2.34,0,0,0,.91-.71,5.8,5.8,0,0,0,.8-1.47,17.2,17.2,0,0,0,.72-2.48l2.78.39c0-.08,0,0,0,.14s-.1.42-.16.73-.11.67-.16,1.07a7.42,7.42,0,0,0-.08,1.13,3.51,3.51,0,0,0,.13.92.62.62,0,0,0,.42.47.76.76,0,0,0,.63-.13,2.31,2.31,0,0,0,.57-.62,5.5,5.5,0,0,0,.5-.94c.15-.35.29-.72.42-1.1s.23-.74.32-1.1.16-.69.21-1l2.76.39c0,.18,0,.41-.08.7s-.06.59-.08.92,0,.66,0,1a3.94,3.94,0,0,0,.11.89,1.58,1.58,0,0,0,.33.66.74.74,0,0,0,.6.26.88.88,0,0,0,.6-.23,2.28,2.28,0,0,0,.42-.6,4.46,4.46,0,0,0,.28-.85,9.39,9.39,0,0,0,.2-1.92c0-.31,0-.58,0-.82l2.82-.39.35,2.94a2.08,2.08,0,0,0,.27.83,2.06,2.06,0,0,0,.49.59,1.91,1.91,0,0,0,.59.36,1.69,1.69,0,0,0,.6.12h.12a2,2,0,0,1,.71.12,1.68,1.68,0,0,1,.54.35,1.61,1.61,0,0,1,.36.53,1.75,1.75,0,0,1,.12.65,1.69,1.69,0,0,1-.12.64,1.51,1.51,0,0,1-.36.53,1.88,1.88,0,0,1-.59.35,2.36,2.36,0,0,1-.78.13,5.07,5.07,0,0,1-1.91-.36,3.74,3.74,0,0,1-1.56-1.2c0,.06-.08.1-.12.15l-.12.12h0a4.36,4.36,0,0,1-1.3.95,3.65,3.65,0,0,1-1.58.35,3.83,3.83,0,0,1-3.08-1.52,5.29,5.29,0,0,1-1.42,1.12,3.67,3.67,0,0,1-3.39,0A3.57,3.57,0,0,1,81.72,201a3.06,3.06,0,0,1-1.39,1.12,5.6,5.6,0,0,1-2,.34,2,2,0,0,1-.72-.13A2,2,0,0,1,77,202a1.66,1.66,0,0,1-.36-.53A1.7,1.7,0,0,1,76.51,200.8Zm16.15-10.74-2,2-2-2-2,2-2-2,2-2,2,2,2-2Zm-5.85-3,1.86-1.85L90.54,187l-1.86,1.86Z" style="fill:#fff"/><path d="M95.9,200.81a1.59,1.59,0,0,1,.13-.66,1.47,1.47,0,0,1,.36-.53,1.73,1.73,0,0,1,.55-.35,2,2,0,0,1,.71-.12h1.1l1.24,0a11,11,0,0,0,1.31-.1,6,6,0,0,0,1.14-.27,1.45,1.45,0,0,0,.73-.49,1.94,1.94,0,0,0,.32-1.09,2.15,2.15,0,0,0,0-.43,3.82,3.82,0,0,0-.09-.44,2.56,2.56,0,0,0-.31-.63,6.7,6.7,0,0,0-.6-.82c-.24-.29-.52-.6-.83-.93s-.65-.67-1-1-.73-.68-1.12-1-.78-.68-1.17-1l.33-2.83,8.76-3.91,1.26,2.8-6.92,3.21a10.6,10.6,0,0,1,1,.85,13.31,13.31,0,0,1,1,1.07,12.89,12.89,0,0,1,1,1.22,12.23,12.23,0,0,1,.79,1.33,8.18,8.18,0,0,1,.52,1.37,4.5,4.5,0,0,1,.18,1.34,5.26,5.26,0,0,1-.2,1.46,6.66,6.66,0,0,1-.49,1.2,4.76,4.76,0,0,1-3.58,2.37h0a3.69,3.69,0,0,1-.53.07l-.5,0H97.65a2.08,2.08,0,0,1-.71-.13,1.57,1.57,0,0,1-.55-.35,1.73,1.73,0,0,1-.36-.52A1.53,1.53,0,0,1,95.9,200.81Z" style="fill:#fff"/><path d="M142.17,202.45a6.71,6.71,0,0,1-2.91-.57,4.35,4.35,0,0,1-1.95-1.88,9.34,9.34,0,0,1-3.58,1.87,18,18,0,0,1-4.91.61,24.09,24.09,0,0,1-3.15-.22,14.8,14.8,0,0,1-2.71-.61,9.06,9.06,0,0,1-2.14-1,4.88,4.88,0,0,1-1.44-1.46,4.41,4.41,0,0,1-.47-1.28,6.7,6.7,0,0,1-.09-1.58,8.93,8.93,0,0,1,.33-1.8,10.67,10.67,0,0,1,.8-2l2.48,1.44c-.14.27-.27.54-.38.79a4.56,4.56,0,0,0-.28.81,3.64,3.64,0,0,0-.08.89,3.78,3.78,0,0,0,.16,1.05,2,2,0,0,0,.93.76,7.37,7.37,0,0,0,1.62.51,17.28,17.28,0,0,0,2.09.29c.76.07,1.53.1,2.33.1s1.42,0,2.07-.08a14.93,14.93,0,0,0,1.81-.25,9.31,9.31,0,0,0,1.51-.45,4.41,4.41,0,0,0,1.15-.67,3.56,3.56,0,0,0,.72-.79,4.85,4.85,0,0,0,.48-.9,7.66,7.66,0,0,0,.33-1c.09-.35.17-.7.25-1.06l2.93.74-.43,2.21a1.65,1.65,0,0,0,.05.89,1.61,1.61,0,0,0,.48.71,2.71,2.71,0,0,0,.88.47,4.06,4.06,0,0,0,1.21.17,1.69,1.69,0,0,1,.64.12,1.63,1.63,0,0,1,.53.35,1.77,1.77,0,0,1,.36.53,1.75,1.75,0,0,1,.13.65,1.7,1.7,0,0,1-.13.64,1.66,1.66,0,0,1-.36.53,1.49,1.49,0,0,1-.53.35,1.7,1.7,0,0,1-.64.13Zm-8.54-10.9-2,2-2-2-2,2-2-2,2-2,2,2,2-2Z" style="fill:#fff"/><path d="M156.19,200.8a1.56,1.56,0,0,1-.48,1.15,1.69,1.69,0,0,1-1.17.5h0a2.73,2.73,0,0,1-2.13-.9,3,3,0,0,1-2.18.85,10.8,10.8,0,0,1-4.46-1.54,2.25,2.25,0,0,1-.72.8,3.75,3.75,0,0,1-1.07.56,5.69,5.69,0,0,1-1.71.25,1.65,1.65,0,1,1,0-3.29,2.79,2.79,0,0,0,2.27-1.29,9.08,9.08,0,0,0,.73-1.23c.08-.15.18-.36.32-.62l.14-.31.15-.3q1.41-2.79,3.51-2.79a4,4,0,0,1,2.72,1,4.54,4.54,0,0,1,1.51,3.18v.1a.59.59,0,0,1,0,.14,5.44,5.44,0,0,0,.15,1,2.62,2.62,0,0,0,.27.7.59.59,0,0,0,.48.33,1.66,1.66,0,0,1,1.65,1.65Zm-5.27-1.34q.33-.08.39-.87a2.42,2.42,0,0,0-.3-1.46,2.9,2.9,0,0,0-1-1q-.66-.43-1-.3c-.3.12-.75.9-1.36,2.32C149.43,199.12,150.51,199.57,150.92,199.46Z" style="fill:#fff"/><path d="M153,200.8a1.75,1.75,0,0,1,.13-.65,1.77,1.77,0,0,1,.36-.53,1.75,1.75,0,0,1,.53-.35,1.78,1.78,0,0,1,.65-.12h2a21.19,21.19,0,0,0,3.1-.21,20.34,20.34,0,0,0,2.65-.54,22,22,0,0,0,2.33-.8c.73-.3,1.45-.62,2.16-.95a11.38,11.38,0,0,1-1.42-.49L164,195.6a13.18,13.18,0,0,0-1.43-.46,5.26,5.26,0,0,0-1.4-.2,1.91,1.91,0,0,0-.94.26,5.28,5.28,0,0,0-.84.6,5.4,5.4,0,0,0-.63.65,4.3,4.3,0,0,0-.32.43l-2.41-1.55A10.77,10.77,0,0,1,157,194a7.43,7.43,0,0,1,1.2-1.18,5.68,5.68,0,0,1,1.4-.83,4.15,4.15,0,0,1,1.6-.32,5.73,5.73,0,0,1,1.23.14,10.47,10.47,0,0,1,1.22.33c.41.14.81.3,1.21.48l1.18.54,1.12.51c.37.17.76.33,1.15.47a10.19,10.19,0,0,0,1.23.35,7.34,7.34,0,0,0,1.35.15l-.26,3.2-1.48.71c-.61.29-1.21.59-1.81.9s-1.21.61-1.83.9-1.26.56-1.92.83a18.56,18.56,0,0,1-2.07.67,19.09,19.09,0,0,1-2.3.46,17.51,17.51,0,0,1-2.58.18h-2a1.79,1.79,0,0,1-.65-.13,2,2,0,0,1-.53-.35,1.66,1.66,0,0,1-.36-.53A1.7,1.7,0,0,1,153,200.8Z" style="fill:#fff"/><path d="M177.47,194.8c.27.75.5,1.48.69,2.2.09.31.17.64.25,1s.16.68.23,1,.12.66.16,1a7,7,0,0,1-.2,2.81,8.46,8.46,0,0,1-.76,1.82,10.66,10.66,0,0,1-1.15,1.68,12.47,12.47,0,0,1-1.48,1.52,16.55,16.55,0,0,1-1.74,1.32,18.29,18.29,0,0,1-1.92,1.1l-1.9-2.64c.5-.25,1-.53,1.52-.85s1-.66,1.47-1a14.46,14.46,0,0,0,1.31-1.14,9.88,9.88,0,0,0,1.07-1.21,5.8,5.8,0,0,0,.71-1.24,3.32,3.32,0,0,0,.26-1.24,4.19,4.19,0,0,0-.12-.95c-.08-.34-.19-.71-.32-1.1s-.3-.81-.49-1.25-.39-.92-.6-1.42Zm-1.79-6.35,2.32,2.32-2.32,2.31-2.32-2.31Z" style="fill:#fff"/><path d="M197.47,209.25a19.76,19.76,0,0,1-2-.11,10.09,10.09,0,0,1-2-.41,7.12,7.12,0,0,1-1.78-.85,4.87,4.87,0,0,1-1.39-1.43,7.1,7.1,0,0,1-.82-1.86,7.94,7.94,0,0,1-.29-2.26,16.45,16.45,0,0,1,.08-1.75,15.07,15.07,0,0,1,.24-1.64c.11-.54.26-1.09.43-1.65s.39-1.15.65-1.77l2.68,1.11c-.21.5-.38,1-.52,1.36s-.26.77-.36,1.1-.17.64-.23.91-.1.55-.13.8,0,.51-.05.75,0,.51,0,.78a3.55,3.55,0,0,0,.25,1.36,3.08,3.08,0,0,0,.68,1,4,4,0,0,0,1,.65,5.86,5.86,0,0,0,1.16.39,9.85,9.85,0,0,0,1.23.19c.41,0,.8.05,1.17.05.18,0,.45,0,.8,0s.75-.06,1.17-.12.85-.14,1.29-.24a6.62,6.62,0,0,0,1.21-.36,3.18,3.18,0,0,0,.88-.5.85.85,0,0,0,.35-.67s-.06-.08-.17-.15l-.47-.24-.69-.31c-.26-.12-.54-.23-.84-.35h0a9,9,0,0,0-1-.27c-.37-.07-.73-.14-1.08-.19l-.21,0-.27-.05-.27,0-.21-.05.43-3.17h8.37a1.68,1.68,0,0,1,.63.12,1.75,1.75,0,0,1,.53.35,1.77,1.77,0,0,1,.36.53,1.58,1.58,0,0,1,.14.65,1.53,1.53,0,0,1-.14.64,1.66,1.66,0,0,1-.36.53,1.58,1.58,0,0,1-.53.35,1.69,1.69,0,0,1-.63.13h-1.16a3.84,3.84,0,0,1,.32.83,5,5,0,0,1,.11.73,3.88,3.88,0,0,1-.5,1.75,5.25,5.25,0,0,1-1.14,1.35,7.1,7.1,0,0,1-1.59,1,12.64,12.64,0,0,1-3.64,1A12.81,12.81,0,0,1,197.47,209.25Z" style="fill:#fff"/><path d="M205.13,200.8a1.64,1.64,0,0,1,.48-1.17,1.7,1.7,0,0,1,.52-.35,1.57,1.57,0,0,1,.65-.13h.75a.93.93,0,0,0,.66-.08,1.54,1.54,0,0,0,.52-.47,2.81,2.81,0,0,0,.47-1.51c0-.59,0-1.34,0-2.26s0-2-.07-3.22,0-2.14,0-3.07-.06-1.84-.11-2.71l3.24-.59c.06.44.1.93.13,1.44s.06,1.06.08,1.63,0,1.14,0,1.74,0,1.2,0,1.8c0,1,0,1.91,0,2.87,0,.48,0,1,0,1.51s0,1,0,1.53c0,.12,0,.26,0,.44a1.39,1.39,0,0,0,.19.5h0a1.07,1.07,0,0,0,.37.32,1.69,1.69,0,0,0,.74.13,1.53,1.53,0,0,1,.64.13,1.75,1.75,0,0,1,.53.35,1.61,1.61,0,0,1,.36.52,1.58,1.58,0,0,1,.14.65,1.53,1.53,0,0,1-.14.64,1.66,1.66,0,0,1-.36.53,1.58,1.58,0,0,1-.53.35,1.7,1.7,0,0,1-.64.13,3.77,3.77,0,0,1-1.65-.32,4.59,4.59,0,0,1-1.22-.83,4.49,4.49,0,0,1-2.81,1.15h-1.23a1.75,1.75,0,0,1-.65-.13,1.54,1.54,0,0,1-.52-.35,1.63,1.63,0,0,1-.35-.53A1.53,1.53,0,0,1,205.13,200.8Z" style="fill:#fff"/><path d="M212,200.8a1.75,1.75,0,0,1,.13-.65,1.58,1.58,0,0,1,.35-.53,1.63,1.63,0,0,1,.53-.35,1.69,1.69,0,0,1,.64-.12h.8a13.36,13.36,0,0,0,1.44-.07,4.85,4.85,0,0,0,1.23-.26,2.22,2.22,0,0,0,.86-.58,1.51,1.51,0,0,0,.35-1c0-.15,0-.28,0-.38a2,2,0,0,0,0-.37c0-.14-.09-.33-.16-.56s-.15-.56-.27-1l3-.85a7,7,0,0,1,.37,1.32,17.21,17.21,0,0,1,.25,1.81c0,.21,0,.42.07.65a2.89,2.89,0,0,0,.18.61,1.45,1.45,0,0,0,.32.47.81.81,0,0,0,.55.18,1.69,1.69,0,0,1,.64.12,1.63,1.63,0,0,1,.53.35,1.77,1.77,0,0,1,.36.53,1.75,1.75,0,0,1,.13.65,1.7,1.7,0,0,1-.13.64,1.66,1.66,0,0,1-.36.53,1.69,1.69,0,0,1-1.16.48,4.44,4.44,0,0,1-1.72-.31,4.22,4.22,0,0,1-1.23-.8,4.51,4.51,0,0,1-1.08.52,9.72,9.72,0,0,1-1.29.34,13.11,13.11,0,0,1-1.42.19q-.73.06-1.44.06h-.8a1.7,1.7,0,0,1-.64-.13,1.58,1.58,0,0,1-.88-.88A1.7,1.7,0,0,1,212,200.8Zm10,5.39-2,2-2-2-2,2-2-2,2-2,2,2,2-2Z" style="fill:#fff"/><path d="M221,200.8a1.57,1.57,0,0,1,.13-.65,1.77,1.77,0,0,1,.36-.53,1.63,1.63,0,0,1,.53-.35,1.75,1.75,0,0,1,.65-.12h2a21.33,21.33,0,0,0,3.11-.21,19.84,19.84,0,0,0,2.64-.54,22.14,22.14,0,0,0,2.34-.8c.73-.3,1.45-.62,2.16-.95a11.38,11.38,0,0,1-1.42-.49l-1.43-.56a13.92,13.92,0,0,0-1.43-.46,5.28,5.28,0,0,0-1.41-.2,1.93,1.93,0,0,0-.94.26,5.68,5.68,0,0,0-.83.6,5.4,5.4,0,0,0-.63.65,4.3,4.3,0,0,0-.32.43l-2.41-1.55A9.83,9.83,0,0,1,225,194a7.8,7.8,0,0,1,1.19-1.18,5.93,5.93,0,0,1,1.41-.83,4.14,4.14,0,0,1,1.59-.32,5.73,5.73,0,0,1,1.23.14,11.2,11.2,0,0,1,1.23.33c.41.14.81.3,1.21.48l1.17.54,1.13.51c.37.17.75.33,1.15.47a10.19,10.19,0,0,0,1.23.35,7.24,7.24,0,0,0,1.35.15l-.26,3.2-1.49.71-1.8.9q-.9.47-1.83.9c-.62.29-1.26.56-1.92.83a18.56,18.56,0,0,1-2.07.67,19.49,19.49,0,0,1-2.3.46,17.65,17.65,0,0,1-2.59.18h-2a1.75,1.75,0,0,1-.65-.13,1.81,1.81,0,0,1-.53-.35,1.66,1.66,0,0,1-.36-.53A1.53,1.53,0,0,1,221,200.8Zm7.8-14.81,2.31,2.32-2.31,2.31-2.32-2.31Z" style="fill:#fff"/><path d="M255,202.45a6.81,6.81,0,0,1-2.2-.32,4.22,4.22,0,0,1-1.58-1,3.4,3.4,0,0,1-.65-.87,4.31,4.31,0,0,1-.32-.91,4.21,4.21,0,0,1-.11-.84c0-.26,0-.49,0-.68v-.15q0-.39,0-1.11c0-.49,0-1.06,0-1.71s0-1.37,0-2.16,0-1.57-.06-2.35-.07-1.54-.13-2.26a15.91,15.91,0,0,0-.25-1.89l3.12-.95a14.51,14.51,0,0,1,.22,1.62c.06.62.11,1.28.14,2s.07,1.37.09,2.05,0,1.33,0,1.92a15.24,15.24,0,0,1,0,1.53c-.05.5-.09,1-.11,1.46a10.74,10.74,0,0,0,0,1.39,4.52,4.52,0,0,0,.29,1.31,1,1,0,0,0,.23.37,1.06,1.06,0,0,0,.33.18,1.76,1.76,0,0,0,.41.07H255a1.53,1.53,0,0,1,.64.13,1.71,1.71,0,0,1,.89.89,1.64,1.64,0,0,1,0,1.28,1.66,1.66,0,0,1-.36.53,1.58,1.58,0,0,1-.53.35A1.7,1.7,0,0,1,255,202.45Z" style="fill:#fff"/><path d="M253.3,200.8a1.64,1.64,0,0,1,1-1.53,1.75,1.75,0,0,1,.65-.12h.79a13.68,13.68,0,0,0,1.45-.07,4.68,4.68,0,0,0,1.22-.26,2.08,2.08,0,0,0,.86-.58,1.46,1.46,0,0,0,.35-1c0-.15,0-.28,0-.38a1.48,1.48,0,0,0-.06-.37c0-.14-.08-.33-.15-.56s-.16-.56-.28-1l3-.85a9,9,0,0,1,.37,1.32,17.21,17.21,0,0,1,.25,1.81,5.15,5.15,0,0,0,.07.65,2.39,2.39,0,0,0,.17.61,1.33,1.33,0,0,0,.33.47.8.8,0,0,0,.54.18,1.6,1.6,0,0,1,1.53,1,1.57,1.57,0,0,1,.13.65,1.53,1.53,0,0,1-.13.64,1.66,1.66,0,0,1-.36.53,1.58,1.58,0,0,1-.53.35,1.61,1.61,0,0,1-.63.13,4.39,4.39,0,0,1-1.71-.31,4.09,4.09,0,0,1-1.23-.8,4.51,4.51,0,0,1-1.08.52,9.87,9.87,0,0,1-1.3.34,12.79,12.79,0,0,1-1.42.19q-.72.06-1.44.06H255a1.75,1.75,0,0,1-.65-.13,1.45,1.45,0,0,1-.52-.35,1.49,1.49,0,0,1-.35-.53A1.53,1.53,0,0,1,253.3,200.8Zm10.36-10.06-2,2-2-2-2,2-2-2,2-2,2,2,2-2Z" style="fill:#fff"/><path d="M262.38,200.8a1.61,1.61,0,0,1,1.65-1.65h.79a13.68,13.68,0,0,0,1.45-.07,4.68,4.68,0,0,0,1.22-.26,2.14,2.14,0,0,0,.86-.58,1.46,1.46,0,0,0,.35-1c0-.15,0-.28,0-.38s0-.22-.06-.37-.09-.33-.15-.56-.16-.56-.28-1l3-.85a8,8,0,0,1,.36,1.32,13.18,13.18,0,0,1,.25,1.81c0,.21,0,.42.08.65a2.39,2.39,0,0,0,.17.61,1.33,1.33,0,0,0,.33.47.8.8,0,0,0,.54.18,1.63,1.63,0,0,1,1.18.47,2,2,0,0,1,.35.53,1.57,1.57,0,0,1,.13.65,1.53,1.53,0,0,1-.13.64,1.66,1.66,0,0,1-.36.53,1.58,1.58,0,0,1-.53.35,1.69,1.69,0,0,1-.63.13,4.35,4.35,0,0,1-1.71-.31,4.09,4.09,0,0,1-1.23-.8,4.51,4.51,0,0,1-1.08.52,9.87,9.87,0,0,1-1.3.34,12.79,12.79,0,0,1-1.42.19q-.74.06-1.44.06H264a1.75,1.75,0,0,1-.65-.13,1.58,1.58,0,0,1-.53-.35,1.63,1.63,0,0,1-.35-.53A1.69,1.69,0,0,1,262.38,200.8Zm10,5.39-2,2-2-2-2,2-2-2,2-2,2,2,2-2Z" style="fill:#fff"/><path d="M271.39,200.8a1.75,1.75,0,0,1,.13-.65,1.77,1.77,0,0,1,.36-.53,1.75,1.75,0,0,1,.53-.35,1.78,1.78,0,0,1,.65-.12h2a21.19,21.19,0,0,0,3.1-.21,20,20,0,0,0,2.65-.54,21.21,21.21,0,0,0,2.33-.8c.73-.3,1.45-.62,2.16-.95a12,12,0,0,1-1.42-.49l-1.43-.56a13.76,13.76,0,0,0-1.42-.46,5.39,5.39,0,0,0-1.41-.2,1.91,1.91,0,0,0-.94.26,5.28,5.28,0,0,0-.84.6,5.4,5.4,0,0,0-.63.65c-.17.21-.27.36-.32.43l-2.41-1.55a10.77,10.77,0,0,1,.94-1.37,7.43,7.43,0,0,1,1.2-1.18A5.56,5.56,0,0,1,278,192a4.07,4.07,0,0,1,1.59-.32,5.73,5.73,0,0,1,1.23.14,10.47,10.47,0,0,1,1.22.33c.41.14.81.3,1.21.48l1.18.54,1.12.51c.37.17.76.33,1.15.47a10.19,10.19,0,0,0,1.23.35,7.34,7.34,0,0,0,1.35.15l-.26,3.2-1.48.71c-.61.29-1.21.59-1.81.9s-1.21.61-1.83.9-1.26.56-1.92.83a18.56,18.56,0,0,1-2.07.67,19.32,19.32,0,0,1-2.29.46,17.65,17.65,0,0,1-2.59.18h-2a1.79,1.79,0,0,1-.65-.13,2,2,0,0,1-.53-.35,1.66,1.66,0,0,1-.36-.53A1.7,1.7,0,0,1,271.39,200.8Zm11.48,6.89-2-2-2,2-2-2,2-2,2,2,2-2,2,2Zm-1.95-.85,1.86,1.86-1.87,1.86-1.86-1.85Z" style="fill:#fff"/><path d="M290.43,206.59a17.25,17.25,0,0,0,2.66-.74,11.4,11.4,0,0,0,2.1-1,7.07,7.07,0,0,0,1.49-1.16,4,4,0,0,0,.83-1.25l-.91,0-.78,0a7.31,7.31,0,0,1-2.21-.53,4.06,4.06,0,0,1-1.6-1.18,3.44,3.44,0,0,1-.62-1.22,5.24,5.24,0,0,1-.18-1.39,6.24,6.24,0,0,1,.1-1.13,7.67,7.67,0,0,1,.74-2.12,6.28,6.28,0,0,1,.55-.88,4.3,4.3,0,0,1,1.37-1.18,3.24,3.24,0,0,1,1.57-.4,4.23,4.23,0,0,1,3.18,1.54,7.13,7.13,0,0,1,.79,1.08,8.83,8.83,0,0,1,.63,1.27,9.25,9.25,0,0,1,.44,1.41,9.08,9.08,0,0,1,.24,1.49h.2a1.69,1.69,0,0,1,.64.12,1.63,1.63,0,0,1,.53.35,1.77,1.77,0,0,1,.36.53,1.59,1.59,0,0,1,.14.66,1.52,1.52,0,0,1-.14.63,1.73,1.73,0,0,1-.36.52,1.66,1.66,0,0,1-.53.36,1.7,1.7,0,0,1-.64.13h-.46a8.49,8.49,0,0,1-1.3,2.77,10,10,0,0,1-2.13,2.17,12,12,0,0,1-2.75,1.54,14.94,14.94,0,0,1-3.18.86Zm5.11-10.93a.9.9,0,0,0-.51.21,2.46,2.46,0,0,0-.51.51,3.22,3.22,0,0,0-.41.7,2.11,2.11,0,0,0-.16.75.9.9,0,0,0,.2.59,1.53,1.53,0,0,0,.51.37,3.28,3.28,0,0,0,.67.21c.24,0,.48.08.71.1l.41,0h.94l.43,0a4.21,4.21,0,0,0-.23-1,8.16,8.16,0,0,0-.34-.84,5.05,5.05,0,0,0-.42-.69,6.78,6.78,0,0,0-.44-.54.71.71,0,0,0-.18-.15l-.22-.16-.24-.11A1,1,0,0,0,295.54,195.66Z" style="fill:#fff"/><path d="M299.15,200.81a1.69,1.69,0,0,1,.48-1.19,1.89,1.89,0,0,1,.56-.35,2,2,0,0,1,.71-.12H302l1.24,0a11,11,0,0,0,1.31-.1,6,6,0,0,0,1.14-.27,1.49,1.49,0,0,0,.73-.49,1.94,1.94,0,0,0,.32-1.09,3.28,3.28,0,0,0,0-.43c0-.14-.05-.29-.09-.44a2.56,2.56,0,0,0-.31-.63,6.7,6.7,0,0,0-.6-.82c-.24-.29-.52-.6-.83-.93s-.65-.67-1-1-.73-.68-1.12-1-.78-.68-1.17-1l.32-2.83,8.77-3.91,1.26,2.8L305,190.16a10.66,10.66,0,0,1,1.06.85,13.31,13.31,0,0,1,1.05,1.07,12.89,12.89,0,0,1,1,1.22,10.71,10.71,0,0,1,.78,1.33,7.44,7.44,0,0,1,.53,1.37,4.5,4.5,0,0,1,.18,1.34,4.91,4.91,0,0,1-.21,1.46,5.47,5.47,0,0,1-.49,1.2,4.72,4.72,0,0,1-3.57,2.37h0a3.64,3.64,0,0,1-.54.07,4,4,0,0,1-.49,0H300.9a2.08,2.08,0,0,1-.71-.13,1.57,1.57,0,0,1-.55-.35,1.73,1.73,0,0,1-.36-.52A1.53,1.53,0,0,1,299.15,200.81Z" style="fill:#fff"/><path d="M335.73,192.53a4.5,4.5,0,0,1,.64-.11l.63,0a5.33,5.33,0,0,1,1.45.2,8,8,0,0,1,1.49.6l-1.15,3.06a6.47,6.47,0,0,0-1-.34,3.28,3.28,0,0,0-.85-.12,3.58,3.58,0,0,0-.61.06,2.57,2.57,0,0,0-.72.19,4.47,4.47,0,0,0-.77.42,5.62,5.62,0,0,0-.74.57,6.86,6.86,0,0,0-.63.7,3.9,3.9,0,0,0-.45.76,2,2,0,0,0-.2.75.59.59,0,0,0,.17.48,1.59,1.59,0,0,0,.5.31,4.94,4.94,0,0,0,.71.23l.8.22.3.08c.45.1.89.22,1.33.35a4.27,4.27,0,0,1,1.2.56,2.78,2.78,0,0,1,.86.94,3.08,3.08,0,0,1,.33,1.52c0,.12,0,.25,0,.39s0,.27-.05.42a4.11,4.11,0,0,1-.38,1.1,5.18,5.18,0,0,1-.68,1,6.84,6.84,0,0,1-.95.91,7.45,7.45,0,0,1-1.18.76,11.45,11.45,0,0,1-2.74.92,15.9,15.9,0,0,1-3.32.33,10.62,10.62,0,0,1-3.76-.62,6.92,6.92,0,0,1-2.7-1.81,6.42,6.42,0,0,1-1.19-2.13,7.53,7.53,0,0,1-.39-2.42,4.89,4.89,0,0,1,0-.54c0-.18,0-.35,0-.51a14,14,0,0,1,.16-1.48c.09-.48.18-.94.29-1.37s.23-.82.35-1.19.24-.68.35-1,.19-.49.26-.65l.13-.3,2.62,1.09c-.17.41-.34.82-.49,1.21a12.34,12.34,0,0,0-.42,1.21,12,12,0,0,0-.3,1.31,11.13,11.13,0,0,0-.16,1.5,2.29,2.29,0,0,1,0,.25c0,.09,0,.17,0,.24a4.16,4.16,0,0,0,.21,1.3,3,3,0,0,0,.67,1.14,2.43,2.43,0,0,0,.74.57,4.73,4.73,0,0,0,1,.42,7.88,7.88,0,0,0,1.23.26,9.94,9.94,0,0,0,1.34.09,16.15,16.15,0,0,0,2.48-.18,13.22,13.22,0,0,0,2-.48,5.45,5.45,0,0,0,1.41-.69,1.38,1.38,0,0,0,.62-.8l-.12,0-.27-.06-.36-.08-.43-.1-.56-.13a16.37,16.37,0,0,1-1.75-.52,5.07,5.07,0,0,1-1.43-.79,3.55,3.55,0,0,1-1-1.22,4.22,4.22,0,0,1-.36-1.86,7.32,7.32,0,0,1,.5-2.34,8.09,8.09,0,0,1,1.21-2.07,7.54,7.54,0,0,1,1.78-1.6,6.41,6.41,0,0,1,2.21-.92Z" style="fill:#fff"/><path d="M342,202.48c0-.57.07-1.16.1-1.78s.07-1.21.09-1.81,0-1.18.05-1.75,0-1.08,0-1.55c0-1-.08-1.86-.12-2.6s-.08-1.41-.12-2-.07-1.09-.11-1.52-.08-.83-.12-1.2-.09-.7-.14-1-.1-.65-.15-1l3.22-1.06c.15.93.28,1.87.37,2.81s.17,1.86.22,2.72.08,1.67.09,2.42,0,1.38,0,1.91v1.55c0,.56,0,1.14,0,1.74s0,1.2,0,1.81,0,1.21-.1,1.8Z" style="fill:#fff"/><path d="M355.69,202.45l-.65,0a2.72,2.72,0,0,1-.9-.23,7.92,7.92,0,0,1-.86,2.46,10.89,10.89,0,0,1-1.56,2.18,13.81,13.81,0,0,1-2.12,1.88,18.29,18.29,0,0,1-2.53,1.53l-1.91-2.64c.49-.25,1-.52,1.49-.82s1-.61,1.44-.94a14.6,14.6,0,0,0,1.27-1,9.61,9.61,0,0,0,1-1.11,5.75,5.75,0,0,0,.69-1.18,3.24,3.24,0,0,0,.25-1.21s0-.06,0-.1v-.12s0-.07,0-.1h0v0a10,10,0,0,0-.21-1.16c-.09-.37-.21-.75-.34-1.13s-.3-.78-.48-1.21l-.6-1.38,3-1.31c.28.83.54,1.53.79,2.08a7.69,7.69,0,0,0,.71,1.34,2.22,2.22,0,0,0,.71.7,1.42,1.42,0,0,0,.75.21h.05a1.61,1.61,0,0,1,.65.13,1.73,1.73,0,0,1,.52.36,1.77,1.77,0,0,1,.36.53,1.64,1.64,0,0,1,0,1.28,1.61,1.61,0,0,1-.88.87A1.85,1.85,0,0,1,355.69,202.45Z" style="fill:#fff"/><path d="M353.88,200.8a1.75,1.75,0,0,1,.13-.65,2,2,0,0,1,.35-.53,1.7,1.7,0,0,1,.52-.35,1.78,1.78,0,0,1,.65-.12h1.55l.8,0a4.77,4.77,0,0,0,.8-.13,2.52,2.52,0,0,0,.65-.26,1,1,0,0,0,.42-.45,1.54,1.54,0,0,0,.08-.56,2.85,2.85,0,0,0-.15-.75,9.79,9.79,0,0,0-.38-1.11c-.16-.41-.34-.84-.54-1.28s-.41-.87-.62-1.26l3-1.49c.2.44.39.91.58,1.4s.37,1,.52,1.5a14.59,14.59,0,0,1,.37,1.52,8.35,8.35,0,0,1,.14,1.45,4.88,4.88,0,0,1-.37,1.93,4.7,4.7,0,0,1-1.2,1.62,5,5,0,0,1-1.83.95,6.89,6.89,0,0,1-1.2.21c-.38,0-.74,0-1.08,0h-1.52a1.79,1.79,0,0,1-.65-.13,1.54,1.54,0,0,1-.52-.35,1.81,1.81,0,0,1-.35-.53A1.7,1.7,0,0,1,353.88,200.8Zm4.74,2.59,2.32,2.32L358.62,208l-2.32-2.32Z" style="fill:#fff"/><path d="M379.44,202.45a6.81,6.81,0,0,1-2.2-.32,4.34,4.34,0,0,1-1.59-1,3.6,3.6,0,0,1-.64-.87,3.81,3.81,0,0,1-.32-.91,4.25,4.25,0,0,1-.12-.84c0-.26,0-.49,0-.68v-.15c0-.26,0-.63,0-1.11s0-1.06,0-1.71,0-1.37,0-2.16,0-1.57-.06-2.35-.07-1.54-.13-2.26a15.91,15.91,0,0,0-.25-1.89l3.12-.95a14.51,14.51,0,0,1,.22,1.62c.06.62.1,1.28.14,2s.07,1.37.09,2.05,0,1.33,0,1.92a12.71,12.71,0,0,1-.06,1.53c0,.5-.08,1-.11,1.46a12.83,12.83,0,0,0,0,1.39,4.52,4.52,0,0,0,.29,1.31,1,1,0,0,0,.23.37,1.06,1.06,0,0,0,.33.18,1.76,1.76,0,0,0,.41.07h.59a1.53,1.53,0,0,1,.64.13,1.77,1.77,0,0,1,.53.36,2,2,0,0,1,.36.53,1.64,1.64,0,0,1,0,1.28,1.84,1.84,0,0,1-.36.53,1.58,1.58,0,0,1-.53.35A1.7,1.7,0,0,1,379.44,202.45Z" style="fill:#fff"/><path d="M377.78,200.8a1.53,1.53,0,0,1,.13-.64,1.63,1.63,0,0,1,.34-.51,1.78,1.78,0,0,1,1.16-.5,2.61,2.61,0,0,0,1.22-.27,3.45,3.45,0,0,0,.91-.71,6.46,6.46,0,0,0,.71-1c.21-.37.41-.73.59-1.09h0c.18-.37.38-.75.58-1.12a8.22,8.22,0,0,1,.68-1,4.2,4.2,0,0,1,1.26-1,3.18,3.18,0,0,1,1.49-.36,3.74,3.74,0,0,1,1.71.39,4.66,4.66,0,0,1,1.39,1.11,4.58,4.58,0,0,1,.76,1.29,5.55,5.55,0,0,1,.39,1.53v0a6.41,6.41,0,0,1,.06.93,5.63,5.63,0,0,1-.1,1.1,5.46,5.46,0,0,1-.28,1,3.88,3.88,0,0,1-1,1.47,3.6,3.6,0,0,1-1.39.81,4.91,4.91,0,0,1-.5.1l-.52,0a5.08,5.08,0,0,1-1-.11,7.36,7.36,0,0,1-1-.32c-.14-.06-.3-.13-.47-.22l-.55-.29-.57-.32c-.19-.11-.36-.22-.52-.33-.28.26-.56.49-.83.7a5.78,5.78,0,0,1-.88.54,6,6,0,0,1-1,.34,5.11,5.11,0,0,1-1.14.12,1.7,1.7,0,0,1-.64-.13,1.9,1.9,0,0,1-.52-.35,1.49,1.49,0,0,1-.35-.53A1.53,1.53,0,0,1,377.78,200.8Zm7.4-2.75a5.46,5.46,0,0,0,.77.41c.29.13.59.25.88.35s.56.19.81.26a2.13,2.13,0,0,0,.56.1h.18c.09,0,.17-.13.25-.32a1.8,1.8,0,0,0,.09-.79,1.65,1.65,0,0,0-.19-.73,3.28,3.28,0,0,0-.49-.76,3,3,0,0,0-.69-.58,1.53,1.53,0,0,0-.8-.23c-.1,0-.22.13-.38.41s-.37.7-.67,1.24h0Z" style="fill:#fff"/><path d="M80.07,251.38a19.41,19.41,0,0,0,3.13-.86,14.71,14.71,0,0,0,2.48-1.15A8.58,8.58,0,0,0,87.44,248a4.6,4.6,0,0,0,1-1.46l-1.11,0-1,0a8.14,8.14,0,0,1-2.59-.63,4.69,4.69,0,0,1-1.86-1.37,4.06,4.06,0,0,1-.72-1.42,6.09,6.09,0,0,1-.22-1.62,7.38,7.38,0,0,1,.13-1.32,8.16,8.16,0,0,1,.34-1.29,8.52,8.52,0,0,1,.51-1.19,9.9,9.9,0,0,1,.64-1,5.16,5.16,0,0,1,1.61-1.38,3.72,3.72,0,0,1,1.83-.47,5,5,0,0,1,3.71,1.8,8.85,8.85,0,0,1,1,1.47,10.13,10.13,0,0,1,.78,1.74,11.75,11.75,0,0,1,.5,1.92,12.57,12.57,0,0,1,.17,2c0,.21,0,.42,0,.63s0,.41,0,.6a10,10,0,0,1-1.91,5,10.83,10.83,0,0,1-1.8,1.91,12.58,12.58,0,0,1-2.22,1.51,14.4,14.4,0,0,1-2.54,1.09,18.07,18.07,0,0,1-2.75.66Zm6-12.74a.74.74,0,0,0-.58.17,2.71,2.71,0,0,0-.61.61,3.7,3.7,0,0,0-.47.85,2.26,2.26,0,0,0-.19.89,1,1,0,0,0,.23.67,1.77,1.77,0,0,0,.59.43,3.19,3.19,0,0,0,.79.26,6.64,6.64,0,0,0,.83.12h0c.21,0,.45,0,.73,0h1.37a14.3,14.3,0,0,0-.44-1.44,7.49,7.49,0,0,0-.57-1.24,3.61,3.61,0,0,0-.75-.91A1.85,1.85,0,0,0,86,238.64Z" style="fill:#fff"/><path d="M110.24,246.55a8.29,8.29,0,0,1-3.12-.61,8.17,8.17,0,0,1-2.83-2l2.2-3.1a8.39,8.39,0,0,0,1.16.89,6.32,6.32,0,0,0,1.07.54,5.1,5.1,0,0,0,1,.27,5.24,5.24,0,0,0,.86.07H111l.46,0,.46-.08a2.34,2.34,0,0,0,.4-.12,5.29,5.29,0,0,0,1-.54c-.31-.74-.65-1.52-1-2.33s-.72-1.62-1.09-2.43l-1.08-2.43c-.36-.81-.69-1.58-1-2.31l3.55-1.49,1.09,2.63c.35.86.76,1.88,1.25,3.06s1.05,2.52,1.68,4c.15.36.28.67.4.94a2.59,2.59,0,0,0,.44.67,1.51,1.51,0,0,0,.59.4,2.8,2.8,0,0,0,.9.12,1.88,1.88,0,0,1,.74.15,1.73,1.73,0,0,1,.61.41,1.85,1.85,0,0,1,.42.61,1.79,1.79,0,0,1,.16.76,1.74,1.74,0,0,1-.16.75,1.89,1.89,0,0,1-.42.62,1.7,1.7,0,0,1-.61.4,1.88,1.88,0,0,1-.74.15,7.27,7.27,0,0,1-1.31-.1,4.49,4.49,0,0,1-1-.27,3.5,3.5,0,0,1-.79-.43,4.85,4.85,0,0,1-.65-.55l-.7.42a8.46,8.46,0,0,1-.84.39,7.09,7.09,0,0,1-1.57.41A12.2,12.2,0,0,1,110.24,246.55Z" style="fill:#fff"/><path d="M117,244.63a2.14,2.14,0,0,1,.14-.76,2,2,0,0,1,.41-.61,2,2,0,0,1,1.37-.56h.93c.58,0,1.14,0,1.68-.07a5.3,5.3,0,0,0,1.43-.31,2.52,2.52,0,0,0,1-.67,1.82,1.82,0,0,0,.41-1.15c0-.18,0-.33,0-.45a1.92,1.92,0,0,0-.07-.42c0-.17-.09-.39-.17-.66s-.19-.65-.32-1.15l3.54-1a10,10,0,0,1,.42,1.55,19.63,19.63,0,0,1,.3,2.1,6.77,6.77,0,0,0,.08.76,3.17,3.17,0,0,0,.2.72,1.45,1.45,0,0,0,.39.54.92.92,0,0,0,.63.21,2,2,0,0,1,1.37.56,2,2,0,0,1,.41.61,1.94,1.94,0,0,1,.15.76,1.89,1.89,0,0,1-1.18,1.77,1.85,1.85,0,0,1-.74.15,5,5,0,0,1-2-.36,4.78,4.78,0,0,1-1.43-.93,5.67,5.67,0,0,1-1.26.61,11.25,11.25,0,0,1-1.52.39,12.6,12.6,0,0,1-1.65.22c-.57.05-1.13.07-1.68.07h-.93a1.86,1.86,0,0,1-.75-.15,1.84,1.84,0,0,1-.62-.4,2,2,0,0,1-.41-.62A2.08,2.08,0,0,1,117,244.63Zm11.65,6.29-2.34,2.35L124,251l-2.29,2.28-2.36-2.34,2.33-2.35,2.32,2.31,2.29-2.29Z" style="fill:#fff"/><path d="M127.54,244.63a1.94,1.94,0,0,1,.15-.76,1.82,1.82,0,0,1,.41-.61,2,2,0,0,1,.61-.4,1.79,1.79,0,0,1,.76-.16h.2a4.9,4.9,0,0,0,2.56-.54,1.8,1.8,0,0,0,.86-1.65c0-.14,0-.27,0-.39a2.73,2.73,0,0,0,0-.44,7.17,7.17,0,0,0-.16-.72c-.07-.3-.19-.71-.34-1.22l3.47-.84a13.51,13.51,0,0,1,.45,1.63,9.51,9.51,0,0,1,.19,2,3.85,3.85,0,0,0,.07.74,2.6,2.6,0,0,0,.22.7,1.49,1.49,0,0,0,.41.54,1.05,1.05,0,0,0,.67.21,1.73,1.73,0,0,1,.74.16,2,2,0,0,1,.61.4,1.85,1.85,0,0,1,.42.61,1.79,1.79,0,0,1,.16.76,1.93,1.93,0,0,1-1.92,1.92,5.2,5.2,0,0,1-2-.34,4.45,4.45,0,0,1-1.42-.89,6.05,6.05,0,0,1-2.09.93,12,12,0,0,1-2.87.3h-.2a1.94,1.94,0,0,1-.76-.15,1.8,1.8,0,0,1-.61-.4,1.86,1.86,0,0,1-.41-.62A1.9,1.9,0,0,1,127.54,244.63Zm6.66-15.14,2.7,2.71-2.7,2.7-2.7-2.7Z" style="fill:#fff"/><path d="M135.87,244.64a2,2,0,0,1,.15-.77,1.59,1.59,0,0,1,.42-.61,1.85,1.85,0,0,1,.64-.41,2.23,2.23,0,0,1,.83-.15h1.28c.44,0,.92,0,1.45,0a12.48,12.48,0,0,0,1.53-.12,7,7,0,0,0,1.33-.31,1.72,1.72,0,0,0,.85-.57,2.24,2.24,0,0,0,.37-1.28,2.77,2.77,0,0,0,0-.49c0-.17-.07-.34-.11-.52a2.43,2.43,0,0,0-.36-.73,8.76,8.76,0,0,0-.7-1c-.28-.34-.6-.71-1-1.09s-.75-.78-1.17-1.18-.85-.8-1.3-1.2l-1.36-1.16.37-3.31,10.23-4.55,1.47,3.26-8.08,3.75a12.71,12.71,0,0,1,1.23,1,16,16,0,0,1,1.23,1.24,15.82,15.82,0,0,1,1.12,1.44,11.52,11.52,0,0,1,.91,1.54,9.26,9.26,0,0,1,.62,1.6,5.35,5.35,0,0,1,.21,1.57,6.5,6.5,0,0,1-.24,1.69,7,7,0,0,1-.58,1.41,5.53,5.53,0,0,1-4.17,2.76h0l-.62.09-.57,0h-3.94a2.18,2.18,0,0,1-.82-.15,1.78,1.78,0,0,1-.65-.4,2,2,0,0,1-.42-.61A1.86,1.86,0,0,1,135.87,244.64Z" style="fill:#fff"/><path d="M162.84,255.45l-.48-12c0-.07,0-.21,0-.43a4.28,4.28,0,0,1,.14-.76,4,4,0,0,1,.38-.91,2.9,2.9,0,0,1,.73-.85,2.5,2.5,0,0,1,.85-.44,3.7,3.7,0,0,1,1.09-.17h.19l.2,0a9.81,9.81,0,0,1,.44-1c.17-.34.35-.68.54-1s.41-.62.63-.91a6.28,6.28,0,0,1,.65-.76,4.82,4.82,0,0,1,1.54-1.08,3.93,3.93,0,0,1,1.68-.31,5.08,5.08,0,0,1,2.1.51,4.66,4.66,0,0,1,1.61,1.38,6.42,6.42,0,0,1,1.18,3.44,2.71,2.71,0,0,1,0,.29v.3a8,8,0,0,1-.13,1.48,6.44,6.44,0,0,1-.4,1.38h0a4.72,4.72,0,0,1-1.12,1.74,3.12,3.12,0,0,1-1.61.8l0,0-.24.06-.26,0a3.66,3.66,0,0,1-1-.17c-.39-.11-.8-.26-1.25-.43l-1.37-.56-1.35-.56-.6-.23-.45-.19-.39-.14c-.12-.05-.26-.09-.42-.14.11,1.86.23,3.7.37,5.52s.26,3.65.36,5.5ZM169.5,240c-.09.17-.17.32-.23.45l-.16.37.85.36,1,.41,1,.39c.32.12.6.22.86.29a3.76,3.76,0,0,0,.17-.73,4.14,4.14,0,0,0,.07-.73,2.43,2.43,0,0,0-.15-.86,2.24,2.24,0,0,0-.38-.7,1.91,1.91,0,0,0-.54-.45,1.14,1.14,0,0,0-.61-.13l-.37.07a2.18,2.18,0,0,0-.49.21,3,3,0,0,0-.53.4A2.29,2.29,0,0,0,169.5,240Z" style="fill:#fff"/><path d="M185.33,246.55a7.8,7.8,0,0,1-2.57-.37,5,5,0,0,1-1.85-1.14,4.11,4.11,0,0,1-.75-1,5.21,5.21,0,0,1-.38-1.06,5.87,5.87,0,0,1-.13-1c0-.3,0-.57,0-.79V241c0-.3,0-.73,0-1.3s0-1.22,0-2,0-1.6,0-2.52,0-1.83-.07-2.74-.09-1.79-.16-2.64a21.09,21.09,0,0,0-.28-2.2l3.64-1.11c.1.54.19,1.17.25,1.89s.12,1.49.17,2.29.07,1.59.09,2.39,0,1.56.05,2.25a17.43,17.43,0,0,1-.07,1.78c0,.58-.09,1.15-.13,1.7a12.46,12.46,0,0,0,0,1.62,5.73,5.73,0,0,0,.33,1.53,1.19,1.19,0,0,0,.28.43,1.17,1.17,0,0,0,.38.21,2.41,2.41,0,0,0,.48.08h.69a1.7,1.7,0,0,1,.74.16,1.89,1.89,0,0,1,.62.42,2.21,2.21,0,0,1,.42.61,1.94,1.94,0,0,1,.16.75,1.9,1.9,0,0,1-.16.75,2.26,2.26,0,0,1-.42.62,2,2,0,0,1-1.36.55Z" style="fill:#fff"/><path d="M183.3,244.63a1.94,1.94,0,0,1,.15-.76,2,2,0,0,1,.41-.61,1.78,1.78,0,0,1,.6-.41,1.94,1.94,0,0,1,.76-.15H187l.94,0a6.45,6.45,0,0,0,.93-.15,2.94,2.94,0,0,0,.77-.3,1.17,1.17,0,0,0,.48-.53,1.75,1.75,0,0,0,.1-.66,3.31,3.31,0,0,0-.18-.87c-.11-.39-.26-.82-.44-1.3s-.4-1-.64-1.49-.47-1-.72-1.47l3.49-1.73c.22.51.45,1.05.67,1.63s.43,1.16.6,1.75a17.58,17.58,0,0,1,.44,1.77,10.14,10.14,0,0,1,.16,1.69,5.68,5.68,0,0,1-.44,2.25,5.09,5.09,0,0,1-1.4,1.9,5.67,5.67,0,0,1-2.13,1.1,6.67,6.67,0,0,1-1.4.25c-.45,0-.86,0-1.25,0h-1.78a1.94,1.94,0,0,1-.76-.15,1.75,1.75,0,0,1-.6-.4,2,2,0,0,1-.41-.62A1.9,1.9,0,0,1,183.3,244.63Zm6-17.34L192,230l-2.71,2.71-2.7-2.71Z" style="fill:#fff"/><path d="M233,246.55a7.9,7.9,0,0,1-3.4-.66,5.14,5.14,0,0,1-2.27-2.19,11.15,11.15,0,0,1-4.19,2.18,20.75,20.75,0,0,1-5.72.71,30.24,30.24,0,0,1-3.67-.25,17.29,17.29,0,0,1-3.16-.72,10.19,10.19,0,0,1-2.5-1.21,5.69,5.69,0,0,1-1.68-1.71,5,5,0,0,1-.55-1.49,7.29,7.29,0,0,1-.11-1.84,9.38,9.38,0,0,1,.39-2.1A12.4,12.4,0,0,1,207,235l2.9,1.68q-.26.48-.45.93a4.45,4.45,0,0,0-.32.93,4.37,4.37,0,0,0-.1,1,4.81,4.81,0,0,0,.18,1.23,2.44,2.44,0,0,0,1.09.89,8.89,8.89,0,0,0,1.9.59,18.25,18.25,0,0,0,2.43.34c.89.08,1.79.11,2.72.11s1.66,0,2.42-.09a17.64,17.64,0,0,0,2.11-.29,9.77,9.77,0,0,0,1.75-.52A5.17,5.17,0,0,0,225,241a4.21,4.21,0,0,0,.84-.91,7.16,7.16,0,0,0,.56-1.06,7.88,7.88,0,0,0,.38-1.16q.15-.6.3-1.23l3.41.87-.5,2.58a2,2,0,0,0,.06,1,1.83,1.83,0,0,0,.56.82,2.77,2.77,0,0,0,1,.55,4.47,4.47,0,0,0,1.42.2,1.9,1.9,0,0,1,.75.15,1.86,1.86,0,0,1,.62.41,2,2,0,0,1,.41.61,1.94,1.94,0,0,1,.15.76,1.9,1.9,0,0,1-.15.75,2,2,0,0,1-.41.62,1.84,1.84,0,0,1-.62.4,1.9,1.9,0,0,1-.75.15Zm-10-12.71-2.34,2.35-2.31-2.31-2.29,2.28-2.36-2.34,2.34-2.35,2.31,2.31,2.29-2.29Z" style="fill:#fff"/><path d="M231.18,244.63a1.94,1.94,0,0,1,.15-.76,1.69,1.69,0,0,1,.41-.61,1.85,1.85,0,0,1,.61-.4,1.74,1.74,0,0,1,.75-.16h.21a4.9,4.9,0,0,0,2.56-.54,1.82,1.82,0,0,0,.86-1.65c0-.14,0-.27,0-.39a2.73,2.73,0,0,0,0-.44,7.17,7.17,0,0,0-.16-.72c-.07-.3-.19-.71-.34-1.22l3.47-.84a13.51,13.51,0,0,1,.45,1.63,9.51,9.51,0,0,1,.19,2,3.85,3.85,0,0,0,.07.74,2.6,2.6,0,0,0,.22.7,1.49,1.49,0,0,0,.41.54,1,1,0,0,0,.66.21,1.78,1.78,0,0,1,.75.16,2,2,0,0,1,.61.4,1.85,1.85,0,0,1,.42.61,1.79,1.79,0,0,1,.16.76A1.91,1.91,0,0,1,243,246a1.84,1.84,0,0,1-.62.4,1.8,1.8,0,0,1-.73.15,5.2,5.2,0,0,1-2-.34,4.45,4.45,0,0,1-1.42-.89,6.05,6.05,0,0,1-2.09.93,12,12,0,0,1-2.87.3h-.21a1.9,1.9,0,0,1-.75-.15,1.7,1.7,0,0,1-.61-.4,1.72,1.72,0,0,1-.41-.62A1.9,1.9,0,0,1,231.18,244.63Zm6.6,2.84,2.7,2.71-2.7,2.7-2.7-2.7Z" style="fill:#fff"/><path d="M239.92,244.63a1.94,1.94,0,0,1,.15-.76,2,2,0,0,1,.41-.61,1.73,1.73,0,0,1,.61-.41,1.93,1.93,0,0,1,.75-.15h1.94c.37,0,.77,0,1.21,0a12.41,12.41,0,0,0,1.26-.15,7.26,7.26,0,0,0,1.1-.3,1.78,1.78,0,0,0,.73-.48,1,1,0,0,0,.13-.56,3.83,3.83,0,0,0-.25-1.25,15.4,15.4,0,0,0-.59-1.46c-.23-.49-.46-1-.7-1.42s-.43-.83-.58-1.13l3.47-1.71a11.91,11.91,0,0,1,.73,1.55c.24.6.45,1.21.64,1.84s.33,1.25.45,1.85a9.08,9.08,0,0,1,.17,1.58,5.68,5.68,0,0,1-.44,2.25,5.2,5.2,0,0,1-1.4,1.9,5.67,5.67,0,0,1-2.13,1.1c-.25.06-.55.11-.91.16s-.74.07-1.11.09l-1.06,0h-2.66a1.93,1.93,0,0,1-.75-.15,1.7,1.7,0,0,1-.61-.4,2,2,0,0,1-.41-.62A1.9,1.9,0,0,1,239.92,244.63Zm12.17-13.94L249.76,233l-2.32-2.32L245.16,233l-2.37-2.35,2.34-2.35,2.31,2.32,2.29-2.29Zm-6.81-3.53,2.16-2.17,2.18,2.18-2.16,2.17Z" style="fill:#fff"/><path d="M271.32,246.55a7.88,7.88,0,0,1-2.57-.37A5,5,0,0,1,266.9,245a3.83,3.83,0,0,1-.74-1,4.23,4.23,0,0,1-.38-1.06,5.93,5.93,0,0,1-.14-1c0-.3,0-.57,0-.79V241c0-.3,0-.73,0-1.3s0-1.22,0-2,0-1.6,0-2.52,0-1.83-.07-2.74-.08-1.79-.15-2.64a20.86,20.86,0,0,0-.29-2.2l3.64-1.11a18.83,18.83,0,0,1,.26,1.89c.06.73.12,1.49.16,2.29s.08,1.59.1,2.39,0,1.56,0,2.25a15,15,0,0,1-.07,1.78c0,.58-.09,1.15-.12,1.7a12.51,12.51,0,0,0,0,1.62,5.38,5.38,0,0,0,.34,1.53,1.06,1.06,0,0,0,.27.43,1.28,1.28,0,0,0,.38.21,2.41,2.41,0,0,0,.48.08h.69a1.78,1.78,0,0,1,.75.16,1.85,1.85,0,0,1,.61.42,2,2,0,0,1,.42.61,1.78,1.78,0,0,1,.16.75,1.74,1.74,0,0,1-.16.75,2.06,2.06,0,0,1-.42.62,1.8,1.8,0,0,1-.61.4A1.93,1.93,0,0,1,271.32,246.55Z" style="fill:#fff"/><path d="M287.5,244.63a1.84,1.84,0,0,1-.56,1.35,1.93,1.93,0,0,1-1.36.57h0a3.2,3.2,0,0,1-2.49-1.05,3.41,3.41,0,0,1-2.54,1,12.61,12.61,0,0,1-5.2-1.8,2.83,2.83,0,0,1-.84.94,4.22,4.22,0,0,1-1.25.64,6.27,6.27,0,0,1-2,.29,1.92,1.92,0,0,1-1.36-3.27,1.85,1.85,0,0,1,1.36-.56,3.26,3.26,0,0,0,2.65-1.51,11,11,0,0,0,.86-1.42l.36-.73.17-.37.17-.34c1.1-2.18,2.47-3.26,4.1-3.26a4.67,4.67,0,0,1,3.17,1.19A5.32,5.32,0,0,1,284.5,240v.11a.88.88,0,0,1,0,.17,6.41,6.41,0,0,0,.17,1.21,3.35,3.35,0,0,0,.32.83.67.67,0,0,0,.56.37,1.93,1.93,0,0,1,1.92,1.93Zm-6.15-1.56c.26-.07.42-.4.47-1a2.9,2.9,0,0,0-.36-1.71,3.41,3.41,0,0,0-1.14-1.2c-.51-.34-.9-.46-1.16-.36s-.87,1.05-1.58,2.71C279.62,242.67,280.88,243.19,281.35,243.07Z" style="fill:#fff"/><path d="M283.68,244.63a1.94,1.94,0,0,1,.15-.76,1.8,1.8,0,0,1,.4-.61,2,2,0,0,1,1.37-.56h.93c.58,0,1.14,0,1.68-.07a5.3,5.3,0,0,0,1.43-.31,2.52,2.52,0,0,0,1-.67,1.82,1.82,0,0,0,.41-1.15c0-.18,0-.33,0-.45a1.83,1.83,0,0,0-.06-.42q-.06-.25-.18-.66c-.08-.27-.19-.65-.32-1.15l3.54-1a10,10,0,0,1,.42,1.55,19.63,19.63,0,0,1,.3,2.1,6.77,6.77,0,0,0,.08.76,3.17,3.17,0,0,0,.2.72,1.45,1.45,0,0,0,.39.54.92.92,0,0,0,.63.21,2,2,0,0,1,1.37.56,2,2,0,0,1,.41.61,2,2,0,0,1,.16.76,1.92,1.92,0,0,1-1.19,1.77,1.85,1.85,0,0,1-.74.15,5,5,0,0,1-2-.36,4.78,4.78,0,0,1-1.43-.93,5.67,5.67,0,0,1-1.26.61,11.25,11.25,0,0,1-1.52.39,12.38,12.38,0,0,1-1.65.22c-.57.05-1.13.07-1.68.07h-.93a1.86,1.86,0,0,1-.75-.15,1.75,1.75,0,0,1-1-1A1.9,1.9,0,0,1,283.68,244.63Zm12.09-11.74-2.34,2.35-2.31-2.31-2.29,2.29-2.36-2.35,2.33-2.35,2.32,2.31,2.29-2.29Z" style="fill:#fff"/><path d="M294.32,244.63a1.94,1.94,0,0,1,.15-.76,1.88,1.88,0,0,1,1-1,2,2,0,0,1,.77-.15h2.33a26.93,26.93,0,0,0,3.63-.23,26.1,26.1,0,0,0,3.08-.64,22.83,22.83,0,0,0,2.72-.94c.86-.35,1.7-.72,2.53-1.1a13.58,13.58,0,0,1-1.66-.57l-1.67-.66c-.56-.21-1.11-.39-1.66-.54a6.29,6.29,0,0,0-1.65-.22,2.19,2.19,0,0,0-1.09.3,5.74,5.74,0,0,0-1,.69,6.42,6.42,0,0,0-.73.77,3.06,3.06,0,0,0-.37.5l-2.82-1.81a11.69,11.69,0,0,1,1.1-1.6,9.06,9.06,0,0,1,1.39-1.38,7.22,7.22,0,0,1,1.65-1,4.84,4.84,0,0,1,1.85-.36,7,7,0,0,1,1.44.15,10.5,10.5,0,0,1,1.43.4c.48.16.94.34,1.41.55s.92.41,1.37.63l1.31.6c.44.2.88.38,1.35.55a11.17,11.17,0,0,0,1.43.4,7.26,7.26,0,0,0,1.57.17l-.3,3.74-1.73.83c-.71.34-1.41.69-2.11,1s-1.41.71-2.13,1.05-1.48.66-2.24,1a20.15,20.15,0,0,1-2.42.79,23.08,23.08,0,0,1-2.68.54,22.08,22.08,0,0,1-3,.2h-2.33a2,2,0,0,1-.77-.15,2.16,2.16,0,0,1-.62-.41,1.87,1.87,0,0,1-.41-.61A1.9,1.9,0,0,1,294.32,244.63Z" style="fill:#fff"/><path d="M0,286.29a1.83,1.83,0,0,1,.58-1.41,2.09,2.09,0,0,1,1.48-.54,2.11,2.11,0,0,1,1.48.54,1.83,1.83,0,0,1,.58,1.41,1.8,1.8,0,0,1-.58,1.39,2.07,2.07,0,0,1-1.48.54,2.07,2.07,0,0,1-1.48-.54A1.8,1.8,0,0,1,0,286.29Z" style="fill:#fff"/><path d="M11.49,287.45a7.15,7.15,0,0,1-2.68-.53,6.71,6.71,0,0,1-2.42-1.68l1.88-2.66a6.91,6.91,0,0,0,1,.77,5.19,5.19,0,0,0,.91.46A3.73,3.73,0,0,0,11,284a5,5,0,0,0,.74.07h.35l.4,0,.39-.07a2.75,2.75,0,0,0,.34-.1,5.07,5.07,0,0,0,.86-.46c-.27-.64-.55-1.31-.86-2s-.63-1.39-.94-2.09l-.93-2.08c-.3-.69-.59-1.35-.85-2l3-1.27.93,2.25c.3.74.66,1.61,1.08,2.62s.9,2.16,1.44,3.44c.12.31.24.58.34.8a2.15,2.15,0,0,0,.37.58,1.35,1.35,0,0,0,.51.34,2.37,2.37,0,0,0,.77.11,1.73,1.73,0,0,1,.64.12,1.7,1.7,0,0,1,.52.35,1.77,1.77,0,0,1,.36.53,1.58,1.58,0,0,1,.14.65,1.53,1.53,0,0,1-.14.64,1.66,1.66,0,0,1-.36.53,1.54,1.54,0,0,1-.52.35,1.74,1.74,0,0,1-.64.13,6.19,6.19,0,0,1-1.12-.09,4.25,4.25,0,0,1-.87-.23,3.39,3.39,0,0,1-.68-.37,4.88,4.88,0,0,1-.55-.47l-.6.36c-.21.11-.45.22-.72.34a7,7,0,0,1-1.35.35A11.21,11.21,0,0,1,11.49,287.45Z" style="fill:#fff"/><path d="M16.82,285.8a1.57,1.57,0,0,1,.13-.65,1.75,1.75,0,0,1,.35-.53,1.7,1.7,0,0,1,.52-.35,1.75,1.75,0,0,1,.65-.12h1.66c.31,0,.66,0,1,0s.74-.08,1.09-.14a5,5,0,0,0,.94-.26,1.32,1.32,0,0,0,.62-.41.85.85,0,0,0,.12-.48,3.4,3.4,0,0,0-.22-1.06c-.14-.41-.31-.83-.5-1.25s-.4-.84-.6-1.23-.37-.71-.5-1l3-1.47a9.78,9.78,0,0,1,.63,1.33c.2.52.38,1,.54,1.58s.29,1.07.39,1.59a7.21,7.21,0,0,1,.15,1.35,4.89,4.89,0,0,1-.38,1.93,4.46,4.46,0,0,1-1.2,1.62,5,5,0,0,1-1.83.95,5.46,5.46,0,0,1-.78.13c-.31,0-.63.06-1,.08l-.91,0H18.47a1.75,1.75,0,0,1-.65-.13,1.54,1.54,0,0,1-.52-.35,1.63,1.63,0,0,1-.35-.53A1.53,1.53,0,0,1,16.82,285.8Zm10.09,5.08-2,2-2-2-2,2-2-2,2-2,2,2,2-2Z" style="fill:#fff"/><path d="M37,287.45l-.65,0a2.78,2.78,0,0,1-.9-.23,7.92,7.92,0,0,1-.86,2.46A10.89,10.89,0,0,1,33,291.82a14.21,14.21,0,0,1-2.11,1.88,19,19,0,0,1-2.54,1.53l-1.91-2.64c.49-.25,1-.52,1.49-.82s1-.61,1.44-.94a14.6,14.6,0,0,0,1.27-1,8.81,8.81,0,0,0,1-1.11,5.75,5.75,0,0,0,.69-1.18,3.24,3.24,0,0,0,.25-1.21.41.41,0,0,0,0-.1v-.12a.31.31,0,0,0,0-.1h0v0a10,10,0,0,0-.21-1.16c-.09-.37-.21-.75-.34-1.13s-.29-.78-.48-1.21l-.6-1.38,3-1.31c.28.83.54,1.53.79,2.08a7.69,7.69,0,0,0,.71,1.34,2.33,2.33,0,0,0,.71.7,1.42,1.42,0,0,0,.75.21h0a1.61,1.61,0,0,1,.65.13,1.73,1.73,0,0,1,.52.36,1.77,1.77,0,0,1,.36.53,1.64,1.64,0,0,1,0,1.28,1.61,1.61,0,0,1-.88.87A1.8,1.8,0,0,1,37,287.45Z" style="fill:#fff"/><path d="M35.24,285.8a1.75,1.75,0,0,1,.12-.65,1.59,1.59,0,0,1,.35-.52,1.75,1.75,0,0,1,.53-.35,1.57,1.57,0,0,1,.65-.13h.17a4.14,4.14,0,0,0,2.19-.47,1.55,1.55,0,0,0,.75-1.41v-.33a3.28,3.28,0,0,0,0-.39c0-.15-.07-.36-.14-.61s-.16-.6-.29-1.05l3-.72a13.26,13.26,0,0,1,.39,1.4,8.25,8.25,0,0,1,.16,1.7,3.52,3.52,0,0,0,.06.63,2.41,2.41,0,0,0,.19.61,1.44,1.44,0,0,0,.35.46.88.88,0,0,0,.57.18,1.56,1.56,0,0,1,.64.13,1.75,1.75,0,0,1,.53.35,1.78,1.78,0,0,1,.36.52,1.57,1.57,0,0,1,.13.65,1.53,1.53,0,0,1-.13.64,1.66,1.66,0,0,1-.36.53,1.58,1.58,0,0,1-.53.35,1.65,1.65,0,0,1-.63.13,4.56,4.56,0,0,1-1.71-.29,3.9,3.9,0,0,1-1.22-.77,5.15,5.15,0,0,1-1.79.8,10.37,10.37,0,0,1-2.46.26h-.17a1.75,1.75,0,0,1-.65-.13,1.58,1.58,0,0,1-.53-.35,1.63,1.63,0,0,1-.35-.53A1.69,1.69,0,0,1,35.24,285.8Zm5.65,2.44,2.32,2.31-2.32,2.32-2.31-2.32Z" style="fill:#fff"/><path d="M42.66,285.8a1.64,1.64,0,0,1,1-1.53,1.73,1.73,0,0,1,.64-.12h1.55l.81,0a4.82,4.82,0,0,0,.79-.13,2.46,2.46,0,0,0,.66-.26.94.94,0,0,0,.41-.45,1.35,1.35,0,0,0,.08-.56,2.74,2.74,0,0,0-.14-.75q-.15-.51-.39-1.11c-.16-.41-.34-.84-.54-1.28s-.41-.87-.62-1.26l3-1.49c.19.44.39.91.58,1.4s.36,1,.51,1.5a12.44,12.44,0,0,1,.37,1.52,7.48,7.48,0,0,1,.14,1.45,4.88,4.88,0,0,1-.37,1.93,4.46,4.46,0,0,1-1.2,1.62,5,5,0,0,1-1.83.95,6.58,6.58,0,0,1-1.2.21c-.38,0-.74,0-1.07,0H44.3a1.74,1.74,0,0,1-.64-.13,1.45,1.45,0,0,1-.52-.35,1.49,1.49,0,0,1-.35-.53A1.53,1.53,0,0,1,42.66,285.8Zm4.73,2.59,2.32,2.32L47.39,293l-2.31-2.32Z" style="fill:#fff"/><path d="M67.94,287.45a23,23,0,0,1-3.51-.24,14.05,14.05,0,0,1-2.72-.67,5.77,5.77,0,0,1-3.26-2.69h0a4.69,4.69,0,0,1-.5-2.15,5.75,5.75,0,0,1,.13-1.11,7.46,7.46,0,0,1,.86-2.32c.2-.34.4-.7.61-1.07L62,279.26l-.36.57c-.14.24-.28.48-.41.74a7.52,7.52,0,0,0-.32.78,2.07,2.07,0,0,0-.13.68.83.83,0,0,0,.06.34,1.76,1.76,0,0,0,.83.75,6.87,6.87,0,0,0,1.56.55,14.79,14.79,0,0,0,2.14.34c.8.08,1.66.12,2.57.12.49,0,1,0,1.68-.08s1.28-.12,1.95-.23,1.33-.25,2-.42a12.12,12.12,0,0,0,1.82-.62,6.88,6.88,0,0,0-.3-.94,7.47,7.47,0,0,0-.42-.93c-.17-.33-.37-.67-.6-1s-.5-.79-.81-1.26l2.57-1.67.44.74c.16.29.33.6.5.94s.34.7.5,1.07.31.75.44,1.13a8.24,8.24,0,0,1,.3,1.1,4,4,0,0,1,.08,1,2.6,2.6,0,0,1-.6,1.55,5,5,0,0,1-1.42,1.17,9.87,9.87,0,0,1-1.94.85,18.46,18.46,0,0,1-2.19.55c-.74.14-1.46.24-2.15.3S68.47,287.45,67.94,287.45Zm4.28-10.95-2,2-2-2-2,2-2-2,2-2,2,2,2-2Z" style="fill:#fff"/><path d="M84.09,287.45a7.1,7.1,0,0,1-2.67-.53A6.66,6.66,0,0,1,79,285.24l1.89-2.66a6.36,6.36,0,0,0,1,.77,5.26,5.26,0,0,0,.92.46,3.59,3.59,0,0,0,.83.23,4.85,4.85,0,0,0,.73.07h.36l.39,0,.39-.07a2.31,2.31,0,0,0,.34-.1,4.71,4.71,0,0,0,.86-.46c-.26-.64-.55-1.31-.86-2l-.93-2.09c-.32-.7-.63-1.39-.93-2.08s-.59-1.35-.86-2l3-1.27.93,2.25c.3.74.65,1.61,1.07,2.62s.9,2.16,1.44,3.44c.13.31.24.58.35.8a1.75,1.75,0,0,0,.37.58,1.27,1.27,0,0,0,.51.34,2.31,2.31,0,0,0,.76.11,1.69,1.69,0,0,1,.64.12,1.75,1.75,0,0,1,.53.35,1.77,1.77,0,0,1,.36.53,1.57,1.57,0,0,1,.13.65,1.53,1.53,0,0,1-.13.64,1.66,1.66,0,0,1-.36.53,1.58,1.58,0,0,1-.53.35,1.7,1.7,0,0,1-.64.13,6.27,6.27,0,0,1-1.12-.09,4,4,0,0,1-.86-.23,3.14,3.14,0,0,1-.68-.37,4.22,4.22,0,0,1-.56-.47l-.59.36c-.21.11-.45.22-.72.34a6.94,6.94,0,0,1-1.36.35A11.21,11.21,0,0,1,84.09,287.45Zm.8-19.26,2.31,2.32-2.31,2.32-2.32-2.32Z" style="fill:#fff"/><path d="M89.88,285.8a1.75,1.75,0,0,1,.13-.65,2,2,0,0,1,.35-.53,1.7,1.7,0,0,1,.52-.35,1.78,1.78,0,0,1,.65-.12h.59a3.61,3.61,0,0,0,.84-.09,1,1,0,0,0,.51-.23v0a1.49,1.49,0,0,0,.28-.62,5.5,5.5,0,0,0,.09-1.11c0-.05,0-.26,0-.61s0-.79-.08-1.32-.07-1.13-.12-1.79-.09-1.32-.13-2-.09-1.34-.13-2-.08-1.2-.12-1.69-.07-.87-.1-1.16a2.51,2.51,0,0,0,0-.39l3.3-.82c0,.12,0,.37.07.78s.07.91.12,1.51.1,1.27.15,2,.09,1.49.12,2.26l.17,5.16c0,.29,0,.61,0,1a5.7,5.7,0,0,1-.17,1.06,5,5,0,0,1-.4,1.07,3.76,3.76,0,0,1-.71,1,4.87,4.87,0,0,1-3.6,1.29h-.59a1.79,1.79,0,0,1-.65-.13,1.9,1.9,0,0,1-.52-.35,1.81,1.81,0,0,1-.35-.53A1.7,1.7,0,0,1,89.88,285.8Z" style="fill:#fff"/><path d="M118.13,285.87a1.64,1.64,0,0,1-1.64,1.65h0a2.83,2.83,0,0,1-2.17-1,2.55,2.55,0,0,1-1.93.72q-1.11,0-5.82-2l.59,9.38-3.14.56c-.3-6.19-.47-9.62-.49-10.29a3.16,3.16,0,0,1,.13-.93,3.19,3.19,0,0,1,.5-1,2.54,2.54,0,0,1,2.47-1.05,8.81,8.81,0,0,1,1.11-2.18,4.25,4.25,0,0,1,3.48-2.18,3.86,3.86,0,0,1,3.32,1.72,6.26,6.26,0,0,1,.73,1.49,6.87,6.87,0,0,1,.29,1.34.41.41,0,0,1,0,.11c0,.11,0,.22,0,.33a3.71,3.71,0,0,0,.31,1.18c.17.37.37.55.61.55a1.64,1.64,0,0,1,1.16.49A1.59,1.59,0,0,1,118.13,285.87Zm-5-1.76a6.28,6.28,0,0,0-.21-1.46c-.25-1-.67-1.58-1.26-1.75a1.49,1.49,0,0,0-1.06.09,1.91,1.91,0,0,0-.73.62,3.86,3.86,0,0,0-.58,1.07Z" style="fill:#fff"/><path d="M114.49,285.8a1.57,1.57,0,0,1,.13-.65,1.75,1.75,0,0,1,.35-.53,1.59,1.59,0,0,1,.52-.35,1.75,1.75,0,0,1,.65-.12h1.66c.31,0,.65,0,1,0s.74-.08,1.08-.14a4.85,4.85,0,0,0,1-.26,1.32,1.32,0,0,0,.62-.41.85.85,0,0,0,.11-.48,3.35,3.35,0,0,0-.21-1.06,11.74,11.74,0,0,0-.51-1.25q-.28-.64-.6-1.23c-.2-.38-.37-.71-.49-1l3-1.47a9.78,9.78,0,0,1,.63,1.33c.2.52.38,1,.54,1.58s.29,1.07.39,1.59a8,8,0,0,1,.14,1.35,4.88,4.88,0,0,1-.37,1.93,4.46,4.46,0,0,1-1.2,1.62,5,5,0,0,1-1.83.95,5.72,5.72,0,0,1-.78.13c-.31,0-.63.06-1,.08l-.91,0h-2.27a1.75,1.75,0,0,1-.65-.13A1.45,1.45,0,0,1,115,287a1.63,1.63,0,0,1-.35-.53A1.53,1.53,0,0,1,114.49,285.8Zm10.09,5.08-2,2-2-2-2,2-2-2,2-2,2,2,2-2Z" style="fill:#fff"/><path d="M126.63,282.57a10.58,10.58,0,0,0,1,.57c.39.18.8.36,1.21.51a9.28,9.28,0,0,0,1.21.38,4.11,4.11,0,0,0,1,.15l.41,0,.52-.06a5.59,5.59,0,0,0,.56-.12,2.69,2.69,0,0,0,.52-.21,1.26,1.26,0,0,0,.38-.3.65.65,0,0,0,.16-.41,2.13,2.13,0,0,0-.25-.92,6.33,6.33,0,0,0-.69-1.06,11.26,11.26,0,0,0-1-1.13c-.38-.38-.77-.75-1.17-1.1s-.81-.68-1.21-1-.78-.56-1.12-.78l1.85-2.74a21.74,21.74,0,0,1,2,1.59,18,18,0,0,1,1.85,1.86,14.46,14.46,0,0,1,1.46,2,8.1,8.1,0,0,1,.88,2.11,3.14,3.14,0,0,1,.12.61c0,.2,0,.4,0,.59a4.06,4.06,0,0,1-.38,1.78,4.3,4.3,0,0,1-1,1.39,4.76,4.76,0,0,1-1.62.92,6.4,6.4,0,0,1-2.06.32H131a7.48,7.48,0,0,1-1.47-.15A12.58,12.58,0,0,1,128,287a13,13,0,0,1-1.43-.59,11.13,11.13,0,0,1-1.29-.7Z" style="fill:#fff"/><path d="M145.35,287.45l-.64,0a2.72,2.72,0,0,1-.9-.23,7.92,7.92,0,0,1-.86,2.46,10.89,10.89,0,0,1-1.56,2.18,14.3,14.3,0,0,1-2.12,1.88,18.4,18.4,0,0,1-2.54,1.53l-1.91-2.64c.5-.25,1-.52,1.5-.82s1-.61,1.43-.94a13.23,13.23,0,0,0,1.27-1,8.12,8.12,0,0,0,1-1.11,5.75,5.75,0,0,0,.69-1.18,3.05,3.05,0,0,0,.25-1.21v-.1a.49.49,0,0,1,0-.12V286s0,0,0,0v0a10,10,0,0,0-.21-1.16,10.32,10.32,0,0,0-.34-1.13c-.13-.38-.29-.78-.47-1.21s-.38-.88-.61-1.38l3-1.31c.28.83.54,1.53.78,2.08a7,7,0,0,0,.72,1.34,2.21,2.21,0,0,0,.7.7,1.47,1.47,0,0,0,.75.21h.05a1.57,1.57,0,0,1,.65.13,1.77,1.77,0,0,1,.53.36,1.58,1.58,0,0,1,.35.53,1.64,1.64,0,0,1,0,1.28,1.49,1.49,0,0,1-.35.53,1.72,1.72,0,0,1-.53.34A1.76,1.76,0,0,1,145.35,287.45Z" style="fill:#fff"/><path d="M143.4,285.81a1.59,1.59,0,0,1,.13-.66,1.47,1.47,0,0,1,.36-.53,1.73,1.73,0,0,1,.55-.35,2,2,0,0,1,.72-.12h1.09l1.24,0a11,11,0,0,0,1.31-.1,6,6,0,0,0,1.14-.27,1.53,1.53,0,0,0,.74-.49,2,2,0,0,0,.31-1.09,2.15,2.15,0,0,0,0-.43,3.82,3.82,0,0,0-.09-.44,2.87,2.87,0,0,0-.3-.63,9.79,9.79,0,0,0-.6-.82q-.37-.44-.84-.93c-.31-.34-.65-.67-1-1s-.73-.68-1.12-1-.78-.68-1.17-1l.33-2.83,8.76-3.91,1.26,2.8-6.92,3.21a10.6,10.6,0,0,1,1.05.85,13.31,13.31,0,0,1,1.05,1.07,12.89,12.89,0,0,1,1,1.22,12.23,12.23,0,0,1,.79,1.33,8.18,8.18,0,0,1,.52,1.37,4.87,4.87,0,0,1,.19,1.34,5.65,5.65,0,0,1-.21,1.46,6,6,0,0,1-.49,1.2,4.76,4.76,0,0,1-3.58,2.37h0a3.69,3.69,0,0,1-.53.07l-.49,0h-3.37a2,2,0,0,1-.71-.13,1.61,1.61,0,0,1-.56-.35,1.73,1.73,0,0,1-.36-.52A1.7,1.7,0,0,1,143.4,285.81Z" style="fill:#fff"/><path d="M170.51,294.25a19.76,19.76,0,0,1-2-.11,10.09,10.09,0,0,1-2-.41,7.12,7.12,0,0,1-1.78-.85,4.87,4.87,0,0,1-1.39-1.43,7.1,7.1,0,0,1-.82-1.86,7.94,7.94,0,0,1-.29-2.26,16.45,16.45,0,0,1,.08-1.75,15.07,15.07,0,0,1,.24-1.64c.11-.54.26-1.09.43-1.65s.4-1.15.65-1.77l2.68,1.11c-.2.5-.38,1-.52,1.36s-.26.77-.36,1.1-.17.64-.23.91-.1.55-.12.8,0,.51-.06.75,0,.51,0,.78a3.55,3.55,0,0,0,.25,1.36,3.08,3.08,0,0,0,.68,1,4,4,0,0,0,1,.65,5.86,5.86,0,0,0,1.16.39,9.85,9.85,0,0,0,1.23.19c.41,0,.8.05,1.17.05.18,0,.45,0,.8,0s.75-.06,1.17-.12.85-.14,1.29-.24a6.62,6.62,0,0,0,1.21-.36,3.18,3.18,0,0,0,.88-.5.85.85,0,0,0,.35-.67s-.06-.08-.17-.15a4.94,4.94,0,0,0-.47-.24l-.69-.31c-.26-.12-.54-.23-.84-.35h0a8.49,8.49,0,0,0-1.05-.27c-.37-.07-.72-.14-1.08-.19l-.21,0-.27-.05-.27-.05-.21-.05.43-3.17h8.37a1.68,1.68,0,0,1,.63.12,1.75,1.75,0,0,1,.53.35,1.77,1.77,0,0,1,.36.53,1.58,1.58,0,0,1,.14.65,1.53,1.53,0,0,1-.14.64,1.66,1.66,0,0,1-.36.53,1.58,1.58,0,0,1-.53.35,1.69,1.69,0,0,1-.63.13H178.6a3.84,3.84,0,0,1,.32.83,5,5,0,0,1,.11.73,3.88,3.88,0,0,1-.5,1.75,5.25,5.25,0,0,1-1.14,1.35,7.1,7.1,0,0,1-1.59,1,11.89,11.89,0,0,1-1.81.66,12.24,12.24,0,0,1-1.84.37A12.42,12.42,0,0,1,170.51,294.25Z" style="fill:#fff"/><path d="M178.23,285.8a1.75,1.75,0,0,1,.13-.65,1.77,1.77,0,0,1,.36-.53,1.63,1.63,0,0,1,.53-.35,1.78,1.78,0,0,1,.65-.12h2a21.19,21.19,0,0,0,3.1-.21,20.34,20.34,0,0,0,2.65-.54,22,22,0,0,0,2.33-.8c.73-.3,1.45-.62,2.16-1a12,12,0,0,1-1.42-.49l-1.43-.56a13.76,13.76,0,0,0-1.42-.46,5.39,5.39,0,0,0-1.41-.2,1.91,1.91,0,0,0-.94.26,5.28,5.28,0,0,0-.84.6,5.4,5.4,0,0,0-.63.65,4.3,4.3,0,0,0-.32.43l-2.41-1.55a10.77,10.77,0,0,1,.94-1.37,7.43,7.43,0,0,1,1.2-1.18,5.56,5.56,0,0,1,1.41-.83,4.07,4.07,0,0,1,1.59-.32,5.73,5.73,0,0,1,1.23.14,10.47,10.47,0,0,1,1.22.33c.41.14.81.3,1.21.48l1.18.54,1.12.51c.37.17.76.33,1.15.47a10.19,10.19,0,0,0,1.23.35,7.34,7.34,0,0,0,1.35.15l-.26,3.2-1.48.71c-.61.29-1.21.59-1.81.9s-1.21.61-1.83.9-1.26.56-1.92.83a18.56,18.56,0,0,1-2.07.67,19.09,19.09,0,0,1-2.3.46,17.51,17.51,0,0,1-2.58.18h-2a1.69,1.69,0,0,1-1.18-.48,1.66,1.66,0,0,1-.36-.53A1.7,1.7,0,0,1,178.23,285.8Z" style="fill:#fff"/><path d="M197.38,287.48c0-.57.07-1.16.1-1.78s.07-1.21.09-1.81,0-1.18.05-1.75,0-1.08,0-1.55c0-1-.08-1.86-.12-2.6s-.08-1.41-.12-2-.07-1.09-.11-1.52-.08-.83-.12-1.2-.09-.7-.14-1-.1-.65-.15-1l3.22-1.06c.15.93.28,1.87.37,2.81s.17,1.86.22,2.72.08,1.67.1,2.42,0,1.38,0,1.91v1.55c0,.56,0,1.14,0,1.74s0,1.2-.05,1.81,0,1.21-.1,1.8Z" style="fill:#fff"/><path d="M210.26,287.45l-.65,0a2.72,2.72,0,0,1-.9-.23,7.92,7.92,0,0,1-.86,2.46,10.89,10.89,0,0,1-1.56,2.18,13.81,13.81,0,0,1-2.12,1.88,18.29,18.29,0,0,1-2.53,1.53l-1.91-2.64c.49-.25,1-.52,1.49-.82s1-.61,1.43-.94a13.39,13.39,0,0,0,1.28-1,9.61,9.61,0,0,0,1-1.11,5.27,5.27,0,0,0,.68-1.18,3.05,3.05,0,0,0,.25-1.21v-.1s0-.08,0-.12V286s0,0,0,0v0a8.24,8.24,0,0,0-.2-1.16c-.1-.37-.21-.75-.34-1.13s-.3-.78-.48-1.21l-.6-1.38,3-1.31c.28.83.54,1.53.78,2.08a8.38,8.38,0,0,0,.72,1.34,2.31,2.31,0,0,0,.7.7,1.47,1.47,0,0,0,.75.21h.06a1.53,1.53,0,0,1,.64.13,1.66,1.66,0,0,1,.53.36,1.77,1.77,0,0,1,.36.53,1.64,1.64,0,0,1,0,1.28,1.66,1.66,0,0,1-.36.53,1.61,1.61,0,0,1-.53.34A1.75,1.75,0,0,1,210.26,287.45Z" style="fill:#fff"/><path d="M208.48,285.8a1.53,1.53,0,0,1,.14-.64,1.86,1.86,0,0,1,.36-.52,1.73,1.73,0,0,1,.52-.36,1.59,1.59,0,0,1,.64-.13h1.21c.12-.2.28-.48.49-.82a10.1,10.1,0,0,1,.82-1.13c.05-.44.1-1,.14-1.62s.07-1.34.08-2.09c0-.41,0-.89,0-1.42s-.06-1.11-.12-1.74-.11-1.29-.19-2-.16-1.44-.25-2.19l3.36-.86c.1.72.18,1.41.26,2.08s.14,1.33.19,2,.1,1.34.12,2,.05,1.4.05,2.14c.36-.28.73-.55,1.12-.8a7.59,7.59,0,0,1,2.49-1.11,5.78,5.78,0,0,1,1.4-.16,4.79,4.79,0,0,1,1.62.27,4.12,4.12,0,0,1,2.32,2,4.4,4.4,0,0,1,.48,1.65,6.31,6.31,0,0,1-.3,2.27,5.93,5.93,0,0,1-1,1.79,6.57,6.57,0,0,1-1.56,1.35,10.31,10.31,0,0,1-1.95.93,12,12,0,0,1-2.18.53,14.57,14.57,0,0,1-2.27.18h-6.27a1.78,1.78,0,0,1-.64-.13,1.61,1.61,0,0,1-.88-.87A1.58,1.58,0,0,1,208.48,285.8Zm12.46-6a3.74,3.74,0,0,0-1.41.29,7.41,7.41,0,0,0-1.61.89,12.47,12.47,0,0,0-1.63,1.37,12.19,12.19,0,0,0-1.45,1.79l.76.05h.73a11.65,11.65,0,0,0,2.82-.31,8.72,8.72,0,0,0,2.14-.78,4.44,4.44,0,0,0,1.35-1,1.61,1.61,0,0,0,.43-1.1.93.93,0,0,0-.27-.54,1.71,1.71,0,0,0-.51-.35,2.68,2.68,0,0,0-.66-.2A3.4,3.4,0,0,0,220.94,279.81Z" style="fill:#fff"/><path d="M240.14,294.63q-.72,0-1.47-.06a10.69,10.69,0,0,1-1.5-.26,7.91,7.91,0,0,1-1.43-.53,5.18,5.18,0,0,1-1.28-.87,5.9,5.9,0,0,1-1-1.15,6.92,6.92,0,0,1-.72-1.34,7.38,7.38,0,0,1-.42-1.48,9.19,9.19,0,0,1-.14-1.58,11.3,11.3,0,0,1,.55-3.45,13,13,0,0,1,1.62-3.37l2.35,1.69a5.52,5.52,0,0,0-.49.84,13.52,13.52,0,0,0-.55,1.29,11.39,11.39,0,0,0-.43,1.53,7.05,7.05,0,0,0-.18,1.56,3.17,3.17,0,0,0,.39,1.56,3.86,3.86,0,0,0,1,1.2A5,5,0,0,0,238,291a6.08,6.08,0,0,0,1.76.31,7.49,7.49,0,0,0,1.44-.13,6.41,6.41,0,0,0,1.33-.4,5.22,5.22,0,0,0,1.14-.63,4.47,4.47,0,0,0,.89-.84,3.47,3.47,0,0,0,.56-1,2.72,2.72,0,0,0,.16-1.14,5.23,5.23,0,0,0-.16-1c-.1-.37-.22-.76-.35-1.15s-.29-.78-.45-1.17-.32-.73-.46-1.05-.27-.61-.37-.83-.17-.39-.2-.47l2.84-1.58a3.78,3.78,0,0,1,.18.38c.1.22.23.51.37.86s.29.75.45,1.2.31.93.45,1.42.27,1,.38,1.5a9.79,9.79,0,0,1,.19,1.45,1.34,1.34,0,0,1,0,.21v.2a8.88,8.88,0,0,1-.2,1.85,7.45,7.45,0,0,1-.65,1.76,7.08,7.08,0,0,1-1.08,1.55,6.71,6.71,0,0,1-1.54,1.24,7.92,7.92,0,0,1-2,.83A9.8,9.8,0,0,1,240.14,294.63Zm0-17.22,2.32,2.31L240.14,282l-2.31-2.32Z" style="fill:#fff"/><path d="M248.79,291.59a17.71,17.71,0,0,0,2.67-.74,12.06,12.06,0,0,0,2.1-1A7,7,0,0,0,255,288.7a4,4,0,0,0,.84-1.25l-.91,0-.78,0a7.37,7.37,0,0,1-2.22-.53,4,4,0,0,1-1.59-1.18,3.44,3.44,0,0,1-.62-1.22,5.24,5.24,0,0,1-.18-1.39,6.24,6.24,0,0,1,.1-1.13,8.22,8.22,0,0,1,.29-1.11,7.05,7.05,0,0,1,.45-1,6.25,6.25,0,0,1,.54-.88,4.53,4.53,0,0,1,1.37-1.18,3.28,3.28,0,0,1,1.58-.4,4.25,4.25,0,0,1,3.18,1.54,7.89,7.89,0,0,1,.79,1.08,8.83,8.83,0,0,1,.63,1.27,9.25,9.25,0,0,1,.44,1.41,10.29,10.29,0,0,1,.24,1.49h.19a1.63,1.63,0,0,1,1.18.47,1.77,1.77,0,0,1,.36.53,1.59,1.59,0,0,1,.13.66,1.51,1.51,0,0,1-.13.63,1.73,1.73,0,0,1-.36.52,1.77,1.77,0,0,1-.53.36,1.75,1.75,0,0,1-.65.13h-.46a8.47,8.47,0,0,1-1.29,2.77,10.19,10.19,0,0,1-2.13,2.17,12.33,12.33,0,0,1-2.76,1.54,14.62,14.62,0,0,1-3.18.86Zm5.12-10.93a.85.85,0,0,0-.51.21,2.28,2.28,0,0,0-.52.51,3.19,3.19,0,0,0-.4.7,1.91,1.91,0,0,0-.16.75.85.85,0,0,0,.2.59,1.59,1.59,0,0,0,.5.37,3.38,3.38,0,0,0,.68.21c.24,0,.48.08.71.1l.41,0h.94l.43,0a4.81,4.81,0,0,0-.23-1,6.41,6.41,0,0,0-.35-.84,5.05,5.05,0,0,0-.42-.69,6.8,6.8,0,0,0-.43-.54l-.18-.15-.23-.16-.23-.11A1,1,0,0,0,253.91,280.66Z" style="fill:#fff"/><path d="M257.36,285.8a1.57,1.57,0,0,1,.13-.65,1.75,1.75,0,0,1,.35-.53,1.59,1.59,0,0,1,.52-.35,1.75,1.75,0,0,1,.65-.12h1.66c.31,0,.65,0,1,0s.74-.08,1.08-.14a4.85,4.85,0,0,0,1-.26,1.32,1.32,0,0,0,.62-.41.85.85,0,0,0,.11-.48,3.35,3.35,0,0,0-.21-1.06,11.74,11.74,0,0,0-.51-1.25q-.28-.64-.6-1.23c-.2-.38-.37-.71-.49-1l3-1.47a9.78,9.78,0,0,1,.63,1.33c.2.52.38,1,.54,1.58s.29,1.07.39,1.59a7.11,7.11,0,0,1,.14,1.35,4.88,4.88,0,0,1-.37,1.93,4.46,4.46,0,0,1-1.2,1.62,5,5,0,0,1-1.83.95,5.72,5.72,0,0,1-.78.13c-.31,0-.63.06-.95.08l-.91,0H259a1.75,1.75,0,0,1-.65-.13,1.45,1.45,0,0,1-.52-.35,1.63,1.63,0,0,1-.35-.53A1.53,1.53,0,0,1,257.36,285.8Zm10.44-12-2,2-2-2-2,2-2-2,2-2,2,2,2-2Z" style="fill:#fff"/><path d="M269.18,287.48c0-.57.07-1.16.11-1.78s.06-1.21.08-1.81,0-1.18.05-1.75,0-1.08,0-1.55c0-1-.08-1.86-.12-2.6s-.08-1.41-.11-2-.08-1.09-.12-1.52-.08-.83-.12-1.2-.09-.7-.14-1-.1-.65-.15-1l3.22-1.06c.16.93.28,1.87.37,2.81s.17,1.86.22,2.72.08,1.67.1,2.42,0,1.38,0,1.91v1.55c0,.56,0,1.14,0,1.74s0,1.2-.05,1.81-.05,1.21-.09,1.8Z" style="fill:#fff"/><path d="M282.06,287.45l-.65,0a2.72,2.72,0,0,1-.9-.23,7.92,7.92,0,0,1-.86,2.46,10.89,10.89,0,0,1-1.56,2.18A13.81,13.81,0,0,1,276,293.7a18.29,18.29,0,0,1-2.53,1.53l-1.91-2.64c.49-.25,1-.52,1.49-.82s1-.61,1.44-.94a14.6,14.6,0,0,0,1.27-1,9.61,9.61,0,0,0,1-1.11,5.75,5.75,0,0,0,.69-1.18,3.24,3.24,0,0,0,.25-1.21s0-.06,0-.1v-.12s0-.07,0-.1,0,0,0,0v0a8.24,8.24,0,0,0-.2-1.16c-.09-.37-.21-.75-.34-1.13s-.3-.78-.48-1.21l-.6-1.38,3-1.31c.28.83.54,1.53.78,2.08a8.38,8.38,0,0,0,.72,1.34,2.31,2.31,0,0,0,.7.7,1.48,1.48,0,0,0,.76.21h.05a1.53,1.53,0,0,1,.64.13,1.66,1.66,0,0,1,.53.36,1.77,1.77,0,0,1,.36.53,1.64,1.64,0,0,1,0,1.28,1.66,1.66,0,0,1-.36.53,1.61,1.61,0,0,1-.53.34A1.75,1.75,0,0,1,282.06,287.45Z" style="fill:#fff"/><path d="M280.25,285.8a1.75,1.75,0,0,1,.13-.65,2,2,0,0,1,.35-.53,1.7,1.7,0,0,1,.52-.35,1.78,1.78,0,0,1,.65-.12h1.55l.8,0a4.77,4.77,0,0,0,.8-.13,2.52,2.52,0,0,0,.65-.26,1,1,0,0,0,.42-.45,1.54,1.54,0,0,0,.08-.56,2.85,2.85,0,0,0-.15-.75,9.79,9.79,0,0,0-.38-1.11c-.16-.41-.34-.84-.54-1.28s-.41-.87-.62-1.26l3-1.49c.2.44.39.91.58,1.4s.37,1,.52,1.5a14.59,14.59,0,0,1,.37,1.52,8.35,8.35,0,0,1,.14,1.45,4.72,4.72,0,0,1-.38,1.93,4.55,4.55,0,0,1-1.19,1.62,5,5,0,0,1-1.83.95,6.89,6.89,0,0,1-1.2.21c-.38,0-.74,0-1.08,0H281.9a1.79,1.79,0,0,1-.65-.13,1.54,1.54,0,0,1-.52-.35,1.81,1.81,0,0,1-.35-.53A1.7,1.7,0,0,1,280.25,285.8Zm4.74,2.59,2.32,2.32L285,293l-2.32-2.32Z" style="fill:#fff"/><path d="M301,286a7.19,7.19,0,0,1-2.55-.4,4,4,0,0,1-1.69-1.13,3.11,3.11,0,0,1-.53-1,3.94,3.94,0,0,1-.16-1.05,4.74,4.74,0,0,1,.07-.79,3.32,3.32,0,0,1,.18-.6,6,6,0,0,1,1-1.54,8.89,8.89,0,0,1,1.27-1.14,9.39,9.39,0,0,1,1.32-.81c.43-.22.82-.39,1.16-.53,0-.16,0-.32,0-.49s0-.33,0-.48l0-.66,3.25-.7c0,.06,0,.21,0,.44s.05.5.08.82.07.65.11,1,.07.7.1,1,.06.58.08.81,0,.37.05.42c.11.86.19,1.56.27,2.11s.13,1,.19,1.31.09.55.13.7a1.77,1.77,0,0,0,.08.28.87.87,0,0,0,.47.47,2.49,2.49,0,0,0,.85.13,1.69,1.69,0,0,1,.64.12,1.75,1.75,0,0,1,.53.35,1.77,1.77,0,0,1,.36.53,1.57,1.57,0,0,1,.13.65,1.53,1.53,0,0,1-.13.64,1.66,1.66,0,0,1-.36.53,2,2,0,0,1-.53.35,1.7,1.7,0,0,1-.64.13l-.49,0-.57-.06a5.27,5.27,0,0,1-.61-.14,5.33,5.33,0,0,1-.63-.23,3.88,3.88,0,0,1-.77-.48,3.71,3.71,0,0,1-.63-.67c-.36,0-.7.08-1,.1Zm-.07-3.27.46,0,.45,0c0-.24-.07-.5-.11-.8s-.07-.6-.11-.94l-.1-1c-.27.14-.56.29-.89.48a10.31,10.31,0,0,0-.92.58,5.27,5.27,0,0,0-.73.63.93.93,0,0,0-.29.59c0,.09.08.16.24.22a3.1,3.1,0,0,0,.57.15c.23,0,.48.06.74.08Z" style="fill:#fff"/><path d="M304.83,285.81a1.76,1.76,0,0,1,.12-.66,1.47,1.47,0,0,1,.36-.53,1.84,1.84,0,0,1,.55-.35,2.05,2.05,0,0,1,.72-.12h1.09l1.25,0a11.21,11.21,0,0,0,1.31-.1,5.68,5.68,0,0,0,1.13-.27,1.48,1.48,0,0,0,.74-.49,1.93,1.93,0,0,0,.31-1.09,3.22,3.22,0,0,0,0-.43l-.09-.44a3,3,0,0,0-.31-.63,9.79,9.79,0,0,0-.6-.82c-.25-.29-.52-.6-.84-.93s-.64-.67-1-1-.72-.68-1.11-1-.78-.68-1.17-1l.32-2.83,8.77-3.91,1.26,2.8-6.93,3.21a10.6,10.6,0,0,1,1.05.85,13.41,13.41,0,0,1,1.06,1.07,12.89,12.89,0,0,1,1,1.22,10.71,10.71,0,0,1,.78,1.33,8.23,8.23,0,0,1,.53,1.37,4.5,4.5,0,0,1,.18,1.34,5.65,5.65,0,0,1-.21,1.46,5.47,5.47,0,0,1-.49,1.2,4.74,4.74,0,0,1-3.58,2.37h0a3.51,3.51,0,0,1-.53.07l-.49,0h-3.37a2,2,0,0,1-.71-.13,1.48,1.48,0,0,1-.55-.35,1.43,1.43,0,0,1-.36-.52A1.53,1.53,0,0,1,304.83,285.81Z" style="fill:#fff"/><path d="M331.94,294.25a19.61,19.61,0,0,1-2-.11,10,10,0,0,1-2-.41,7.28,7.28,0,0,1-1.78-.85,4.84,4.84,0,0,1-1.38-1.43,7.13,7.13,0,0,1-.83-1.86,8.31,8.31,0,0,1-.29-2.26c0-.61,0-1.19.08-1.75a15.07,15.07,0,0,1,.24-1.64c.12-.54.26-1.09.44-1.65s.39-1.15.64-1.77l2.68,1.11c-.2.5-.37,1-.52,1.36s-.26.77-.36,1.1-.17.64-.23.91-.09.55-.12.8a6.59,6.59,0,0,0,0,.75c0,.25,0,.51,0,.78a3.37,3.37,0,0,0,.25,1.36,2.79,2.79,0,0,0,.68,1,3.72,3.72,0,0,0,1,.65,5.74,5.74,0,0,0,1.17.39,10,10,0,0,0,1.22.19c.41,0,.81.05,1.18.05.18,0,.44,0,.8,0s.74-.06,1.16-.12.85-.14,1.3-.24a6.51,6.51,0,0,0,1.2-.36,3.24,3.24,0,0,0,.89-.5.84.84,0,0,0,.34-.67s-.05-.08-.17-.15a4,4,0,0,0-.47-.24l-.69-.31c-.26-.12-.54-.23-.84-.35h0a8.05,8.05,0,0,0-1.05-.27c-.36-.07-.72-.14-1.08-.19l-.21,0-.27-.05-.26-.05-.22-.05.43-3.17h8.37a1.73,1.73,0,0,1,.64.12,1.7,1.7,0,0,1,.52.35,1.77,1.77,0,0,1,.36.53,1.58,1.58,0,0,1,.14.65,1.53,1.53,0,0,1-.14.64,1.66,1.66,0,0,1-.36.53,1.54,1.54,0,0,1-.52.35,1.74,1.74,0,0,1-.64.13H340a3.38,3.38,0,0,1,.32.83,3.93,3.93,0,0,1,.11.73,3.76,3.76,0,0,1-.5,1.75,4.88,4.88,0,0,1-1.14,1.35,6.82,6.82,0,0,1-1.58,1,12.83,12.83,0,0,1-3.65,1A12.54,12.54,0,0,1,331.94,294.25Z" style="fill:#fff"/><path d="M339.31,285.8a1.75,1.75,0,0,1,.13-.65,2,2,0,0,1,.35-.53,1.7,1.7,0,0,1,.52-.35,1.78,1.78,0,0,1,.65-.12h1.66c.31,0,.66,0,1,0s.74-.08,1.09-.14a5,5,0,0,0,.94-.26,1.32,1.32,0,0,0,.62-.41.85.85,0,0,0,.12-.48,3.13,3.13,0,0,0-.22-1.06c-.14-.41-.31-.83-.5-1.25s-.4-.84-.6-1.23-.37-.71-.5-1l3-1.47a11.19,11.19,0,0,1,.62,1.33c.2.52.38,1,.55,1.58s.28,1.07.38,1.59a7.21,7.21,0,0,1,.15,1.35,4.89,4.89,0,0,1-.38,1.93,4.46,4.46,0,0,1-1.2,1.62,5,5,0,0,1-1.82.95,5.64,5.64,0,0,1-.79.13c-.31,0-.63.06-.95.08l-.9,0H341a1.79,1.79,0,0,1-.65-.13,1.54,1.54,0,0,1-.52-.35,1.81,1.81,0,0,1-.35-.53A1.7,1.7,0,0,1,339.31,285.8Zm10.45-12-2,2-2-2-2,2-2-2,2-2,2,2,2-2Z" style="fill:#fff"/><path d="M356.35,287.45a6.81,6.81,0,0,1-2.2-.32,4.34,4.34,0,0,1-1.59-1,3.6,3.6,0,0,1-.64-.87,3.81,3.81,0,0,1-.32-.91,4.25,4.25,0,0,1-.12-.84c0-.26,0-.49,0-.68v-.15c0-.26,0-.63,0-1.11s0-1.06,0-1.71,0-1.37,0-2.16,0-1.57-.06-2.35-.07-1.54-.13-2.26a15.91,15.91,0,0,0-.25-1.89l3.12-1c.09.46.16,1,.22,1.62s.1,1.28.14,2,.07,1.37.09,2,0,1.33,0,1.92a12.71,12.71,0,0,1-.06,1.53c0,.5-.08,1-.11,1.46a12.83,12.83,0,0,0,0,1.39,4.52,4.52,0,0,0,.29,1.31,1,1,0,0,0,.23.37,1,1,0,0,0,.33.18,1.67,1.67,0,0,0,.41.07h.59a1.56,1.56,0,0,1,.64.13,1.61,1.61,0,0,1,.52.36,2,2,0,0,1,.37.53,1.64,1.64,0,0,1,0,1.28,1.86,1.86,0,0,1-.37.53,1.45,1.45,0,0,1-.52.35A1.74,1.74,0,0,1,356.35,287.45Z" style="fill:#fff"/><path d="M354.61,285.8a1.57,1.57,0,0,1,.13-.65,1.75,1.75,0,0,1,.35-.53,1.7,1.7,0,0,1,.52-.35,1.75,1.75,0,0,1,.65-.12h1.54l.81,0a4.65,4.65,0,0,0,.79-.13,2.46,2.46,0,0,0,.66-.26.94.94,0,0,0,.41-.45,1.33,1.33,0,0,0,.09-.56,2.85,2.85,0,0,0-.15-.75c-.1-.34-.23-.71-.38-1.11s-.35-.84-.55-1.28-.4-.87-.61-1.26l3-1.49c.2.44.39.91.58,1.4s.36,1,.52,1.5.27,1,.37,1.52a8.35,8.35,0,0,1,.14,1.45,4.89,4.89,0,0,1-.38,1.93,4.46,4.46,0,0,1-1.2,1.62,4.94,4.94,0,0,1-1.82.95,6.89,6.89,0,0,1-1.2.21c-.39,0-.74,0-1.08,0h-1.52a1.75,1.75,0,0,1-.65-.13,1.54,1.54,0,0,1-.52-.35,1.63,1.63,0,0,1-.35-.53A1.53,1.53,0,0,1,354.61,285.8Zm5.16-14.86,2.32,2.31-2.32,2.32-2.31-2.32Z" style="fill:#fff"/><path d="M370.23,287.45a6.77,6.77,0,0,1-2.2-.32,4.34,4.34,0,0,1-1.59-1,3.35,3.35,0,0,1-.64-.87,3.81,3.81,0,0,1-.32-.91,4.25,4.25,0,0,1-.12-.84c0-.26,0-.49,0-.68v-.15c0-.26,0-.63,0-1.11s0-1.06,0-1.71,0-1.37,0-2.16,0-1.57-.06-2.35-.08-1.54-.14-2.26a16.1,16.1,0,0,0-.24-1.89l3.12-1c.09.46.16,1,.22,1.62s.1,1.28.14,2,.07,1.37.08,2,0,1.33,0,1.92a12.71,12.71,0,0,1-.06,1.53c0,.5-.08,1-.11,1.46a10.7,10.7,0,0,0,0,1.39,4.51,4.51,0,0,0,.28,1.31,1,1,0,0,0,.24.37.88.88,0,0,0,.33.18,1.67,1.67,0,0,0,.41.07h.59a1.59,1.59,0,0,1,.64.13,1.73,1.73,0,0,1,.52.36,1.77,1.77,0,0,1,.36.53,1.53,1.53,0,0,1,0,1.28,1.66,1.66,0,0,1-.36.53,1.54,1.54,0,0,1-.52.35A1.78,1.78,0,0,1,370.23,287.45Z" style="fill:#fff"/><path d="M368.56,285.8a1.57,1.57,0,0,1,.13-.65,1.61,1.61,0,0,1,.36-.52,1.75,1.75,0,0,1,.53-.35,1.59,1.59,0,0,1,.64-.13h3.54a2.13,2.13,0,0,0,.69-.13,3.57,3.57,0,0,0,.75-.33,2.84,2.84,0,0,0,.61-.45,1,1,0,0,0,.31-.52,3,3,0,0,0-.19-1.13,7,7,0,0,0-.61-1.23,11.49,11.49,0,0,0-.91-1.27c-.34-.42-.69-.82-1.06-1.2s-.74-.74-1.11-1.07-.71-.61-1-.84l.28-2.87,9.59-4L382.3,272l-7.92,3.24c.48.44.92.87,1.31,1.29s.74.84,1.07,1.26.62.84.88,1.26.52.86.75,1.31l.1.19h0l.48.87c.16.29.32.58.5.87a5.81,5.81,0,0,0,.55.73,3.73,3.73,0,0,0,.66.6,2.77,2.77,0,0,0,.75.42,2.73,2.73,0,0,0,.86.16h.43a1.57,1.57,0,0,1,.65.13,1.7,1.7,0,0,1,.52.35,1.45,1.45,0,0,1,.35.52,1.57,1.57,0,0,1,.13.65,1.53,1.53,0,0,1-.13.64,1.49,1.49,0,0,1-.35.53,1.54,1.54,0,0,1-.52.35,1.75,1.75,0,0,1-.65.13h-.08A8.19,8.19,0,0,1,380,287a4.69,4.69,0,0,1-1.17-.62,6.86,6.86,0,0,1-1-.86l-.27.3-.29.3a4.2,4.2,0,0,1-.83.59,5.1,5.1,0,0,1-.9.39,6.11,6.11,0,0,1-.94.22l-1,.09h-3.4a1.78,1.78,0,0,1-.64-.13,1.58,1.58,0,0,1-.53-.35,1.66,1.66,0,0,1-.36-.53A1.53,1.53,0,0,1,368.56,285.8Z" style="fill:#fff"/><path d="M381.06,285.8a1.53,1.53,0,0,1,.13-.64,1.47,1.47,0,0,1,.34-.51,1.78,1.78,0,0,1,1.16-.5,2.57,2.57,0,0,0,1.21-.27,3.34,3.34,0,0,0,.92-.71,6.46,6.46,0,0,0,.71-1c.21-.37.4-.73.59-1.09h0c.18-.37.38-.75.58-1.12a9.46,9.46,0,0,1,.67-1,4.36,4.36,0,0,1,1.27-1,3.18,3.18,0,0,1,1.49-.36,3.7,3.7,0,0,1,1.7.39,4.58,4.58,0,0,1,1.4,1.11,4.83,4.83,0,0,1,.76,1.29,6.36,6.36,0,0,1,.39,1.53v0a6.41,6.41,0,0,1,.06.93,5.63,5.63,0,0,1-.1,1.1,6.35,6.35,0,0,1-.28,1,4,4,0,0,1-1,1.47,3.63,3.63,0,0,1-1.4.81,4.26,4.26,0,0,1-.49.1l-.52,0a5.26,5.26,0,0,1-1-.11,7.66,7.66,0,0,1-1-.32c-.14-.06-.3-.13-.47-.22l-.55-.29-.57-.32c-.19-.11-.36-.22-.52-.33a10.38,10.38,0,0,1-.84.7,5.24,5.24,0,0,1-.87.54,6.29,6.29,0,0,1-1,.34,5.11,5.11,0,0,1-1.14.12,1.7,1.7,0,0,1-.64-.13,1.9,1.9,0,0,1-.52-.35,1.49,1.49,0,0,1-.35-.53A1.53,1.53,0,0,1,381.06,285.8Zm7.4-2.75a5,5,0,0,0,.77.41c.29.13.59.25.88.35s.56.19.81.26a2.14,2.14,0,0,0,.55.1h.19c.09,0,.17-.13.25-.32a2.12,2.12,0,0,0-.1-1.52,3.64,3.64,0,0,0-.49-.76,2.81,2.81,0,0,0-.7-.58,1.47,1.47,0,0,0-.79-.23c-.1,0-.23.13-.38.41s-.37.7-.67,1.24h0Z" style="fill:#fff"/><path d="M395.89,287.48c0-.57.07-1.16.1-1.78s.07-1.21.09-1.81,0-1.18.05-1.75,0-1.08,0-1.55c0-1-.08-1.86-.12-2.6s-.08-1.41-.12-2-.07-1.09-.11-1.52-.08-.83-.12-1.2-.09-.7-.14-1-.1-.65-.15-1l3.22-1.06c.15.93.28,1.87.37,2.81s.17,1.86.22,2.72.08,1.67.09,2.42,0,1.38,0,1.91v1.55q0,.84,0,1.74c0,.59,0,1.2,0,1.81s0,1.21-.1,1.8Z" style="fill:#fff"/><path d="M411.8,279.8c.27.75.49,1.48.69,2.2.08.31.17.64.25,1s.16.68.22,1,.12.66.17,1a7.28,7.28,0,0,1,.06.9,6.83,6.83,0,0,1-.27,1.91,8,8,0,0,1-.75,1.82,11.38,11.38,0,0,1-1.15,1.68,13.26,13.26,0,0,1-1.48,1.52,17.8,17.8,0,0,1-1.75,1.32,17.33,17.33,0,0,1-1.92,1.1l-1.9-2.64a16.56,16.56,0,0,0,1.52-.85,17.4,17.4,0,0,0,1.47-1,14.6,14.6,0,0,0,1.32-1.14,9,9,0,0,0,1.06-1.21,5.85,5.85,0,0,0,.72-1.24,3.32,3.32,0,0,0,.26-1.24,4.19,4.19,0,0,0-.12-.95c-.08-.34-.19-.71-.32-1.1s-.3-.81-.49-1.25l-.6-1.42ZM410,273.45l2.31,2.32L410,278.08l-2.32-2.31Z" style="fill:#fff"/><path d="M414.75,287.48c0-.57.07-1.16.11-1.78l.09-1.81c0-.6,0-1.18,0-1.75s0-1.08,0-1.55c0-1-.08-1.86-.12-2.6s-.07-1.41-.11-2-.08-1.09-.12-1.52-.07-.83-.12-1.2-.08-.7-.13-1-.1-.65-.16-1l3.23-1.06c.15.93.27,1.87.37,2.81s.16,1.86.21,2.72.08,1.67.1,2.42,0,1.38,0,1.91,0,1,0,1.55,0,1.14,0,1.74,0,1.2-.05,1.81-.05,1.21-.09,1.8Z" style="fill:#fff"/><path d="M50.92,217.06c-14-6.66-17.5,12.14-17.5,12.14s-19-2.18-16.76,13.15c2,13.51,35.45,12.17,35.45,12.17S63.25,222.93,50.92,217.06Z" style="fill:#ee7164"/><path d="M360.53,228.12c-4.35-11.66-16.88-2.78-16.88-2.78s-9.74-11.87-17-1.77c-6.4,8.9,13.66,26.83,13.66,26.83S364.37,238.39,360.53,228.12Z" style="fill:#ee7164"/><path d="M139.39,74.3c-7.3-13.67-21.29-.63-21.29-.63s-14-13-21.3.63c-6.43,12,21.3,30.84,21.3,30.84S145.82,86.34,139.39,74.3Z" style="fill:#ee7164"/><path d="M305.71,74.3c-7.3-13.67-21.29-.63-21.29-.63s-14-13-21.29.63c-6.44,12,21.29,30.84,21.29,30.84S312.15,86.34,305.71,74.3Z" style="fill:#ee7164"/></g></g></svg>