<?xml version="1.0" encoding="utf-8"?>
<!-- Generator: Adobe Illustrator 22.1.0, SVG Export Plug-In . SVG Version: 6.00 Build 0)  -->
<svg version="1.1" id="Layer_1" xmlns="http://www.w3.org/2000/svg" xmlns:xlink="http://www.w3.org/1999/xlink" x="0px" y="0px"
	 viewBox="0 0 239 200" style="enable-background:new 0 0 239 200;" xml:space="preserve">
<style type="text/css">
	.st0{fill:#9F3322;}
	.st1{fill:#F8DCC9;}
	.st2{fill:#F47536;}
	.st3{fill:#7CBDE7;}
	.st4{fill:#F47534;}
	.st5{fill:#D19691;}
	.st6{fill:#E7B7A6;}
	.st7{fill:#F47533;}
	.st8{fill:#5FAB80;}
	.st9{fill:#FFFFFF;}
	.st10{fill:#F15F22;}
	.st11{fill:#F26322;}
	.st12{fill:#FFEFE6;}
	.st13{fill:#F37124;}
	.st14{fill:#F37427;}
	.st15{fill:#F26122;}
	.st16{fill:#F37021;}
	.st17{fill:#F26622;}
	.st18{fill:#F26422;}
	.st19{fill:#F26A21;}
	.st20{fill:#F37022;}
	.st21{fill:#F47527;}
	.st22{fill:#F47D2C;}
	.st23{fill:#F58131;}
	.st24{fill:#F58334;}
	.st25{fill:#F26922;}
	.st26{fill:#F16022;}
	.st27{fill:#F5842D;}
	.st28{fill:#F58232;}
	.st29{fill:#F47D27;}
	.st30{fill:#F36F21;}
	.st31{fill:#F79346;}
	.st32{fill:#EF4323;}
	.st33{fill:#F57E2F;}
	.st34{fill:#F8AF64;}
	.st35{fill:#FDFEFF;}
	.st36{fill:#FDFDFE;}
	.st37{fill:#807836;}
	.st38{fill:#A97B3C;}
	.st39{fill:#E3E4E3;}
	.st40{fill:#FCFDFC;}
	.st41{fill:#FDFEFD;}
</style>
<g>
	<path class="st0" d="M151.4,43.3c0.7-0.5,1.5-0.8,2.3-0.9c0.5-0.1,0.9-0.2,1.3-0.5c0.8-0.6,1.9-0.5,2.6,0.2c0.7,0.6,1,1.6,0.6,2.5
		c-0.3,0.7-0.2,1.2,0,1.9c0.8,1.9,1,4,0.9,6.1c-0.1,1.1-0.7,2.1-1.9,2.4c-0.1,0-0.3,0.1-0.4,0.2c-0.4,0.7-1.1,0.9-1.7,1.4
		c-0.2,0.2-0.5,0.2-0.3,0.6c0.1,0.3,0.3,0.4,0.6,0.4c2.4,0,4.7,0,7-0.5c2.7-0.6,5.5-0.9,8.4-0.8c1.6,0.1,3.1,0.5,4.6,0.9
		c1.2,0.3,2.3,0.7,3.5,1c0.7,0.2,1.3,0.6,1.5,1.2c0.2,0.5,0.5,0.6,1,0.8c2.2,0.9,4.1,2.1,5.5,4c0.5,0.7,0.8,1.6,1.1,2.4
		c0.3,0.8,0.7,1.6,1.1,2.3c0.4,0.6,0.2,2-0.3,2.5c-0.3,0.3-0.7,0.3-1.1,0.1c-1.1-0.6-1.6-1.6-2.1-2.6c-0.4-0.8-0.8-1.7-1.1-2.5
		c-0.2-0.6-0.6-1.1-1.2-1.5c-1-0.7-2-1.5-3.2-1.9c-0.2-0.1-0.4-0.2-0.6-0.1c-1.3,0.8-2.5,0.2-3.8-0.2c-0.2-0.1-0.4-0.2-0.6,0
		c-0.5,0.5-1.2,0.6-1.9,0.6c-1.6,0.2-3.1,0.7-4.6,0.9c-2,0.3-4,0.1-6,0.2c-0.2,0-0.5,0-0.7,0c-0.1,0.3,0.1,0.5,0.3,0.6
		c1.1,1.1,1.5,2.5,1.8,4c0.1,0.5,0.4,0.9,0.6,1.3c4.6,7,1.7,16-6,19.1c-0.4,0.2-0.8,0.4-1.1,0.7c-1.4,1.2-3.1,1.4-4.8,1.5
		c-2.1,0.1-4,0.8-5.7,2.1c-0.8,0.6-1.2,1.4-1.6,2.3c-0.4,0.8-0.7,1.7-1.2,2.5c-0.1,0.2-0.1,0.3,0.1,0.4c0.7,0.5,1.3,1.1,2,1.6
		c2.8,1.7,3.6,4.2,1.8,7.3c-1.5,2.5-3.9,3.2-6.4,4c-1.5,0.5-3.1,0.8-4.9,1.2c0.8,0.3,1.3,0.6,1.9,0.7c1,0.3,1.9,1,2.8,1.5
		c0.5,0.4,0.5,1.2,0.6,1.8c0,0.2-0.3,0.4-0.4,0.2c-0.4-0.5-1.2-0.4-1.5-1.1c-0.1-0.3-0.4-0.2-0.6,0c-0.4,0.4-0.9,0.6-1.5,0.4
		c-0.5-0.1-0.6,0.1-0.7,0.5c0,0.3,0,0.6-0.1,0.9c-0.1,0.8-0.5,1.3-1.3,1.6c-0.7,0.2-1.5,0-2-0.6c-0.8-1.1-2-1.4-3.3-1.7
		c-0.9-0.2-1.9-0.2-2.8-0.3c-0.6-0.1-1.1-0.6-1.8-0.4c-0.3,0.1-0.6,0.2-0.9,0.2c-0.2,0.2-0.4,0.3-0.6,0.3c-1.3,0.3-2.4,1-3.5,1.7
		c-0.3,0.2-0.5,0.4-0.9,0.4c-0.8-0.3-1-0.8-0.6-1.5c0.3-0.5,0.4-1,0.6-1.5c0.4-1.3,1.4-2.1,2.6-2.6c0.4-0.2,0.8-0.4,1.2-0.7
		c0.6-0.4,1.2-0.6,1.9-0.6c2.1,0.1,4.1-0.4,6-0.9c1.5-0.4,2.8-1.3,3.3-3c0.2-0.7,0.4-1.5,0.5-2.2c0-0.2,0.1-0.5,0-0.7
		c-0.2-1.4-0.5-2.7-0.5-4.1c0-0.9-1.2-2-2-2.1c-0.4,0-0.8-0.1-1.1-0.3c-0.6-0.3-1-0.1-1.4,0.5c-0.8,1.1-1.4,2.3-2,3.5
		c-0.8,1.7-1.9,3.2-3.7,4.1c-0.4,0.2-0.7,0.6-1,0.9c-0.8,1.3-2,2-3.6,2.1c-0.3,0-0.6,0.2-0.9,0.3c-0.5,0.2-1,0.2-1.3-0.3
		c-0.3-0.5-0.1-0.9,0.3-1.3c0.6-0.5,1.4-1,1.9-1.7c0.1-0.1,0.2-0.2,0.4-0.3c-0.2,0.1-0.3,0.2-0.4,0.3c-0.4,0.4-0.8,0.7-1.4,0.7
		c-0.7,0.1-1.3-0.3-1.6-0.9c-0.3-0.6-0.3-1.4,0.2-1.9c1.3-1.3,1.9-3.1,2.7-4.7c0.5-1,0.8-2,1.3-3c0.9-1.7,0.7-3.4,0.5-5.2
		c-0.2-1.2-0.4-2.5-0.6-3.7c0-0.2-0.1-0.5,0-0.7c0.2-1-0.3-1.8-0.5-2.7c0-0.2-0.2-0.3-0.5-0.4c-1.6-0.4-1.9-0.8-2-2.4
		c0-0.2,0-0.3-0.1-0.5c-0.3,0.1-0.2,0.3-0.3,0.5c-0.2,0.4-0.5,0.6-1,0.6c-0.5-0.1-0.7-0.4-0.8-0.9c-0.1-0.3,0-0.7,0.1-1
		c0.2-0.7,0.5-1.5,0.7-2.2c0.1-0.3,0-0.5-0.4-0.3c-0.1,0.1-0.3,0.1-0.4,0.2c-1.4,0.5-2.7-0.3-2.8-1.8c0-0.6-0.3-0.6-0.7-0.7
		c-1.1-0.3-2.2-0.4-3.3-0.2c-0.2,0-0.4,0-0.6,0c-1.4-0.3-2.8-0.6-4.1-1.1c-1.7-0.7-3.6-1.2-5.1-2.5c-0.2-0.2-0.5-0.3-0.7-0.4
		c-0.9-0.5-1.7-1.1-2.3-2c-0.3-0.5-0.7-0.8-1.2-1c-1-0.4-1.9-1.1-2.5-2c-0.3-0.5-0.8-0.8-1.3-1.2c-0.3-0.3-0.6-0.2-0.9-0.1
		c-1.1,0.4-2.2,0.6-3.3,1c-1.1,0.5-2.3,0.1-3.4,0.2c-1,0.1-2.1,0.1-3.1,0.4c-0.8,0.2-1.7,0.3-2.5,0.4c-1.8,0.2-3.5,0.7-5.2,1.1
		c-1.7,0.4-3.3,0.9-4.9,1.5c-0.8,0.3-1.7,0.7-2.5,1.1c-1.9,0.9-3.9,1.4-5.9,1.9c-0.7,0.2-1.4,0.1-2,0.1c-1-0.1-1.8,0.3-2.4,1
		c-0.2,0.3-0.4,0.6-0.7,0.8c-0.7,0.5-0.9,1.2-0.9,2c0,1.1-0.1,2.2-0.1,3.3c0.1,1.3-0.2,2.6-0.2,3.9c0.1,2.2-0.3,4.4,0,6.6
		c0.1,1-0.3,1.8-1,2.1c-0.7,0.3-1.4,0.3-2-0.2c-0.2-0.2-0.4-0.2-0.7-0.1c-1.1,0.3-2.2,0.1-3.1-0.5c-0.3-0.2-0.6-0.2-0.9-0.1
		c-0.9,0.2-1.7,0-2.5-0.3c-2.4-0.8-4.4-2.3-6.5-3.5c-0.9-0.6-1.6-1.5-2.3-2.2c-0.9-1-1.7-2.3-2.2-3.5c-0.5-1.1-0.6-2.4-0.6-3.6
		c-0.1-2.1,0.1-4.2,0.1-6.2c0-0.3,0-0.6-0.1-0.9c-0.3-1.5,0.1-2.8,1.2-4c1.6-1.9,3.2-3.8,3.8-6.2c0.2-0.8,0.7-1.4,1.4-1.9
		c0.3-0.2,0.4-0.4,0.2-0.8c-0.6-1.2-0.6-1.2-1.8-0.5c-1,0.6-2.1,0.9-3.2,1.3c-1.5,0.5-2.9,1.2-4.3,2.1c-0.4,0.3-0.8,0.6-1.3,0.7
		c-0.3,0.1-0.5,0.3-0.6,0.6c-0.4,0.8-0.9,1.6-1.3,2.4c-0.3,0.6-0.7,1.1-1.4,1.3c-0.4,0.2-0.5,0.4-0.5,0.8c0,1.3,0,2.6-0.1,3.9
		c0,0.7-0.3,1.3-1,1.5c-0.6,0.2-1.2,0-1.6-0.5c-0.2-0.3-0.3-0.7-0.3-1c0-1.8-0.1-3.5,0.2-5.3c0-0.1,0.1-0.3,0-0.4
		c-0.7-1.4,0-2.6,0.7-3.7c1.1-1.8,2.1-3.6,3.3-5.3c0.8-1.3,2.1-1.9,3.5-2.5c1.8-0.8,3.7-1.4,5.5-2c1.5-0.5,3-1.4,4.5-2
		c1.4-0.6,2.8-1.3,4.2-1.9c1.7-0.7,3.5-1.3,5-2.3c0.6-0.4,1.1-0.7,1.3-1.4c0.1-0.5,0.4-1,0.7-1.4c0.6-0.8,0.8-1.8,1.2-2.6
		c0.3-0.6-0.1-1.1-0.2-1.7c-0.1-0.8-0.9-0.7-1.3-1.2c-0.1,0.7-0.2,1.2-0.3,1.7c-0.1,0.9-0.7,1.6-1.6,1.8c-0.4,0.1-0.5,0.2-0.5,0.6
		c0,0.4-0.2,0.7-0.5,0.8c-0.4,0.1-0.5-0.1-0.7-0.4c-0.6-0.9-1-1.9-1.3-3c-0.4-1.5-0.8-3-0.6-4.6c0.1-1.3,0.2-2.6,0.2-3.8
		c0-1,0.7-1.7,1-2.6c0.7-2.6,2.5-4.4,4.1-6.3c0.5-0.6,1.3-0.8,1.9-1.2c1-0.5,1.9-1.2,3-1.4c0.3-0.1,0.5-0.3,0.7-0.6
		c1.4-2.3,3.4-3.5,6.1-3.7c0.6,0,1.1-0.4,1.7-0.5c1.4-0.3,2.7-0.7,4-1c1.5-0.3,3.1-0.5,4.7-0.6c1.5-0.1,3,0.1,4.6,0
		c0.2,0,0.4,0,0.5,0.1c1.5,0.6,2.9,0.1,4.4,0.1c2.5,0,4.8-0.9,7.3-1.2c1.5-0.1,3-0.4,4.4-1c1-0.4,2-0.5,3-0.6c0.8,0,1.5-0.3,2.2-0.7
		c4.9-2.5,9.8-2.3,14.5,0.4c0.5,0.3,0.9,0.5,1.5,0.6c3.1,0.8,5.7,2.5,7.8,5c0.7,0.8,1.6,1.4,2.6,1.9c1.7,0.8,3.3,1.9,4.7,3.2
		c0.9,0.8,1.3,1.9,1.5,3.1c0.3,1.5,0.7,3.1,1.1,4.6c0.2,0.6,0.3,1.2,0.3,1.8c-0.1,0.9,0.4,1.6,0.4,2.5c0,0.2,0.1,0.2,0.3,0.1
		c0.3-0.2,0.6-0.3,0.8-0.7c0.7-1.2,1.7-2,3-2.7c1-0.5,2-1.3,3-1.9c1.8-1.2,3.6-2.4,5.8-2.9c0.3-0.1,0.5-0.2,0.8-0.3
		c2.2-0.6,4.3-1.3,6.6-1c0.3,0,0.5,0,0.8,0c1.3-0.2,5.5,0.6,6.6,1.2c0.6,0.3,1.2,0.7,1.5,1.3c0.8,1.3,2.1,1.8,3.2,2.7
		c1.4,1,2.8,2.1,3.8,3.5c0.2,0.2,0.4,0.4,0.5,0.6c1.2,1.3,1.1,3.2-0.1,4.5c-1.2,1.2-3.3,1.4-4.5,0.2c-0.8-0.8-1.4-0.6-2.3-0.5
		c-1.3,0.3-2.5,0.5-3.8,0.2c-0.4-0.1-0.7,0.1-1.1,0.2c-1,0.4-1.9,0.8-2.9,1.2c-1.3,0.6-2.3,1.5-2.9,2.9c-0.3,0.8-0.7,1.6-1,2.4
		C151.2,43.5,151.3,43.3,151.4,43.3z"/>
	<path class="st1" d="M53.3,92.8c0.7-0.7,0.9-1.5,0.8-2.6c-0.2-1.1,0-2.3,0-3.4c0.1-2.8,0.2-5.5,0.2-8.3c0-1,0.1-1.9,0.1-2.9
		c0-0.2,0-0.3,0.2-0.4c0.6-0.4,1-1.1,1.5-1.6c0.6-0.6,1.4-1.1,2.4-0.9c0.6,0.1,1.2,0.2,1.8,0c0.8-0.2,1.6-0.3,2.3-0.6
		c1.1-0.4,2.3-0.8,3.5-1.3c2.1-0.9,4.2-1.9,6.5-2.4c1.5-0.3,3-0.8,4.6-1.1c1.1-0.2,2.2-0.4,3.4-0.6c0.9-0.1,1.8-0.4,2.7-0.5
		c1-0.1,2-0.2,3-0.1c0.5,0,0.9,0.1,1.4-0.1c1.2-0.5,2.5-0.7,3.7-1.2c0.4-0.1,0.6-0.1,0.9,0.2c0.6,0.6,1.2,1.1,1.7,1.8
		c0.5,0.6,1.1,1.1,1.8,1.4c0.8,0.3,1.3,0.8,1.7,1.5c0.1,0.1,0.2,0.3,0.3,0.4c1.6,1.3,3.3,2.5,5.3,3.3c0.3,0.1,0.7,0.3,1,0.4
		c1.8,0.9,3.7,1.4,5.6,1.5c1.3,0.1,2.7,0.2,4,0.4c0.3,0,0.4,0.1,0.3,0.5c-0.2,1.6,1.2,2.6,2.7,2c0.3-0.1,0.7-0.3,1.1-0.4
		c-0.1,1.1-0.5,2.1-0.8,3.1c-0.1,0.3-0.2,0.6-0.2,1c0.1,0.4,0.3,0.7,0.7,0.7c0.4,0,0.7-0.2,0.8-0.6c0.1-0.3-0.1-0.8,0.4-0.7
		c0.5,0.1,0.3,0.6,0.3,0.9c0,1.5,0.6,2.1,2.1,2.2c0.4,0,0.3,0.2,0.4,0.4c0.6,1.5,0.4,3,0.7,4.6c0.2,1.3,0.4,2.6,0.5,3.9
		c0.2,1.4,0.1,2.7-0.5,4c-0.9,2-1.7,4.2-2.8,6.1c-0.3,0.6-0.6,1.2-1.1,1.6c-0.6,0.5-0.7,1.3-0.3,2c0.4,0.6,1.3,0.9,2,0.5
		c0.3-0.2,0.6-0.4,0.8-0.6c0.2,0,0.2,0,0.2,0.2c-0.4,0.9-1.3,1.2-2,1.8c-0.3,0.3-0.6,0.6-0.3,1.1c0.3,0.4,0.7,0.3,1.1,0.1
		c0.5-0.2,0.9-0.4,1.5-0.4c0.7-0.1,1.5-0.3,2-1c0.8-1.1,1.8-2,3-2.7c1.3-0.7,1.9-2,2.5-3.2c0.6-1.3,1.3-2.5,2.1-3.7
		c0.3-0.5,0.7-0.6,1.3-0.4c0.4,0.2,0.9,0.3,1.3,0.3c0.5,0,0.8,0.2,1.1,0.6c0.7,0.7,0.9,1.5,1,2.4c0.1,1.1,0.1,2.2,0.5,3.3
		c0.1,0.2,0.1,0.3,0,0.5c-0.2,1-0.4,2-0.7,3c-0.3,0.7-0.8,1.2-1.4,1.7c-1.5,1.4-3.4,1.2-5.1,1.6c-0.9,0.2-1.9,0.3-2.9,0.3
		c-0.7,0-1.4,0.2-2,0.7c-0.4,0.4-1,0.4-1.5,0.7c-1.1,0.7-2.1,1.5-2.2,3c0,0.3-0.4,0.6-0.5,0.8c-0.3,0.6-0.1,1,0.6,1.3
		c0.2,0.4,0,0.6-0.3,0.8c-1.3,0.7-2.5,1.6-3.7,2.4c-0.2,0.1-0.4,0.4-0.7,0.4c-0.4,0-0.7,0.2-1,0.4c-0.1,0-0.1,0-0.2,0
		c-1-0.9-2-0.9-3.1-0.2c-1.5,0.9-2.8,2-4.4,2.6c-1.5,0.6-2.9,1.5-4.3,2.3c-1.2,0.7-2.5,1-3.9,0.7c-0.1,0-0.1,0-0.2,0
		c-2.3,0.5-4.7-0.1-6.9,0.8c-0.3,0.1-0.6,0.1-0.9,0.1c-1.2,0-2.4,0-3.6,0.1c-0.8,0.1-1.5-0.2-2.2-0.4c-4.6-1.3-9.3-2.7-13.9-4
		c-1.7-0.5-2.7-1.6-4-2.6c-2.4-1.9-4.2-4.3-6.2-6.5c-1.5-1.7-2.9-3.6-4-5.7c-0.4-0.7-0.9-1.1-1.7-1.2c-0.4,0-0.7,0.1-1-0.2
		c0,0,0.1-0.1,0.1-0.1c1-0.2,0.9-0.3,0.9-1.4c-0.1-1.5-0.9-2.7-1.1-4.1c-0.3-1.6-0.6-3.2-0.3-4.8c0.2-0.8-0.2-1.6-0.3-2.4
		C53.5,94.9,53.4,93.8,53.3,92.8z"/>
	<path class="st2" d="M114.9,122.8c0,0,0.1,0,0.1,0c0.4,0.1,0.5-0.4,0.9-0.5c0.2-0.1,0.4-0.3,0.6-0.4c1.9-0.8,3.6-1.7,5.1-3.1
		c0.6-0.6,1.2-1,2-1.3c0.4-0.1,0.8-0.3,1.3-0.6c0.3-0.2,0.5-0.3,0.9-0.1c1.9,0.5,3,2.7,2.4,4.8c-0.3,0.9-0.6,1.9-0.9,2.8
		c-0.2,0.5-0.1,0.8,0.3,1.1c1.3,1.1,2.4,3.9,2,5.4c-0.6,2.6-3.6,3.8-5.8,2.2c-0.4-0.3-0.7-0.3-1.2-0.2c-1.5,0.6-2.9,0.2-4-1
		c-0.3-0.3-0.5-0.4-0.9-0.1c-0.7,0.5-1.6,0.8-2.5,0.6c-1-0.2-1.9,0-2.7,0.3c-1,0.4-2,0.5-2.9,0c-0.5-0.2-0.9-0.2-1.4,0
		c-1.7,0.7-3.4,1.1-5.2,1.4c-0.7,0.1-1.4,0.1-2.1,0c-0.4,0-0.7,0.1-0.7,0.6c0,1.9-1.5,3.3-3.4,3.2c-1.6,0-3.2,0.1-4.8,0
		c-1.3-0.1-2.7-0.4-4-0.6c-0.6-0.1-1.2,0-1.8-0.2c-0.3-0.1-0.3,0.1-0.3,0.3c0,2.1-1,3.5-2.9,4.4c-1.7,0.9-3.2,2.1-4.7,3.3
		c-0.1,0.1-0.2,0.3-0.3,0.4c-0.6,1.4-1.7,2.2-2.9,3c-0.2,0.1-0.5,0.2-0.5,0.5c0.2,1.3-0.6,2.2-1.2,3.2c-0.5,0.7-0.9,1.5-1.3,2.3
		c-0.9,1.7-1.7,3.4-2.1,5.3c-0.1,0.6-0.1,1.2-0.2,1.7c-0.2,1.1-0.3,2.1,0,3.2c0.3,1-0.6,1.8-1.9,2.1c-0.6,0.1-1.1-0.2-1.5-0.6
		c-0.5-0.6-1.1-1.1-1.5-1.7c-0.6-0.9-1.3-1.8-2.2-2.5c-0.4-0.3-0.6-0.7-0.9-1.1c-0.2-0.3-0.5-0.6-0.6-0.9c-0.3-0.9-0.8-1.8-1.1-2.7
		c-0.1-0.5-0.4-0.8-0.9-1c-0.8-0.5-1.3-1.3-1.6-2.2c-0.8-2.8-1.9-5.6-3.2-8.2c-0.3-0.6-0.4-1.3-0.8-1.9c-0.1-0.2-0.1-0.3-0.2-0.5
		c-0.1-0.4-0.1-0.8-0.1-1.1c0.1-0.8-0.3-1.4-0.6-2.1c-0.1-0.3-0.3-0.2-0.5-0.1c-0.5,0.2-0.9,0.6-1.4,0.6c-0.1,0-0.2,0-0.2,0
		c-1.2-0.4-2.4-0.6-3.7-0.4c-0.1,0-0.1-0.1-0.2-0.1c-1.7-1.1-2.9-2.6-2.9-4.8c0-0.3-0.2-0.5-0.3-0.7c-1.2-2.2-0.8-4.6,0.9-6.3
		c0.8-0.8,1.4-1.8,2.2-2.6c0.4-0.4,0.6-1.2,0.6-1.8c0.1-1.5,0.8-2.8,2-3.7c0.3-0.2,0.5-0.5,0.4-0.8c-0.3-1.6,0.3-3.1,0.3-4.6
		c0-1,0.2-1.9,0.6-2.8c0.1-0.2,0.1-0.4,0.2-0.5c1.2-1,1.9-2.5,3.5-3.1c0.4,0,0.8,0,1.2,0c0.2,0.2,0.3,0.4,0.3,0.6
		c0.8,3.5,2.7,6.3,5.6,8.4c0.7,0.5,1.2,1.1,1.7,1.7c1.8,2.5,4.1,4.2,7,5.2c0.7,0.2,1.4,0.6,2,1.1c3.3,2.7,7.1,3.7,11.3,3
		c0.5-0.1,1,0,1.5,0.2c4.3,2.1,8.6,2.3,13,0.2c0.5-0.2,1-0.4,1.6-0.4c2.7-0.1,5.2-1,7.4-2.5c0.4-0.3,0.9-0.5,1.4-0.6
		c2.1-0.4,4.1-1.3,5.9-2.6C114.4,122.9,114.6,122.6,114.9,122.8z"/>
	<path class="st3" d="M65.1,164.7c0.5,0.5,1.1,1,1.5,1.6c0.3,0.4,0.9,0.6,1.4,0.7c0.9,1,1.3,2.2,0.7,3.5c-0.6,1.3-1.9,1.9-3.4,1.5
		c-0.8-0.2-1.5-0.3-2.2,0.3c-0.4,0.3-0.9,0.4-1.5,0.4c-1.3,0-2.6,0-3.9,0c-0.5,0-0.8,0.1-1.1,0.5c-0.7,0.7-1.4,1.3-2.4,1.5
		c-0.1,0-0.2,0.1-0.3,0.1c-1.5-0.6-2.7,0.5-4,0.7c-1.3,0.2-2.4-0.2-3.5-0.6c-2.3-0.9-4.4-2-6.4-3.4c-1.9-1.4-3.8-2.6-5.2-4.5
		c-1.6-2.1-2.8-4.3-2.6-7.1c0.1-2.1,0.6-4.1,1.6-6.1c1.3-2.6,3.3-4.6,5.4-6.6c1.1-1.1,1.9-2.5,3.1-3.4c1.5-1.2,2.6-2.8,4.6-3.3
		c0.1,0,0.1,0,0.2,0c1.2,0.3,2.4,0.6,3.7,0.4c0.1,0,0.1,0,0.2,0c1.3,0.4,2.1,1.3,2.6,2.5c0.1,0.1,0,0.3,0.2,0.4
		c0,0.1,0.1,0.2,0.1,0.4c0.4,0.9,0.4,1.9,0.8,2.8c0.5,1.5,1.2,3,1.9,4.4c0.6,1.2,1,2.5,1.5,3.8c0.2,0.5,0.5,1,0.8,1.5
		c0.8,1.3,1.6,2.6,2.6,3.8c0.2,0.3,0.5,0.6,0.8,0.9c0.3,0.3,0.5,0.7,0.8,1C63.6,163,64.2,163.9,65.1,164.7z"/>
	<path class="st4" d="M125.7,116.9c-1.3,0.6-2.7,0.9-3.7,1.9c-1.4,1.4-3,2.4-4.8,3.1c-0.2,0.1-0.4,0.1-0.6,0.1
		c1.2-0.9,2.4-1.7,3.7-2.4c0.3-0.2,0.4-0.4,0.5-0.7c0.7-0.3,1.3-0.8,2-1.2c0.9-0.5,1.9-1,3-1.1C125.6,116.7,125.6,116.8,125.7,116.9
		z"/>
	<path class="st5" d="M151.4,43.3c-0.1,0.2-0.3,0.3-0.5,0.3c0-0.2,0-0.3,0.2-0.3C151.2,43.3,151.3,43.3,151.4,43.3z"/>
	<path class="st6" d="M121,107c-0.1-0.1-0.1-0.1-0.2-0.2c0.2-0.2,0.2-0.6,0.6-0.6c0,0,0.1,0.1,0.1,0.1
		C121.5,106.7,121.3,106.8,121,107z"/>
	<path class="st7" d="M114.9,122.8c-0.7,0.4-1.3,0.9-2,1.3c-1.5,0.8-3,1.4-4.7,1.7c-0.8,0.1-1.3,0.7-2,1.1c-2.1,1.1-4.2,1.9-6.6,1.9
		c-0.5,0-0.9,0.1-1.3,0.3c-2.1,1.1-4.4,1.6-6.9,1.6c-2.3,0-4.5-0.6-6.5-1.7c-0.6-0.4-1.2-0.2-1.7-0.1c-2.5,0.3-5,0-7.4-0.9
		c-1.5-0.6-2.8-1.4-4.1-2.5c-0.8-0.7-1.8-0.8-2.6-1.2c-2.5-1.1-4.4-2.7-6-4.9c-0.5-0.6-0.9-1.2-1.5-1.6c-2.8-1.9-4.6-4.6-5.6-7.8
		c-0.1-0.5-0.2-1-0.3-1.5c0.9,0.1,1.4,0.7,1.8,1.4c1.2,2.3,2.7,4.2,4.4,6.1c1.2,1.4,2.5,2.7,3.7,4.1c1.2,1.4,2.7,2.4,4.1,3.7
		c0.7,0.6,1.6,0.6,2.4,0.9c4.2,1.3,8.5,2.4,12.7,3.7c2.3,0.7,4.7,0.7,6.9,0.4c2.3-0.4,4.5-0.2,6.8-0.7c0.9-0.2,2,0.2,2.9-0.2
		c0.5-0.2,0.9-0.2,1.4-0.5c1.5-0.8,2.9-1.8,4.5-2.4c1.7-0.7,3.1-1.8,4.7-2.8C113,121.6,114.1,121.8,114.9,122.8z"/>
	<path class="st8" d="M100.5,88.5c0,2.8-2.3,5.1-5.2,5c-2.8,0-5.1-2.3-5-5.2c0-2.8,2.3-5,5.2-5C98.3,83.4,100.5,85.6,100.5,88.5z"/>
	<path class="st8" d="M67.4,92.6c-2.9,0-5.1-2.2-5.1-5.1c0-2.8,2.2-5,5.1-5c2.9,0,5.1,2.2,5.1,5.1C72.5,90.4,70.3,92.6,67.4,92.6z"
		/>
	<path class="st9" d="M79.7,103.3c2.2-0.2,4.2,0.6,6.1,1.7c0.6,0.4,1.3,0.6,2,0.9c1.1,0.4,1.6,1,1.4,2c-0.1,0.9-0.9,1.4-2,1.5
		c-1.2,0.1-2.5-0.1-3.7-0.3c-2.2-0.3-4.4-0.1-6.6-0.1c-0.5,0-0.9-0.1-1.4-0.2c-0.6-0.1-1.1-0.5-1.4-1.1c-0.2-0.5-0.6-1-0.7-1.5
		c-0.2-1,0.7-2.2,1.9-2.3C76.9,103.6,78.3,103.2,79.7,103.3z"/>
	<path class="st9" d="M79.8,115.4c-1.5,0.3-2.7-0.5-3.5-1.9c-0.4-0.7-0.9-1.5-0.9-2.4c0-1.3,1.2-2,2.3-1.5c0.5,0.2,0.9,0.3,1.4,0.3
		c1.3,0,1.8,0.4,2,1.7c0.1,0.4,0.3,0.3,0.6,0.3c1.1-0.2,1.9-0.9,2.7-1.5c1.2-0.9,2.4-0.5,2.8,0.9c0.2,0.7-0.1,1.2-0.5,1.6
		C84.7,114.5,82.5,115.5,79.8,115.4z"/>
	<path class="st10" d="M101.2,100.4c0.2,0.1,0.4,0.2,0.4,0.5c0,0.3-0.1,0.4-0.4,0.4s-0.3-0.2-0.3-0.5
		C100.9,100.6,101,100.4,101.2,100.4z"/>
	<path class="st11" d="M69.4,100.5c0,0.2-0.1,0.4-0.3,0.4c-0.3,0-0.4-0.1-0.5-0.4c0-0.3,0.1-0.4,0.4-0.4
		C69.2,100.1,69.3,100.3,69.4,100.5z"/>
	<path class="st12" d="M115.9,122.4c-0.2,0.2-0.3,0.4-0.5,0.6c-0.3,0.4-0.3,0.1-0.4-0.1C115.1,122.4,115.4,122.3,115.9,122.4z"/>
	<path class="st13" d="M98.1,99.3c0.2,0,0.3,0.1,0.3,0.3c0,0.2-0.1,0.3-0.3,0.3c-0.2,0-0.3-0.1-0.3-0.3C97.8,99.4,98,99.3,98.1,99.3
		z"/>
	<path class="st14" d="M71.9,97.9c0,0.2-0.1,0.3-0.3,0.3c-0.2,0-0.3-0.2-0.3-0.3c0-0.2,0.1-0.3,0.3-0.3
		C71.8,97.5,71.9,97.7,71.9,97.9z"/>
	<path class="st15" d="M98,104.6c0.2,0,0.3,0.1,0.3,0.3c0,0.2-0.1,0.3-0.3,0.3c-0.2,0-0.3-0.1-0.3-0.3
		C97.7,104.7,97.8,104.6,98,104.6z"/>
	<path class="st16" d="M106.7,100.5c-0.2,0-0.3-0.1-0.3-0.3c0-0.2,0.1-0.3,0.3-0.3c0.2,0,0.3,0.1,0.3,0.3
		C107,100.4,106.9,100.4,106.7,100.5z"/>
	<path class="st17" d="M64.9,99.7c0,0.2-0.1,0.3-0.3,0.3c-0.2,0-0.2-0.1-0.2-0.3c0-0.2,0.1-0.3,0.3-0.3
		C64.8,99.4,64.9,99.5,64.9,99.7z"/>
	<path class="st18" d="M92.4,102c0,0.2-0.1,0.3-0.3,0.3c-0.2,0-0.3-0.1-0.3-0.3c0-0.2,0.1-0.3,0.3-0.3
		C92.3,101.7,92.4,101.8,92.4,102z"/>
	<path class="st19" d="M96.2,100.1c0,0.2-0.1,0.3-0.3,0.3c-0.2,0-0.3-0.1-0.3-0.2c0-0.2,0.1-0.3,0.3-0.3
		C96.1,99.8,96.2,100,96.2,100.1z"/>
	<path class="st20" d="M99.1,101.7c-0.2,0-0.3-0.1-0.3-0.3c0-0.2,0.1-0.3,0.2-0.3c0.2,0,0.3,0.1,0.3,0.3
		C99.4,101.6,99.3,101.7,99.1,101.7z"/>
	<path class="st18" d="M66.4,101.6c-0.2,0-0.3-0.1-0.3-0.3c0-0.2,0.1-0.3,0.3-0.3c0.2,0,0.2,0.1,0.2,0.3
		C66.7,101.5,66.5,101.6,66.4,101.6z"/>
	<path class="st21" d="M61.5,96.7c-0.2,0-0.3-0.1-0.3-0.3c0-0.2,0.1-0.3,0.3-0.3c0.2,0,0.3,0.1,0.3,0.3
		C61.8,96.6,61.7,96.7,61.5,96.7z"/>
	<path class="st22" d="M92.3,98.4c-0.2,0-0.3-0.1-0.2-0.3c0-0.1,0.1-0.2,0.3-0.2c0.2,0,0.3,0.1,0.2,0.3
		C92.5,98.4,92.4,98.4,92.3,98.4z"/>
	<path class="st23" d="M103.9,106.9c-0.2,0-0.3-0.1-0.2-0.3c0-0.1,0.1-0.2,0.3-0.2c0.2,0,0.3,0.1,0.2,0.3
		C104.2,106.8,104.1,106.9,103.9,106.9z"/>
	<path class="st24" d="M103.4,95.4c0,0.1,0,0.2-0.2,0.3c-0.1,0-0.2-0.1-0.2-0.2c0-0.1,0.1-0.2,0.2-0.3
		C103.3,95.2,103.4,95.3,103.4,95.4z"/>
	<path class="st25" d="M109.5,97.9c0.1,0,0.2,0.1,0.2,0.2c0,0.1-0.1,0.2-0.3,0.2c-0.1,0-0.2-0.1-0.2-0.2
		C109.2,98,109.3,97.9,109.5,97.9z"/>
	<path class="st18" d="M64.7,96.9c0.1,0,0.2,0.1,0.2,0.2c0,0.1-0.1,0.2-0.2,0.2c-0.2,0-0.3-0.1-0.3-0.2C64.5,97,64.6,96.9,64.7,96.9
		z"/>
	<path class="st26" d="M66.9,98.3c0.1,0,0.2,0.1,0.2,0.2c0,0.1-0.1,0.2-0.2,0.2c-0.1,0-0.2-0.1-0.2-0.2
		C66.6,98.4,66.7,98.3,66.9,98.3z"/>
	<path class="st27" d="M107.9,103.7c0.1,0,0.2,0.1,0.2,0.2c0,0.1-0.1,0.2-0.2,0.2c-0.1,0-0.2-0.1-0.2-0.2
		C107.7,103.8,107.8,103.8,107.9,103.7z"/>
	<path class="st17" d="M67.2,106c0,0.1-0.1,0.2-0.2,0.2c-0.1,0-0.2-0.1-0.2-0.2c0-0.1,0-0.2,0.2-0.2C67.1,105.8,67.1,105.9,67.2,106
		z"/>
	<path class="st28" d="M96.8,97.9c0,0.1-0.1,0.2-0.2,0.2c-0.1,0-0.2,0-0.2-0.2c0-0.1,0.1-0.2,0.2-0.2C96.7,97.7,96.8,97.8,96.8,97.9
		z"/>
	<path class="st29" d="M106.9,96.8c-0.1,0-0.2,0-0.2-0.2c0-0.1,0.1-0.2,0.2-0.2c0.1,0,0.2,0.1,0.2,0.2
		C107.1,96.7,107,96.8,106.9,96.8z"/>
	<path class="st30" d="M109.2,101.1c0,0.1,0,0.2-0.1,0.2c-0.1,0-0.2-0.1-0.2-0.2s0-0.2,0.1-0.2C109.2,100.9,109.2,101,109.2,101.1z"
		/>
	<path class="st31" d="M68,108.4c0.1,0,0.2,0.1,0.2,0.2c0,0.1-0.1,0.2-0.2,0.2c-0.1,0-0.1-0.1-0.2-0.1
		C67.8,108.6,67.9,108.5,68,108.4z"/>
	<path class="st32" d="M112.3,97.7c-0.1,0.1-0.1,0.1-0.2,0.1c-0.1,0-0.1-0.1-0.1-0.1c0,0,0.1-0.1,0.1-0.1
		C112.2,97.6,112.3,97.7,112.3,97.7z"/>
	<path class="st33" d="M99.5,97.7c0,0.1-0.1,0.1-0.2,0.1c-0.1,0-0.1-0.1-0.1-0.1c0-0.1,0.1-0.2,0.2-0.2
		C99.4,97.5,99.5,97.6,99.5,97.7z"/>
	<path class="st34" d="M89.4,96.2c0.1,0,0.1,0.1,0.1,0.2c0,0.1-0.1,0.1-0.1,0.1c-0.1,0-0.1-0.1-0.1-0.2
		C89.3,96.3,89.3,96.2,89.4,96.2z"/>
	<path class="st35" d="M61.3,160.4c-1-0.9-1.6-2.1-2.3-3.2c-1.1-1.6-1.6-3.4-2.3-5.1c-0.5-1.2-1-2.3-1.5-3.4c-0.7-1.5-1.1-3-1.3-4.7
		c0.6,1.4,1.2,2.8,1.9,4.2c1,2,1.5,4.2,2.2,6.3c0.3,0.8,0.8,1.4,1.6,1.9c0.3,0.2,0.5,0.4,0.7,0.7c0.4,1,0.8,2.1,1.3,3.1
		C61.5,160.4,61.4,160.5,61.3,160.4z"/>
	<path class="st36" d="M53.7,143.7c-0.8-1.1-1.6-2.2-2.8-2.9c0.5-0.2,1.1-0.5,1.6-0.9c0.3-0.2,0.3-0.1,0.5,0.2
		C53.8,141.2,53.7,142.4,53.7,143.7z"/>
	<path class="st37" d="M50.8,140.8c-1.3,0.4-2.5,0.2-3.7-0.4C48.3,140,49.6,140.2,50.8,140.8z"/>
	<path class="st38" d="M65.1,164.7c-0.9-0.7-1.6-1.6-2.2-2.5C63.8,162.8,64.5,163.7,65.1,164.7z"/>
	<path class="st39" d="M61.3,160.4c0.1-0.1,0.1-0.1,0.2-0.2c0.2,0.3,0.5,0.5,0.6,0.9C61.7,161,61.5,160.7,61.3,160.4z"/>
	<path class="st9" d="M92.9,85.8c0.8,0,1.4,0.6,1.4,1.4c0,0.8-0.6,1.4-1.4,1.4c-0.8,0-1.4-0.6-1.4-1.4
		C91.6,86.4,92.2,85.8,92.9,85.8z"/>
	<path class="st40" d="M97.1,90.5c0.4,0.1,0.6,0.2,0.6,0.6c0,0.4-0.2,0.7-0.7,0.7c-0.4,0-0.6-0.2-0.6-0.6
		C96.4,90.7,96.6,90.5,97.1,90.5z"/>
	<path class="st9" d="M66.4,86.2c0,0.8-0.6,1.3-1.4,1.4c-0.8,0-1.4-0.6-1.4-1.4c0-0.8,0.6-1.4,1.5-1.3
		C65.8,84.8,66.4,85.4,66.4,86.2z"/>
	<path class="st41" d="M69.1,90.8c-0.4-0.1-0.7-0.3-0.7-0.7c0-0.4,0.3-0.6,0.6-0.6c0.4,0,0.6,0.3,0.6,0.6
		C69.7,90.5,69.4,90.7,69.1,90.8z"/>
</g>
<g>
	<path d="M19.7,65.9c0.2-0.8,0.3-1.6,0.5-2.4c1.1-4.7,4.2-7.6,8.4-9.7c3.5-1.8,7.3-3,11.1-4.2c2.7-0.9,5.4-1.9,7.7-3.7
		c1.5-1.3,2.7-2.8,3-4.8c0-0.3,0-0.7,0.1-1.2c-0.9,1.1-1.5,2.3-2.7,2.8c0.5-2.7,1.1-5.4,1.6-8.2c0.2,0.1,0.4,0.3,0.6,0.5
		c1.1,1.1,2.1,2.2,2.7,3.7c0.9,2.1,0.8,4.1-0.8,5.8c-1,1.1-2.1,2.1-3.4,2.8c-2.2,1.1-4.6,2-6.9,2.9c-2.8,1.1-5.6,2.1-8.3,3.4
		c-3.5,1.6-6.4,3.9-8.1,7.5c-1.5,3-2.3,6.1-1.8,9.5c0.1,0.5,0.2,0.9,0.2,1.3c0.3-1.7,0.5-3.4,1-5c1.4-4.1,4.5-6.6,8.3-8.3
		c2.8-1.2,5.8-1.8,8.8-2.2c0.5-0.1,1.1-0.3,1.5-0.6c4.3-3.2,9.1-5.4,14.4-6.5c1.3-0.3,2.6-0.9,3.7-1.6c2.2-1.2,4.3-2.6,6.4-4
		c2.3-1.4,4.6-2.5,7.3-2.9c2.8-0.3,5.4,0.3,7.8,1.8c-0.6-0.1-1.3-0.2-1.9-0.2c-3.1-0.3-5.8,0.4-8.2,2.5c-1.5,1.3-3,2.6-4.4,3.8
		c15.9,0.6,30.4,5.4,43,15.5c-0.1,0-0.2,0-0.3-0.1c-7-4.4-14.7-7.3-22.8-9.1c-6.5-1.4-13.1-2.4-19.8-2.4c-6.6,0-13.1,1-19.3,3.7
		c-6.4,2.8-11.6,7-15.2,13c-0.2,0.4-0.4,0.8-0.6,1.3c1.2-1.1,2.5-2,4.2-2.6c-0.3,0.4-0.5,0.6-0.6,0.9c-1.8,2.4-3.2,5-3.7,8
		c-0.3,1.7-0.1,3.4,0.7,5c2.5,5.1,6.8,7.9,12.3,9.1c0.3,0.1,0.6,0.1,1,0.2c-0.4-0.4-0.6-0.7-0.9-1.1c-1.2-1.4-2.1-3-2.3-4.9
		c-0.3-2.4,0.7-4.4,2.3-6.1c1.5-1.6,3.3-2.8,5.2-3.7c7-3.3,14.1-6.4,21.6-8.5c4.8-1.4,9.6-2.4,14.6-2.2c3.8,0.1,7.3,1.1,10,4.1
		c0.6,0.6,1.3,1.2,1.9,1.7c3.8,3,8.1,4.7,13,4.5c1,0,2-0.2,2.9-0.3c0.2,0,0.4-0.1,0.7-0.1c-0.8,1.2-1.4,2.4-2.2,3.6
		c1.5,0.1,2.6-0.2,3.2-1.8c1,2.2,0.5,4-0.7,5.8c0.5-0.4,1.1-0.7,1.6-1.1c0.6-0.4,1.1-0.8,1.7-1.3c-0.5,1.1-0.9,2.2-1.3,3.2
		c0.7-0.3,1.3-0.5,2-0.8c0.3,1.4,0.5,2.5,0.7,3.7c0.6,3.7,1.1,7.4,0.8,11.2c-0.3,2.8-0.8,5.5-2.4,7.9c-0.5,0.7-1.1,1.3-1.7,2.1
		c1.8-0.8,3-2.2,4.3-3.6c0.1,1.5-0.5,2.6-1.3,3.6c-0.8,1-1.7,1.8-2.6,2.8c1.1,0,2-0.3,3-0.8c1.5-0.8,2.7-2,3.6-3.4
		c1.1-1.6,2.1-3.2,3.1-4.9c0.4-0.6,0.7-1.2,1.1-1.7c1.4-1.8,3.8-1.7,5.2,0.1c0.8,1.1,1.1,2.3,1.2,3.6c0.2,1.9,0,3.7-0.5,5.6
		c-0.7,2.6-2.4,4-4.9,4.4c-1.6,0.3-3.1,0.4-4.7,0.6c-2.1,0.3-4,0.9-5.4,2.6c0.6-1.6,1.7-2.8,3.2-3.6c1.7-0.8,3.5-1.2,5.4-0.9
		c3.3,0.5,5.3-1.1,5.7-4.4c0.2-1.7,0.1-3.5-0.3-5.2c-0.1-0.3-0.2-0.6-0.3-0.9c-0.6-1.2-1.6-1.5-2.6-0.5c-1.3,1.4-2.4,2.9-3.6,4.3
		c-1.5,1.8-3.1,3.5-5.1,4.6c-1.6,0.9-3.2,1.4-5,1c-0.1,0-0.2-0.1-0.3-0.1c0.4-0.6,0.8-1.2,1.3-2c-2,0.7-3.9,0.9-5.9,0.3
		c2.1-0.5,3.5-1.7,4.7-3.1c1.9-2.3,2.8-5.1,2.9-8.1c0.2-3.6-0.1-7.2-0.8-10.7c0-0.2-0.1-0.3-0.1-0.5c-1.3-0.2-1.4-0.3-1.4-1.7
		c0-0.4,0.1-0.8,0.1-1.1c-0.6,0.3-1.3,0.6-1.9,0.8c-0.7,0.2-1.4,0.1-2.2,0.1c1.6-1.3,2.3-3,2.6-5.2c-1.1,1-2.2,1-3.4,1.2
		c-1.1,0.2-2.1,0.7-3.2,1.1c0.4-1.9,1.5-3.4,3.1-4.9c-0.4,0-0.6,0-0.8,0c-3.6,0.1-7.2-0.3-10.5-1.7c-1.3-0.6-2.6-1.3-3.7-2.2
		c-2.1-1.8-4.6-2.6-7.3-3c-3.4-0.5-6.8,0.2-10.1,0.9c-7.6,1.6-15.3,3.2-22.7,5.6c-2.7,0.9-5.2,2-7.9,3c-0.5,0.2-0.7,0.6-0.7,1.1
		c0,2.1,1.1,3.8,2.7,5c0.7,0.6,1.5,0.1,1.6-0.8c0.1-1.1,0.1-2.1,0.2-3.2c0,2.6,0,5.1,0,7.7c0,4.8,0.2,9.7,1,14.4
		c0.4,2.2,1,4.4,2.3,6.3c2.1,3.2,4.2,6.4,6.9,9.1c3.9,3.9,8.8,6,14.2,6.9c5.4,0.8,10.7-0.1,15.8-1.6c0.2-0.1,0.4-0.1,0.8-0.2
		c-1,1.3-2.2,2.2-3.5,2.7c-1.3,0.5-2.7,0.9-4,1.3c2.3,0.3,4.6,0.2,6.9-0.2c5.6-0.8,10.8-2.7,15.9-4.9c0.3-0.1,0.5-0.2,0.8-0.3
		c-1,1.3-6.1,4.1-9.6,5.3c-3.5,1.2-7.1,1.9-10.9,1.8c7.6,1.1,15.2,0.8,22.7-1.3c-0.2,0.1-0.3,0.2-0.5,0.3c-2.8,1.4-5.6,2.9-8.3,4.3
		c-0.2,0.1-0.5,0.2-0.7,0.2c-11.7,0-23-2.2-33.4-7.8c-0.9-0.5-1.8-1.1-2.7-1.6c-2.3-1.4-4.2-3.2-5.8-5.5c-1.6-2.5-3.6-4.8-5.5-7.2
		c-0.5-0.6-1.2-1.1-1.8-1.6c-0.4-0.3-0.7-0.3-1.1,0.1c-2.6,2.8-3.6,6-3,9.7c0.1,0.7,0.7,1.4,1.1,2c0.3,0.5,1,1,0.7,1.7
		c-0.3,0.7-1.1,0.7-1.7,0.6c-1.9,0-3,1.4-2.6,3.2c0,0.2,0,0.5-0.2,0.6c-3.5,2.2-4,5.5-3.2,9.2c0.2,0.9,0.5,1.7,0.8,2.5
		c0,0-0.1,0-0.1,0c-3.1-3.5-3.9-8.1-1.6-12.2c0.2-0.4,0.3-0.8,0.3-1.2c0.1-1.2,0.1-2.4,0.8-3.5c0.4-0.6,0.8-1.3,1.4-1.6
		c1-0.5,1.1-1.3,1.2-2.2c0.3-2.2,1-4.2,2.2-6c0.9-1.3,2-2.4,3.4-3.3c0.4-0.3,0.6-0.6,0.7-1.1c0.3-1.6-0.1-3.1-0.3-4.7
		c-0.2-2.6-0.3-5.2-0.3-7.8c0-1.3-0.3-2-1.4-2.8c-3.2-2.2-5.1-5.9-5-9.6c0.8,2.2,2.2,3.7,4,5c-1.9-2.5-3.2-5.1-2-8.3
		c-2.3,0.6-3.9,3.2-3.6,5.7c0.4,2.4,1.8,4.1,3.5,5.6c0.9,0.8,2,1.4,3,2.3c-1.5-0.1-3.1-0.2-4.6-0.4c-4-0.6-7.8-2-11-4.4
		c-5.3-4-7.1-9.4-5.3-15.9c1.2-4.3,3.4-8,6.2-11.3c0.1-0.2,0.3-0.4,0.6-0.7c-0.8,0.1-1.5,0.2-2.1,0.4c-5.4,1.3-9.3,4.3-10.7,9.9
		c-0.3,1-0.4,2.1-0.3,3.1c0.2,2.4,1.6,3.9,3.8,4.7c0.2,0.1,0.5,0.1,0.7,0.3c-0.3,0-0.5-0.1-0.8-0.1c-3.9-0.8-8.4-3.5-9-9.3
		c0-0.1-0.1-0.2-0.1-0.3C19.7,68,19.7,66.9,19.7,65.9z"/>
	<path d="M106.7,4.4c1.2,0.2,2.4,0.4,3.6,0.7c5.3,1.3,9.6,4.2,13.3,8c3.8,4,6.7,8.7,8.9,13.8c0.7,1.7,1.4,2.1,3.1,1.5
		c1-0.4,2-0.9,3-1.4c3.1-1.7,6.2-3.4,9.6-4.3c7.1-2,13.4-0.1,19,4.4c3.2,2.6,4.5,6.3,4.4,10.5c0,2.4-0.5,4.8-1.4,7.1
		c-2.5-5.7-7-7.4-12.8-6.5c-3.2,0.5-5.5,2.5-6.8,5.5c3.7-2.4,7.5-4,12-1.3c-0.7,0.2-1.2,0.4-1.7,0.6c-2.3,1-2.9,2.5-2.4,4.9
		c0.3,1.3,0.4,2.7,0.5,4c0,2.2-0.8,3.7-2.9,5.5c1.2-0.2,2.4-0.3,3.6-0.5c4.4-0.9,8.8-1.3,13.2-0.8c5.3,0.6,10,2.5,13.4,6.8
		c4.1,5.2,3.6,11.2,0,16.2c-0.1,0.1-0.1,0.2-0.2,0.2c0.2-0.7,0.4-1.5,0.5-2.2c0.5-3.1-0.6-5.7-2.2-8.3c-2.2-3.4-5.5-4.3-9.2-4.4
		c-1.8-0.1-3.6,0.3-5.4,0.4c-2.1,0.2-4.3,0.3-6.4,0.5c0-0.1,0,0,0,0c2.6,2.4,3.9,5.5,4.6,8.9c0.5,2.9,0.6,5.9,0,8.8
		c-0.9,4.8-3.9,7.8-8.6,8.7c-2.2,0.5-4.5,0.6-6.7,0.9c-1.5,0.2-2.9,0.5-4.3,1.2c-1.4,0.7-2.4,1.8-2.6,3.4c-0.2,1.1,0.1,2.1,1,2.8
		c0.4,0.3,0.7,0.6,1.1,0.9c1.7,1.7,2,3.6,0.8,5.7c-0.8,1.4-2.1,2.4-3.5,3.2c-2.5,1.4-5.3,2.1-8.2,2.6c2,0.3,3.6,1.1,4.4,3.3
		c-2.1-1.6-4.1-2.8-6.7-3.1c0.5-0.1,0.9-0.2,1.4-0.3c2.3-0.6,4.6-1.1,6.8-1.8c2.1-0.7,3.8-2,4.9-4.1c0.7-1.5,0.6-2.9-0.5-4.1
		c-0.9-1-2.1-1.8-3.1-2.7c-0.8-0.7-1.6-1.4-2.3-2.2c-1.6-2-1.2-3.7,1.1-4.6c1.6-0.6,3.4-1,5.1-1.3c2.4-0.4,4.9-0.5,7.2-1.5
		c4.5-2,7.7-5.1,8.5-10.1c0.9-5.9-0.7-11.1-4.9-15.5c-1-1-2.1-1.9-3.1-2.8c0.7,0.2,1.4,0.5,2.1,0.7c3,0.8,6.1,0.8,9.2,0.5
		c2.6-0.2,5.2-0.6,7.7-0.8c3.1-0.2,6.1,0.2,8.6,2.1c0.7,0.5,1.3,1.1,1.8,1.8c0.5,0.6,0.9,1.4,1.4,2.1c-0.1-0.2-0.1-0.5-0.2-0.7
		c-1.5-3.4-4.1-5.6-7.3-7.1c-4.9-2.4-10.1-3.2-15.6-2.8c-3,0.2-5.9,0.5-8.9,0.7c-1.3,0.1-2.6-0.2-4-0.8c0.4-0.1,0.6-0.2,0.9-0.3
		c1.1-0.5,2.3-0.9,3.3-1.5c2.2-1.4,3-3.4,2.3-5.8c-0.5-1.8-0.9-3.5-0.6-5.4c0-0.2-0.2-0.4-0.4-0.5c-1.1-0.7-2.3-0.8-3.4-0.3
		c-1.3,0.5-2.5,1.1-3.8,1.6c0.2-0.6,0.5-1.3,0.8-2c2-4.5,5.6-6.7,10.5-7.1c2.3-0.2,4.6,0.1,6.8,0.7c0.1,0,0.3,0,0.5,0.1
		c-0.4-1.8-1.1-3.4-2.1-4.9c-2.3-3.3-5.6-5.2-9.3-6.3c-1.9-0.6-3.9-0.9-5.9-1.2c-2.5-0.3-4.8,0.5-6.9,1.6c-3.8,2-7,4.8-10,7.9
		c-0.8,0.8-1.5,1.7-2.4,2.6c0-0.4,0-0.7,0-1c0-5.4-1.3-10.4-4.6-14.7c-1.4-1.9-3.1-3.5-5.1-4.7c-4.4-2.8-9.1-4.9-14.3-5.8
		c-3-0.5-5.9-0.5-8.8,0.4c-5.8,1.8-11.7,2.8-17.8,3.2c-8.3,0.6-16.5,2.3-24.1,5.7c-1.1,0.5-2.1,1.1-3.2,1.7
		c-4.1,2.4-6.2,6.1-7.1,10.7c-0.6,3.1-0.3,6.2,0.8,9.2c-0.1,0-0.1,0-0.2,0.1c-0.4-1.3-0.9-2.6-1.1-3.9c-1.2-7.9,1.4-14.2,7.9-18.9
		c4-2.8,8.5-4.4,13.1-5.5c3.8-0.9,7.6-1.3,11.4-1.6c3.9-0.3,7.5-1.3,11-2.8c3.3-1.4,6.6-2.9,10.1-3.6c1.3-0.3,2.6-0.4,4-0.7
		C104.1,4.4,105.4,4.4,106.7,4.4z"/>
	<path d="M126.8,36.6c2.2,3.2,1.9,6.9-0.6,10.6c1.7,0.6,3.4,1.1,5,1.7c4.5,1.8,8.5,4.3,11.5,8.1c3.3,4.2,4.5,9,4,14.2
		c-0.2,1.8-0.5,3.5-0.8,5.2c-0.1,0-0.1,0-0.2,0c0.1-0.8,0.2-1.5,0.3-2.3c0.6-7.7-2.5-13.7-8.6-18.2c-6.2-4.6-13.1-6-20.6-4.7
		c-1.6,0.3-3.1,0.9-4.6,1.3c-3.4,1-6.4,0.1-9-2.2c-2.6-2.3-4.7-5.2-6.6-8.1c-1.5-2.3-3-4.7-4.5-7.1c-2.8-4.4-6.5-7.8-11.3-10
		c-5.8-2.7-11.6-2.5-17.3,0.4c-0.2,0.1-0.5,0.2-0.7,0.3c0.1-0.1,0.2-0.1,0.2-0.2c3.9-2.4,8.1-4.2,12.7-4.7c8.9-1,16,2.2,20.9,9.7
		c2,3,3.5,6.3,5.2,9.4c1.5,2.8,2.9,5.6,4.9,8.1c1.3,1.6,2.9,2.6,4.9,3c0.7,0.1,1.3,0,1.9-0.4c2.1-1.6,3.1-3.8,3.6-6.4
		c0.8-3.9,0.2-7.8-0.6-11.6c-1.6-7.2-6.3-11.5-12.9-14c-3.5-1.3-7.2-2-11-2.4c2.4,0.1,4.7,0.2,7.1,0.4c3.7,0.3,7.3,1.1,10.8,2.5
		c4.4,1.8,7.7,4.7,9.6,9.1c1.8,4.1,3,8.3,2.5,12.8c0,0.3-0.1,0.7-0.1,1c0,0.3-0.1,0.6-0.2,1C124.7,42.9,126.3,40.6,126.8,36.6z"/>
	<path d="M42.3,143.6c0.4-0.4,0.7-0.9,1.1-1.3c0.6-0.7,1.2-1.3,1.8-1.9c0.9-1,1.6-2.1,2.1-3.4c0.8-2.3,2.1-2.6,3.8-0.8
		c2,2.1,3.4,4.6,4.5,7.2c1.4,3.4,2.6,6.8,3.9,10.1c1.6,3.9,3.6,7.5,6.4,10.7c0.6,0.7,1.3,1.4,2.1,2.3c-0.4-0.2-0.6-0.2-0.8-0.4
		c-3-1.5-5.2-3.8-7.2-6.4c-3.1-4-5.2-8.5-6.9-13.2c-0.5-1.5-1.2-2.9-2.3-4.1c-1.9-2-4.1-2.1-6.2-0.4c-0.7,0.6-1.4,1.2-2.1,1.8
		C42.3,143.7,42.3,143.7,42.3,143.6z"/>
	<path d="M93.4,106.5c-1.2,1.3-2.5,2.6-3.8,4.1c-2.1,2.4-4.5,4.4-7.7,5c-0.4,0.1-0.8,0.2-1.3,0.2c-2.8,0.2-4.5-0.8-5.2-3.5
		c-0.6-2.3-1.7-4.3-3.2-6.1c-0.4-0.5-0.3-0.9,0-1.2c0.6-0.5,1.3-1.1,2-1.4c3.7-1.4,7.4-1.1,11,0.5c1.8,0.8,3.6,1.5,5.5,2.1
		C91.6,106.4,92.6,106.4,93.4,106.5z M88.1,106.3c-0.7-0.3-1.3-0.7-2-0.9c-2.7-1.2-5.4-2.1-8.4-2c-1.5,0.1-2.9,0.5-4.1,1.5
		c0.3,0.7,0.7,1.4,1,2.1c0.1,0.2,0.3,0.4,0.5,0.4c2.5,0.7,5.1,1.1,7.7,0.7c1-0.2,1.7-0.7,2-1.7c0-0.1,0.1-0.3,0.2-0.5
		C85.9,107,87.2,107.1,88.1,106.3z M85.3,113.4c-0.2,0-0.4,0-0.5,0c-1.6,0.1-3.2,0.2-4.7,0.2c-0.9,0-1.8-0.2-2.6-0.4
		c-0.6-0.2-1.1-0.9-1-1.4c0.1-0.6,0.7-0.7,1.1-0.8c0.3-0.1,0.7-0.1,1.1-0.1c0-0.1,0-0.1,0-0.2c-0.8-0.1-1.6-0.2-2.4-0.2
		c-0.8,0-1,0.6-0.6,1.3c0.2,0.4,0.4,0.8,0.6,1.1c0.5,0.9,1.2,1.5,2.2,1.8C80.9,115.4,83.1,114.5,85.3,113.4z"/>
	<path d="M122.1,129.1c1-1.4,2.2-2.9,3.1-4.4c1.1-1.8,1.7-3.9,1.3-6.1c-0.2-0.9-0.6-1.4-1.5-1.4c-1,0.1-2,0.3-3,0.5
		c-0.3,0-0.5,0.2-0.8,0.2c1.1-1.1,2.5-1.7,3.9-2.1c2.8-0.7,5.5-0.3,7.9,1.3c0.6,0.4,1.2,0.8,1.9,1c0.9,0.4,1.4,0,1.7-0.9
		c0.1-0.3,0.2-0.7,0.3-1c0.4-1.1,1-1.5,2.1-1.3c1.1,0.1,2.2,0.9,2.7,2c-0.9-0.2-1.7-0.4-2.6-0.5c-0.4-0.1-0.8,0-1.1,0
		c-0.6,0.1-0.8,0.4-0.9,1c-0.1,0.7-0.2,1.4-0.4,2c-0.3,0.8-0.9,1.1-1.6,0.6c-0.9-0.6-1.6-1.3-2.4-1.9c-1.1-0.9-2.1-1-3.3-0.1
		c-0.4,0.3-0.5,0.6-0.5,1.1c-0.1,1.4-0.2,2.9-0.4,4.3c-0.1,0.6-0.3,1.1-0.5,1.8c1.4,0.1,2,1,2.4,2.2c0.6,1.9,1.1,3.8,0.7,5.9
		c-0.2,0.9-0.6,1.3-1.5,0.9c-1.1-0.5-2.1-1.1-3.1-1.6c0.4-0.9,0.8-1.6,1-2.4c0.1-0.6,0-1.3-0.2-1.9c-0.3-0.9-0.8-0.9-1.6-0.5
		c-0.2,0.1-0.3,0.2-0.6,0.3c1-1.4,1-1.5,0.4-2.1C124.4,127.1,123.5,128.5,122.1,129.1z"/>
	<path d="M64.1,126.6c1.8,1.6,3.5,3.2,5.4,4.6c6.1,4.3,12.9,5.8,20.2,4.8c0.2,0,0.4-0.1,0.6,0c1.3,0.6,2.6,1.3,3.8,2
		c0.3,0.2,0.5,0.6,0.5,0.9c0,0.2-0.5,0.5-0.8,0.5c-1.3,0.1-2.6,0.3-3.9,0.3c-4-0.1-8.1-0.4-12-1.6c-5.2-1.6-9.5-4.4-12.5-9
		C65,128.3,64.6,127.5,64.1,126.6z"/>
	<path d="M51.3,127.1c1.3-0.2,2.6,0.2,3.8,0.7c2.4,1,4.4,2.6,6.2,4.4c2.1,2.2,4.1,4.5,6.2,6.6c1.7,1.7,3.5,3.3,5.4,4.9
		c1.2,1,2.7,1.7,4.3,1.8c0.7,0.1,0.9,0.3,0.4,0.9c-1,1.4-2.1,2.6-3.3,4c-2-1.4-3.5-2.9-5.1-4.5c-2.8-2.9-5.1-6.1-7.1-9.6
		c-1.5-2.6-3.2-5-5.5-6.9C55.2,128.2,53.4,127.3,51.3,127.1z"/>
	<path d="M127.8,73.4C127,64.7,123.1,58,116.1,53c0.5,0.2,1.1,0.4,1.6,0.6c2.8,1.1,5.5,2.5,7.8,4.5c2.3,1.9,4.1,4.2,4.5,7.3
		C130.4,68.3,129.4,70.9,127.8,73.4z"/>
	<path d="M100.4,86.4c0.8,3,0.2,5.3-2.3,6.9c-1.9,1.2-4.4,1.1-6.2-0.3c-2-1.5-2.6-3.7-1.8-6.6c-0.7,0.4-1.2,1-1.9,2.5
		C88,86.6,89.6,84,92,83.2c3.5-1.2,8.4-0.4,11.2,3.4c0.4,0.5,0.6,1.1,0.3,1.7c-0.2,0.7-0.4,1.5-0.6,2.4c0-0.1-0.1-0.2-0.1-0.2
		c0.5-1.6-0.5-2.5-1.5-3.4C101.1,87,100.8,86.8,100.4,86.4z M99.7,88.7c0-2.3-1.3-4.3-4.6-4.3c-2.5,0-4.3,1.6-4.4,4.1
		c-0.1,2.5,1.9,4.5,4.4,4.6C97.6,93.1,99.6,91.2,99.7,88.7z"/>
	<path d="M62.2,85.1c-0.6,0.9-1.2,1.9-1.8,2.7c-0.5-1.2-0.4-2.5,0.6-3.7c2.1-2.4,4.7-3.2,7.8-2.6c2.8,0.6,4.7,2.3,5.5,5.1
		c0,0.1,0,0.2,0.1,0.4c-0.3-0.5-0.6-0.9-0.9-1.2c-0.3-0.3-0.6-0.7-1-1c1.1,2.9,0.6,5.4-2,7.3c-1.8,1.3-4.3,1.3-6.1,0
		c-2.5-1.8-3-4.1-2-6.9C62.3,85.2,62.3,85.2,62.2,85.1z M63.1,87.6c0,2.5,2,4.5,4.5,4.4c2.5,0,4.4-2.1,4.4-4.5
		c0-2.1-1.8-4.5-4.8-4.4C65,83.2,63,85.2,63.1,87.6z"/>
	<path d="M72.9,152.2c-2-0.2-3.8-0.9-5.5-1.9c-1.9-1-3.7-2.3-5.5-3.4c-0.4-0.2-0.9-0.3-1.4-0.5c0.1,0.5,0,1,0.2,1.4
		c0.5,1.2,1.1,2.3,1.8,3.6c-0.6-0.5-1.3-0.8-1.7-1.3c-2.3-2.2-3.6-4.8-3.4-8.1c0-0.2,0-0.5,0.1-0.7c0.2-0.4,0.3-0.9,0.6-0.9
		c0.3-0.1,0.7,0.2,1,0.5c2.6,2.4,5.1,4.9,7.7,7.2C68.5,149.9,70.6,151.2,72.9,152.2z"/>
	<path d="M55.8,158.6c-0.2,1.3-0.4,2.7-0.5,4c-0.2,2-0.2,3.9,0.3,5.9c0.5,1.8,1.5,3.1,3.6,3.2c0.3,0,0.5,0.3,0.8,0.4
		c-0.2,0.2-0.3,0.6-0.5,0.7c-1.5,0.9-3.1,1.7-4.8,2.6c-2.1-5.9-1.5-11.4,1-16.8C55.6,158.6,55.7,158.6,55.8,158.6z"/>
	<path d="M95.4,80.6c-0.3,0-0.6,0-0.9-0.1c-1.5-0.4-2.9-0.2-4.3,0.4c-0.6,0.3-1.3,0.3-2,0.5c-0.6,0.1-1-0.2-1.3-0.8
		c-0.2-0.6,0-1,0.3-1.4c1.1-1.1,2.4-1.7,3.9-1.8c1.5-0.1,3-0.1,4.4,0.4c0.4,0.1,0.8,0.3,1.2,0.6c0.5,0.3,0.8,0.9,0.5,1.4
		c-0.2,0.3-0.7,0.5-1.1,0.7C95.9,80.6,95.6,80.6,95.4,80.6C95.4,80.6,95.4,80.6,95.4,80.6z"/>
	<path d="M69.3,77.1c1.4,0,2.9,0.2,4.2,0.8c0.8,0.4,1.3,0.9,1.3,1.9c0,0.5-0.2,0.8-0.7,0.8c-0.6,0-1.3-0.1-1.7-0.4
		c-1.1-0.9-2.2-0.9-3.4-0.6c-0.5,0.1-0.9,0.3-1.4,0.3c-0.4,0-1-0.1-1.3-0.4c-0.2-0.3-0.1-0.9,0-1.3c0.4-0.9,1.3-1,2.1-1.1
		C68.8,77.1,69,77.1,69.3,77.1z"/>
	<path d="M78.7,100.6c-2.5-0.2-4.4-2.2-4.2-4.5c0-0.6,0.3-1.2,0.6-1.8c0.1-0.2,0.3-0.4,0.5-0.4c2.5-0.2,4.1-1.5,4.8-4
		c0.1,0,0.1,0.1,0.2,0.1c-0.2,0.9-0.2,1.8-0.5,2.6c-0.2,0.5-0.2,0.9,0.2,1.2c0.2,0.2,0.3,0.4,0.5,0.6c-0.9,0.1-1.7,0-2.5,0.2
		c-2.1,0.5-2.8,2.9-1.3,4.4C77.3,99.7,78,100.1,78.7,100.6z"/>
	<path d="M64.6,100.2c-0.2-0.2-0.5-0.4-0.4-0.5c0-0.2,0.2-0.3,0.4-0.5c0.1,0.1,0.4,0.3,0.4,0.4C65,99.8,64.8,99.9,64.6,100.2z"/>
	<path d="M71.7,98.3c-0.2-0.2-0.3-0.3-0.4-0.5c0.1-0.1,0.3-0.3,0.4-0.4c0.1,0,0.4,0.2,0.4,0.3C72,97.9,71.8,98.1,71.7,98.3z"/>
	<path d="M69.6,100.5c-0.2,0.2-0.4,0.4-0.5,0.4c-0.1,0-0.3-0.3-0.3-0.4c0-0.2,0.2-0.3,0.4-0.4C69.2,100.1,69.4,100.3,69.6,100.5z"/>
	<path d="M101,100.2c0.2,0.3,0.4,0.4,0.4,0.5c0,0.2-0.2,0.3-0.3,0.5c-0.1-0.1-0.3-0.2-0.3-0.4C100.7,100.7,100.8,100.5,101,100.2z"
		/>
	<path d="M98.2,104.8c-0.2,0.2-0.4,0.4-0.5,0.4c-0.2-0.1-0.3-0.3-0.4-0.4c0-0.1,0.2-0.4,0.3-0.4C97.8,104.5,98,104.6,98.2,104.8z"/>
	<path d="M97.5,90.7c-0.4,0-0.8-0.1-1,0c-0.2,0.1-0.2,0.5-0.3,0.9c-2,0.8-4.2-0.8-4.1-3.1c1.1,0.3,1.6,0.1,2-0.6
		c0.3-0.6,0.1-1.2-0.6-1.8c1-0.9,2.7-0.8,3.8,0.2C98.5,87.5,98.5,89.4,97.5,90.7z"/>
	<path d="M69.8,89.6c-0.4,0-0.8-0.1-1,0c-0.2,0.1-0.2,0.6-0.3,0.9c-2,0.8-4.2-0.8-4.1-3.1c1.1,0.3,1.6,0.1,2-0.6
		c0.3-0.6,0.1-1.2-0.6-1.8c1-0.9,2.7-0.8,3.8,0.2C70.8,86.5,70.8,88.4,69.8,89.6z"/>
</g>
<g>
	<path d="M153,108.9c3.2,4,5.8,8.2,7.3,13.2c1,3.4,1.3,6.8-0.1,10.2c-1.1,2.8-3.1,4.8-5.3,6.7c-2.1,1.8-4.4,3.1-7.2,3.9
		c1.4,1.7,3.1,3,4.7,4.4c0.1-0.2,0.3-0.4,0.4-0.5c2.8-4.4,5.9-8.5,9.7-12c1.7-1.6,3.5-3,5.7-3.9c2.1-0.9,4.2-1.2,6.3,0.1
		c0.5,0.3,1,0.7,1.4,1.2c3,3.7,5.5,7.7,6.6,12.4c1.1,4.3,0.6,8.3-2.4,11.8c-0.7,0.8-1.6,1.6-2.5,2.3c-4.4,3-9.2,4.7-14.6,4.8
		c-3.7,0.1-7.1-1-10.2-3c-0.2-0.1-0.4-0.2-0.5-0.3c0,0,0,0-0.2,0c0.1,0.2,0.2,0.4,0.2,0.6c2,4,5.3,6,9.7,6.2
		c6.1,0.3,11.6-1.7,16.7-5c2.3-1.5,4.6-3.2,6.9-4.7c2.1-1.3,4.2-2.5,6.7-2.9c1.8-0.3,3.6-0.2,5.3,0.5c2,0.8,3.1,2.6,2.6,5
		c-0.3,1.6-0.9,3.1-1.5,4.6c-0.6,1.5-1.9,1.9-3.2,1.4c-0.2-0.1-0.5-0.3-0.5-0.5c-1-2.4-3.1-3.2-5.7-2.4c-1.9,0.6-3.6,1.8-5.1,3
		c-2.5,1.9-4.9,4-7.4,5.8c-4.3,3-8.9,5.3-14.2,6.2c-3.7,0.6-7.2,0.2-10.1-2.4c-2.3-2.1-3.4-4.9-4.1-7.8c-0.7-3.3-0.5-6.6,0.2-9.9
		c0.1-0.5,0-0.8-0.4-1.2c-3.2-3.5-5.6-7.5-6.8-12.1c-0.1-0.6-0.2-1.1-0.3-1.6c-1.2-0.7-2.5-1.4-3.6-2c0.1,0.8,0.3,1.7,0.3,2.6
		c0.1,2.3-0.2,4.6-1.1,6.7c-1.4,3.4-3,6.7-5.2,9.7c-4.6,6-10.7,9.5-18.2,10.4c-3.5,0.5-7,0.2-10.4-0.2c-5.5-0.7-11-1.3-16.6-1.2
		c-3.4,0-6.6,0.6-9.8,1.9c-1.6,0.7-3.3,1.3-5.1,2c0.8,2.1,2,3.9,3.5,5.5c3.3,3.4,7.4,5.3,12,6.2c4.1,0.8,8.2,0.2,12.2-0.7
		c7.1-1.6,13.7-4.4,20.1-7.7c3.5-1.8,6.9-3.6,10.4-5.4c3.2-1.6,6.6-2.5,10.2-2.4c0.7,0,1.5,0.2,2.3,0.3c0.5-4.8,1.7-9.5,3.6-14.2
		c0.5,0.7,1,1.3,1.3,1.9c0.1,0.2,0,0.5-0.1,0.7c-0.8,2.1-1.7,4.3-1.8,6.6c-0.3,7.9,2.6,14.2,9.7,18.1c4.3,2.4,9.1,3.2,14,2.7
		c7.2-0.8,13.9-3.1,20.4-6.2c5-2.3,9.8-4.9,14.7-7.4c2.9-1.5,6-2.5,9.4-2.5c3.4,0,5.5,1.9,5.9,5.3c0.4,3.2-0.1,6.4-1,9.5
		c-0.9,3.1-2,6.2-3,9.3c-0.1,0-0.2-0.1-0.3-0.1c0.2-0.6,0.4-1.3,0.6-1.9c0.7-2.1,1.3-4.2,1.4-6.4c0.3-4.2-2.3-7.1-6.6-7.3
		c-3.1-0.1-6,0.8-8.9,2c-3.3,1.3-6.4,3-9.3,4.9c-6.5,4.3-13.2,7.9-20.7,10.2c-2.6,0.8-5.3,1.3-8,1.5c-5.1,0.4-9.5-1.4-13.5-4.4
		c-2-1.5-3.6-3.3-4.9-5.4c-0.1-0.2-0.2-0.3-0.4-0.6c-0.4,1.1-0.7,2.1-1,3.1c-0.5,1.4-0.9,2.8-1.9,4c-1.2,1.5-2.7,2-4.4,1.2
		c-2.9-1.3-5-3.4-6.2-6.4c-0.7-1.8-0.3-3.6,0.8-5.1c1.1-1.5,2.6-2.6,4.2-3.4c1,1,1.9,2,2.9,3c1,1,1.9,2,2.9,3.1c0.4-3.7-2.3-6.8-6-7
		c-3.4-0.2-6.5,0.7-9.6,1.8c-3.6,1.3-7,3-10.2,5.1c-6.2,4-12.7,7.4-19.8,9.6c-2.6,0.8-5.3,1.4-8.1,1.5c-5.2,0.3-9.6-1.5-13.6-4.6
		c-4.4-3.4-6.7-7.9-7.5-13.4c-0.1-0.9-0.2-1.9-0.3-2.9c-0.4,0.1-0.7,0.3-1,0.4c-4.9,2.1-9.9,3.9-15.1,4.9c-4.3,0.8-8.7,1.1-13-0.2
		c-5.1-1.6-8.6-4.9-10.2-10.1c-0.2-0.5-0.3-1.1-0.4-1.7c0-1,0-1.9,0-2.9c0-0.1,0.1-0.2,0.1-0.3c0.4-3.5,1.9-6.6,3.8-9.5
		c3.7-5.6,8.4-10.1,13.7-14.3c0.1,0,0.1,0,0.1-0.1c-1.5,1.7-3,3.3-4.5,5.1c-2.6,3.1-4.8,6.4-6,10.3c-1.4,4.6-0.8,8.9,3.1,12
		c4.7,3.7,10.1,5.5,16.2,4.4c4.4-0.8,8.5-2.2,12.7-3.8c0.5-0.2,0.8-0.5,0.9-1.1c0.4-3.6,1.4-7,2.6-10.4c1.5-4.1,3.6-7.9,6.5-11.2
		c8.6-9.9,19.8-14.8,32.7-15.9c4.8-0.4,9.5-0.1,14.2,0.7c3,0.5,5.9,1.3,8.5,2.9c0.5,0.3,1.1,0.7,1.6,1.1c0-0.1,0-0.2,0-0.3
		c-0.5-2.5,0.1-4.9,1.1-7.2c2-4.6,5-8.4,8.4-12c0,0,0.1,0,0.2,0c-0.2,0.3-0.4,0.5-0.5,0.8c-1.5,2.1-2.8,4.3-3.8,6.8
		c-0.7,1.8-1.2,3.7-0.8,5.7c0.3,1.5,1.1,2.7,2.5,3.5c0.3-1.7,0.5-3.3,0.9-4.9c1.3-5.4,4.1-10.1,7.4-14.5c1.1-1.4,2.4-2.7,3.6-4.1
		C152.9,108.9,153,108.9,153,108.9z M70.2,167.5c1-0.5,1.9-0.8,2.8-1.3c2.6-1.3,5.2-2.8,7.9-3.9c5-2.2,10.3-3.1,15.7-3.3
		c6.2-0.2,12.3,0.7,18.2,2.6c2.4,0.8,4.9,1.2,7.4,0.5c1-0.2,1.8-0.7,2.6-1.4c-1.6-0.3-3.2-0.5-4.7-0.8c-2.9-0.6-5.6-1.4-8-3.2
		c-2.8-2-3.7-4.8-2.6-8.1c0.7-2.2,2.1-4.1,3.5-5.9c0.7-0.9,1.4-1.7,2.2-2.7c-0.5,0-0.9-0.1-1.3-0.1c-1.2,0-2.3-0.1-3.5-0.1
		c-6.3-0.1-12.6,0.4-18.8,2.2c-6,1.7-11.4,4.6-15.9,9C71.2,155.6,69.6,161.1,70.2,167.5z M153,147.9c2.1,1.2,4,2.5,6.1,3.5
		c3.9,2,8.2,2.8,12.6,3.3c1,0.1,2,0.1,2.9,0c1.3-0.1,1.8-0.9,1.5-2.2c-0.1-0.5-0.3-1.1-0.5-1.6c-1.3-3-3.1-5.8-5.2-8.3
		c-1.5-1.8-3.1-3.4-5.2-4.3c-1.4-0.6-2.7-0.5-4.1,0.1C156.8,140.3,155.2,144.1,153,147.9z M149,118.6c-0.8,1.5-1.5,2.8-2.2,4.3
		c-1.5,3.2-2.4,6.5-2.4,10.1c0,0.4,0,0.7,0.5,0.9c2,0.5,4,0.9,6.1,0.7c1.5-0.1,3-0.4,4.2-1.3c0.4-0.3,0.9-0.8,1-1.3
		c0.2-1.1,0.3-2.2,0.1-3.3C155.6,124.2,152.6,121.3,149,118.6z M130.3,148.6c-0.2-2.5-1.2-4.5-3.4-5.8c-2.4-1.4-5-1.9-7.8-2.2
		c-0.2,0-0.5,0.1-0.6,0.3c-0.5,1-1.2,2-1.5,3.1c-0.6,2-0.1,3.7,1.5,5c0.6,0.5,1.4,1,2.1,1.3c2.5,1.2,5.1,1.6,7.8,1.9
		c0.5,0.1,0.8-0.2,1-0.6C129.7,150.6,130,149.6,130.3,148.6z"/>
	<path d="M223.3,162c-0.1,0.1-0.1,0.2-0.2,0.4c-0.7,1.8-2.2,2.9-3.9,3c-1.9,0-3.4-1-4.2-2.9c0-0.1-0.1-0.2-0.1-0.3
		c-1.2,2.6-3,3.6-5.2,3.1c-2.1-0.5-3.3-2.3-3.2-4.5c0.1-2.2,1.7-3.5,4.8-3.9c-1.2-2.6-0.9-4.5,0.8-6c1.5-1.2,3.6-1.2,5.2-0.1
		c1.9,1.4,2.2,3.2,1,6.1c0.6,0,1.2,0,1.7,0.1c1.5,0.3,2.6,1.3,3.2,2.7c0.1,0.2,0.2,0.3,0.2,0.5C223.3,160.7,223.3,161.3,223.3,162z
		 M214.1,158.4c0.3,0.6,0.5,1.1,0.8,1.6c0.3-0.5,0.5-1.1,0.7-1.6C215.1,158.4,214.6,158.4,214.1,158.4z"/>
	<path d="M196.5,145.2c-3.3,0-6-2.7-6-6c0-3.3,2.6-6,6-6c3.3,0,6,2.6,6,6C202.5,142.6,199.9,145.2,196.5,145.2z"/>
	<path d="M118.6,173.6c0.4-0.4,0.7-0.9,1.1-1.2c2.3-1.7,4.5-3.5,6.8-5.2c4.6-3.1,9.2-6.1,13.8-9.2c0.4-0.2,0.7-0.5,1-0.9
		c0.5-0.7,0.4-1.3-0.2-1.8c-0.6,0.3-1.2,0.6-1.8,0.7c-1,0.3-1.7-0.1-2-1.1c-0.4-1.1-0.4-2.2-0.1-3.3c0.5-1.4,1.4-2.3,2.6-2.2
		c2,0.1,3.3,0.9,3.6,2.5c0.4,1.5,0.1,2.9-0.2,4.4c-0.3,1.6-1.1,2.9-2.3,4c-6.4,5.6-13.3,10.3-21.3,13.3c-0.2,0.1-0.4,0.2-0.7,0.2
		C118.7,173.7,118.7,173.7,118.6,173.6z"/>
	<path class="st9" d="M149,118.6c3.6,2.7,6.6,5.6,7.3,10.1c0.2,1.1,0.1,2.2-0.1,3.3c-0.1,0.5-0.5,0.9-1,1.3
		c-1.2,0.9-2.7,1.2-4.2,1.3c-2.1,0.1-4.1-0.3-6.1-0.7c-0.5-0.1-0.5-0.5-0.5-0.9c0-3.5,0.9-6.9,2.4-10.1
		C147.5,121.5,148.2,120.1,149,118.6z"/>
	<path class="st9" d="M130.3,148.6c-0.3,1-0.5,2-0.8,2.9c-0.1,0.4-0.5,0.6-1,0.6c-2.7-0.3-5.3-0.7-7.8-1.9c-0.8-0.4-1.5-0.8-2.1-1.3
		c-1.6-1.3-2.2-3-1.5-5c0.4-1.1,1-2.1,1.5-3.1c0.1-0.2,0.4-0.3,0.6-0.3c2.7,0.3,5.4,0.8,7.8,2.2C129.1,144.1,130,146.1,130.3,148.6z
		"/>
	<path d="M108.7,118.7c0-3.4,2.7-6,6.1-6c3.3,0,5.9,2.7,5.9,6.1c0,3.3-2.7,5.9-6.1,5.9C111.4,124.7,108.7,122,108.7,118.7z"/>
	<path class="st9" d="M214.1,158.4c0.5,0,1,0,1.5,0c-0.3,0.5-0.5,1.1-0.7,1.6C214.6,159.5,214.4,159,214.1,158.4z"/>
</g>
</svg>
